<svg xmlns="http://www.w3.org/2000/svg" xmlns:xlink="http://www.w3.org/1999/xlink" viewBox="0 0 50.93 60.35"><defs><style>.cls-1{fill:url(#linear-gradient);}.cls-2{fill:#8ed0f2;}.cls-3{fill:#f3f5f8;}</style><linearGradient id="linear-gradient" x1="3.36" y1="9.33" x2="32.49" y2="50.15" gradientUnits="userSpaceOnUse"><stop offset="0" stop-color="#8dd2f4"/><stop offset="0.52" stop-color="#708dbb"/><stop offset="1" stop-color="#544a85"/></linearGradient></defs><g id="Layer_2" data-name="Layer 2"><g id="Layer_1-2" data-name="Layer 1"><path class="cls-1" d="M37.61,12.53,27.53,2.39C25.73.43,24.26,0,21.59,0H7.34C2.47,0,0,2.67,0,7.92V46.15C0,51.42,2.47,54,7.34,54H32.48c4.91,0,7.35-2.64,7.35-7.89V19.26C39.83,16,39.5,14.6,37.61,12.53Zm-12.88.41V4.84L35.28,15.46H27.1A2.44,2.44,0,0,1,24.73,12.94Z"/><rect class="cls-2" x="16.82" y="26.24" width="34.11" height="34.11" rx="17.06"/><rect class="cls-3" x="30.74" y="34.14" width="6.27" height="18.31" rx="3.13"/><rect class="cls-3" x="30.74" y="34.14" width="6.27" height="18.31" rx="3.13" transform="translate(-9.42 77.18) rotate(-90)"/></g></g></svg>