<svg xmlns="http://www.w3.org/2000/svg" viewBox="0 0 561.78 387.92"><g id="Layer_2" data-name="Layer 2"><g id="Layer_1-2" data-name="Layer 1"><path d="M160.05,72.31c14,.79,27.35,1.75,39.79,6.85,20.18,8.26,35,22.58,45.16,41.9,11,20.87,11.95,42.61,6.58,65.05-1,4-2.11,8.06-3.39,12-.69,2.15-.71,2.94,2,3.67,16,4.35,32.35,6,48.74,7.69,14.91,1.5,29.83,3,44.66,5,11,1.52,21.91,4,32.86,6,13.8,2.52,25.61,9.19,36.54,17.6,1.92,1.49,2.52,1.77,3.6-.77,2.39-5.61,6.37-10.15,11-14.05a102.39,102.39,0,0,1,11.54-8.72A77.11,77.11,0,0,0,460.23,195c6.88-9.24,13.5-18.59,17.09-29.7a53.1,53.1,0,0,0,1.64-6.72c.77-4.19,2.61-6.14,5.92-6,3.73.13,5.75,2.14,6,6.51a24.83,24.83,0,0,1-.45,6.94c-4.74,20.75-14.89,38.74-28.81,54.6-4.81,5.49-10.55,10.17-15.89,15.18a51.51,51.51,0,0,0-11.83,15.95c-1.22,2.64-.88,4.28.88,6.65,9.31,12.57,18.9,25,27.22,38.2,5.35,8.5,8.81,18.23,12.83,27.54,1.74,4-.08,7.82-2.54,11.06-.56.75-2.39.91-3.57.77-6.95-.79-13.88-1.74-20.81-2.66-.82-.1-1.63-.33-2.46-.43-5.14-.67-9.23-.63-13.15,4.62-4.48,6-11.05,10.51-17,15.33-2,1.63-1.68,2.71-1.16,4.83,1.56,6.27,2.82,12.63,3.77,19,.53,3.54-1.26,5.82-4.74,7.23a35.23,35.23,0,0,1-5.19,1.54c-3.59.83-4.12.48-5.64-2.93a12.66,12.66,0,0,0-1.77-2.9c-2-2.42-4.19-4.74-6.25-7.14-3.23-3.77-3.25-3.85-7.48-1.7-26.33,13.38-54.36,18.58-83.67,16.86-20.73-1.22-40.76-6-60.27-13.16-21.87-8-42.08-19.14-61.19-32.31-12.58-8.67-22.91-19.79-32.4-31.68a6.88,6.88,0,0,0-5.78-2.94,61.24,61.24,0,0,1-21.9-4.45c-4.84-2.07-6.47-5.79-6.68-10.54-.14-3.2.85-4.15,4.07-4.17,3.83,0,7.67.12,11.49-.08,2.71-.14,2.79-.5,1.5-3-2.81-5.47-5.77-10.88-8.4-16.44-1.08-2.28-2.92-2.54-4.86-2.83a82.74,82.74,0,0,1-30.25-11.17A94.07,94.07,0,0,1,55.28,221c-5.22-8.9-9.16-18.18-10.36-28.38-2-16.95-.36-33.63,5.79-49.62a162.24,162.24,0,0,1,9.55-20.28A81.23,81.23,0,0,1,93.8,90.08c16.44-8.79,33.72-15,52.44-16.62C151.05,73,155.86,72.66,160.05,72.31ZM312.17,382.93a170.48,170.48,0,0,0,43.92-5.81c23.23-6.12,43.6-17.83,62.39-32.5,4.19-3.28,8.17-6.84,12.09-10.44,2-1.84,1.7-2.61-.9-3.13-4.24-.84-8.53-1.43-12.73-2.42a23.88,23.88,0,0,1-5.91-2.54c-.62-.34-.79-1.51-1.16-2.3a7.61,7.61,0,0,1,2.66-.36c2.91.66,5.73,1.82,8.66,2.26,6.56,1,13.19,1.66,19.78,2.51,8.08,1,16.15,2.19,24.25,3.18,1.16.14,3.25-.07,3.46-.64.69-1.9,3.14-3.28,1.9-5.82-4.95-10.14-9.13-20.75-15-30.33C449,283.84,441,273.93,433.45,263.81c-7.06-9.44-16.3-16.65-25.61-23.66a87.29,87.29,0,0,0-32.53-15.79,482.56,482.56,0,0,0-67-10.49c-19.91-1.83-39.82-3.38-59.26-8.3-2.75-.69-4.47-.35-6.55,1.68a254.27,254.27,0,0,1-42.94,34.08c-11.88,7.41-24.3,13.76-37.84,17.71-10.38,3-20.81,5.8-31.62,6.9-2.63.27-2.82.68-1.52,3.08,2.61,4.82,5.33,9.58,8,14.35A176.07,176.07,0,0,0,175.69,331c17.61,14.95,37.6,26.21,59,35C259.52,376.27,285.1,383,312.17,382.93ZM49.08,177.64c.4,5.14.24,10.4,1.3,15.4C54.87,214.35,65.6,231.9,83,245.2c9.91,7.59,20.8,13.13,33.13,15.59a20,20,0,0,0,2.33.2,17.46,17.46,0,0,0-.63-2.17c-4.57-10.2-8.45-20.65-10-31.76-1.15-8.23-1.95-16.51-2.62-24.79a100.08,100.08,0,0,1,1.62-27.36c.77-4,3.35-4.76,6.44-2.14a17.63,17.63,0,0,1,3.06,3.28c1.19,1.73,2,1.49,3.41.13a70.91,70.91,0,0,1,26.06-15.37c18.1-6.16,36.88-8.68,55.93-9.17,2.68-.07,3.67-.95,4.65-3.26a68,68,0,0,1,5.48-10c1.07-1.68,2.84-3,5.09-2.47s3.2,2.43,3.35,4.49a109.18,109.18,0,0,1,.31,11.44,8.4,8.4,0,0,0,2.21,6.31c2.72,3.13,5.56,6.32,7.5,9.94,4.62,8.64,8.74,17.54,13.08,26.33.34.69.77,1.34,1.16,2a14.32,14.32,0,0,0,1-2.22c3.51-12.41,5.68-24.93,4.72-37.95-1.54-20.9-10.36-38.39-24.74-53.15a78,78,0,0,0-41.38-22.68,130.73,130.73,0,0,0-39.24-2.17c-20,2-38.5,8.73-55.8,18.92A58.68,58.68,0,0,0,69.89,115C57.11,133.92,49.57,154.57,49.08,177.64Zm60.45,20.59c.52,7.82.77,13.64,1.32,19.44a109.21,109.21,0,0,0,13.21,42.54c.71,1.31,1.13,2.5,3.28,2.07,13.72-2.73,27.4-5.72,40.43-10.83,27.4-10.73,50.44-28.09,71.64-48.13,1.52-1.43,2.07-2.61,1.1-4.71C234,184.76,228.3,170.49,217.68,159a6.8,6.8,0,0,1-1.81-5.44c.2-3.32.07-6.66,0-10a6.31,6.31,0,0,0-.36-1.37c-.52.31-1.29.5-1.52,1-1.77,3.56-3.56,7.12-5.07,10.79-.79,1.92-1.63,2.92-3.92,3-6.8.11-13.63.22-20.39.87-11.94,1.14-23.8,2.91-35.24,6.71-10.36,3.43-19.94,8.31-28,15.87-4,3.72-3.88,3.75-7.64-.39a21.09,21.09,0,0,0-2.6-2.07,15.25,15.25,0,0,0-.94,3.33C109.93,187.58,109.71,193.9,109.53,198.23ZM487.26,161.4l-1.53-3.52c-.68.87-1.39,1.72-2,2.63a4.7,4.7,0,0,0-.52,1.4c-2.84,10.76-8.16,20.25-14.48,29.33C461,202.3,452.19,212,440.44,219a69.82,69.82,0,0,0-9.95,7.49,44.35,44.35,0,0,0-10.65,13.1c-1.1,2.11-1,3.58,1.07,5.08a47.53,47.53,0,0,1,5.95,5.31c1.36,1.4,2.21,1.17,2.86-.44a45.27,45.27,0,0,1,10.48-15c4.27-4.21,8.81-8.14,13-12.42a133.41,133.41,0,0,0,12-13.32,129.91,129.91,0,0,0,16.13-28.59C483.8,174,485.35,167.51,487.26,161.4Zm-72.9,212.27c-1.21-5-2.37-10-3.66-14.95-.32-1.24-1.06-1.82-2.51-.82-3.83,2.63-7.75,5.14-11.71,7.59-1.38.85-1.47,1.52-.38,2.66,3,3.11,6.07,6.17,8.87,9.47,1.4,1.65,2.54,2.4,4.53,1.11S414.73,377.48,414.36,373.67ZM128.27,292.33l-4.66-.25c-4.45-.21-5.15.69-3,4.56a7.75,7.75,0,0,0,3.87,3.42,113.5,113.5,0,0,0,13,3.3c1.86.37,3.86,0,5.8,0a43.15,43.15,0,0,1-2.84-4.6C137.85,293.15,134.18,289.86,128.27,292.33Z"/><path d="M351.87,42.1c14.13-.62,30.76-1.51,47.41-2,14.31-.43,28.65-.17,43-.68,15.63-.55,31.24-1.68,46.87-2.48,4.65-.23,9.32-.28,14-.28,2.54,0,4.49,1.7,4.59,3.7s-1.74,3.89-4.31,4c-6.16.26-12.35-.1-18.48.43-32.56,2.85-65.24,1.73-97.84,3-19.3.73-38.62.79-57.93,1.06a20.14,20.14,0,0,1-5.85-.93c-1.68-.49-3.22-1.84-2.38-3.68a4.66,4.66,0,0,1,3.51-2C332.72,42,341,42.1,351.87,42.1Z"/><path d="M325.78,15.3c0-3.33,0-6.66,0-10a7.12,7.12,0,0,1,.34-2.94c.47-1,1.35-2.16,2.24-2.34s2.14.61,2.88,1.34a11.68,11.68,0,0,1,1.72,3c3,5.73,6,11.47,9.06,17.17a6.45,6.45,0,0,0,1.33,1.33,6.24,6.24,0,0,0,.65-1.63c.34-4.14.63-8.29.9-12.43a34,34,0,0,0,0-3.5c0-1.77.82-3.08,2.51-3.11S350,3.46,350,5.24c0,3.66.2,7.34-.13,11a97.24,97.24,0,0,1-2,12.79,5.43,5.43,0,0,1-3,3.43c-.82.28-2.7-1.14-3.43-2.24-2.83-4.29-5.37-8.78-8.07-13.16a27.1,27.1,0,0,0-2-2.54c-.08,1.11-.21,2.23-.22,3.34-.05,3.16-.05,6.33-.06,9.49,0,1.65-.54,3.13-2.37,3.23-2.08.11-2.88-1.43-2.91-3.28C325.73,23.29,325.77,19.29,325.78,15.3Z"/><path d="M479.5,11.4c-1.25,5.15-2.19,10.39-3.84,15.4s-5.51,5.55-8.91,1.31c-2-2.43-3.29-5.35-4.93-8a6.23,6.23,0,0,0-1-1c-.29.46-.77.9-.84,1.4-.28,2.14-.19,4.37-.74,6.43-.27,1-1.65,1.74-2.52,2.59-.86-.9-2-1.66-2.5-2.73a7.4,7.4,0,0,1-.16-3.46c.39-4.47.88-8.94,1.3-13.41.17-1.74.55-3.81,2.41-3.85a6.15,6.15,0,0,1,4.58,2.13c2.48,3.71,4.42,7.79,6.62,11.7a7.34,7.34,0,0,0,1.28,1.34,6.2,6.2,0,0,0,.73-1.6c.43-2.95.78-5.92,1.16-8.88.15-1.14-.07-2.59.54-3.36.83-1,2.4-2.24,3.47-2.09s2.05,1.82,2.66,3c.4.8.07,2,.07,3Z"/><path d="M353.38,19.39c.7-3.4,1-6.92,2.17-10.16,1.84-5.27,4.81-6.48,10.14-4.8C372.61,6.62,375.9,10.57,376,16.8c.08,7.14-4.38,14.57-10,16.62-4,1.47-8-.07-10.33-3.81C353.69,26.45,353.7,23,353.38,19.39Zm6.1-.81a46.72,46.72,0,0,0,.58,6.09c.79,3.29,3,4,5.46,1.87a11.58,11.58,0,0,0,4.41-9.62,7.6,7.6,0,0,0-6.29-7.29c-1.61-.31-2.71.09-3,1.69C360.12,13.92,359.79,16.55,359.48,18.58Z"/><path d="M421.69,8.53c0-1.16-.34-2.47.09-3.44s1.61-2.36,2.51-2.39a3.46,3.46,0,0,1,2.56,2.24c1.07,6.88,1.91,13.79,2.73,20.71.26,2.15-1.07,4-2.77,4-2,0-2.93-1.27-3.19-3.13-.19-1.31-.39-2.63-.55-3.94-.47-4.11-.46-4.13-4.38-4.13a15.33,15.33,0,0,0-4,.25,2.72,2.72,0,0,0-1.66,1.82,20.93,20.93,0,0,0,.28,4.45c.12,1.16.47,2.3.48,3.45,0,2-.75,3.85-2.89,4-1.84.11-2.88-1.46-3.19-3.24s-.46-3.29-.61-4.94c-.42-4.8-.81-9.59-1.22-14.38-.06-.83-.19-1.66-.18-2.49,0-1.87.12-4.12,2.43-4.25s2.53,2.14,2.74,4c.06.5,0,1,.13,1.49.89,5.17.89,5.17,6,4.43.33,0,.66-.06,1-.1C421.73,12.44,421.73,12.44,421.69,8.53Z"/><path d="M314.15,78.17c.12-1,.25-3,.6-5,.94-5.41,5.86-8.13,10.75-5.71a12,12,0,0,1,4.78,4.16c4,6.49,4.31,13.55,1.66,20.56-2.2,5.82-7.38,6.66-11.82,2.31C316.38,90.84,314.06,84.89,314.15,78.17Zm5.77-.07a15.9,15.9,0,0,0,4,12c.82,1,1.76,1.64,2.64.1,2.18-3.85,1.24-13.1-1.84-16-.94-.9-2.59-1-3.91-1.54-.3,1-.65,2.05-.85,3.1A13.91,13.91,0,0,0,319.92,78.1Z"/><path d="M484.39,19.71c.8-3.87,1.4-7.81,2.46-11.61.81-2.88,2.77-5.15,6.07-5a8.25,8.25,0,0,1,7.31,5.25,4.66,4.66,0,0,1,.21,2.86c-.33,1.29-1.21,2-2.56.9-.24-.2-.37-.56-.61-.78-3.75-3.53-5.06-3.33-5.85,1.61a57,57,0,0,0-.24,11.9,4.27,4.27,0,0,0,2.34,2.86c.61.28,2-.73,2.81-1.46s.92-2-.73-1.77c-1.89.22-3.41.07-3.69-2.14-.24-1.78,1.48-3.42,3.9-3.69a13.2,13.2,0,0,1,4,.05c2.91.53,4.35,2.53,3.83,5.39a13.68,13.68,0,0,1-5.43,8.69c-3,2.19-7.21,1.55-9.95-1.3C485.68,28.83,485,26.22,484.39,19.71Z"/><path d="M411.06,74.12c0-3,0-6,0-9s1.11-5.4,3.73-6.5a10.86,10.86,0,0,1,9.19.56,2.87,2.87,0,0,1,.9,2.56c-.18.75-1.18,1.45-2,1.89-.5.27-1.3,0-2,0-4-.12-4.18.13-3.83,4,.16,1.75.87,2.24,2.5,2.24a23.81,23.81,0,0,1,4.44.52,3,3,0,0,1,2.73,3.07c-.07,2-1.6,2.82-3.38,3a11.52,11.52,0,0,1-3-.21c-1.81-.29-3.26-.43-3.28,2.21,0,3.86.38,4.84,3,5,1.49.07,3,0,4.49.06,1.79,0,3.12,1.24,3,2.71-.11,1.15-1.53,3-2.54,3.09a48,48,0,0,1-10.44.18c-2.12-.21-3.36-2.07-3.39-4.34-.05-3.67,0-7.33,0-11Z"/><path d="M535.15,60.64c1,0,2-.07,3,0A2.74,2.74,0,0,1,541,63.53a2.88,2.88,0,0,1-2.73,3,21.25,21.25,0,0,1-4,.08c-2.13-.1-2.52,1.08-2.29,2.85.2,1.6-.14,3.54,2.52,3.26a5.85,5.85,0,0,1,2.95.05c1,.5,2.32,1.43,2.58,2.41.38,1.43-.77,2.45-2.33,2.58a25,25,0,0,1-3,0c-1.49-.07-2.13.56-2,2.08s.76,2.12,2.24,1.94,3.08-.68,4.44-.33,3,1.43,3.16,2.44-1,3.15-2,3.39a39.07,39.07,0,0,1-9.79,1.26,4.32,4.32,0,0,1-4.21-4.23c-.51-5.79-1-11.59-1.18-17.39-.06-2.82,3.31-5.77,6.29-6.17a25.37,25.37,0,0,1,3.49,0Z"/><path d="M503.78,70.54c-1-3.69,1-7,4.51-9.45s7.15-1.32,8.29,2.69c.91,3.18,1.53,6.64-1,9.47-1.17,1.32-.92,2.12,0,3.4,2,2.85,3.82,5.84,5.69,8.78.9,1.42,1.12,2.91-.5,3.9s-2.86.17-3.75-1.25c-1.85-3-3.65-5.94-5.52-8.88-.19-.29-.78-.32-1.18-.46a2.84,2.84,0,0,0-.16.93c.25,1.64.59,3.25.83,4.89.27,1.8-.07,3.54-2.08,3.93-2.36.45-3.25-1.41-3.57-3.26-.59-3.44-.94-6.91-1.34-10.38C503.86,73.7,503.87,72.53,503.78,70.54Zm5-2.42.86,2.23c.66-.77,1.63-1.46,1.87-2.34.15-.55-.8-1.4-1.26-2.11C509.74,66.63,509.26,67.36,508.76,68.12Z"/><path d="M397,90.38c-1.31-.18-2.8-.31-4.26-.59a3.6,3.6,0,0,1-3.18-3.34c-.81-6.75-1.73-13.49-.87-20.34.35-2.73,1.55-4.45,4.08-4.93a32.42,32.42,0,0,1,7.86-.59A3.59,3.59,0,0,1,403,63.11c.06,1-1.09,2.36-2.07,2.89s-2.57.43-3.88.52c-1.78.11-3.25.29-3.09,2.76.13,2.09,1.29,2.44,2.95,2.44.83,0,1.66,0,2.49.07,2,.17,3.31,1.47,3,3.2-.17,1.05-1.88,1.9-3,2.72-.33.24-1,.05-1.47.07-3.85.16-3.69.14-3.08,4.14.27,1.74,1,2.32,2.53,2.27,1.32,0,2.81-.57,3.91-.12A5.27,5.27,0,0,1,404.18,87c.21.66-1.3,1.93-2.15,2.81a2.36,2.36,0,0,1-1.42.39C399.46,90.27,398.3,90.31,397,90.38Z"/><path d="M297.9,66.64c2.82,0,5.65,0,8.48,0,2.14,0,3.53,1.16,3.57,3.32s-1.45,3.21-3.46,3.56c-.33.06-.67,0-1,0-5.5.45-5.41.44-5.25,5.79.11,3.81,0,7.64-.09,11.46,0,2-.65,3.69-3,3.8-1.85.08-3-1.6-3-4.31,0-4.48-.1-9,0-13.46.08-2.46-.92-3.3-3.24-3.07a21.33,21.33,0,0,1-3,0c-1.93-.08-3.28-1.1-3.39-3-.13-2.16,1.29-3.35,3.41-3.49,3.31-.22,6.64-.34,10-.51Z"/><path d="M370.44,92a9.81,9.81,0,0,1-3.12-.28c-.93-.32-2.27-1.38-2.26-2.1a3.94,3.94,0,0,1,1.72-3.07c1.6-.71,3.52-.71,5.31-1C376,85,376.5,83.94,374,80.94c-2-2.42-4.27-4.64-6.34-7-1.94-2.21-3.27-4.58-1.85-7.68a9.46,9.46,0,0,1,7.22-5.45,5.6,5.6,0,0,1,3.31.59c2.17,1.07,2.16,2.94.14,4.14-1.51.9-3,1.85-4.49,2.78,1.14,1.57,2.22,3.19,3.45,4.7s2.91,3.18,4.3,4.83c2.3,2.76,3.11,6,1.68,9.28s-4.36,4.36-7.69,4.66C372.93,91.84,372.1,91.88,370.44,92Z"/><path d="M461.57,81.43c.12,1.34.48,2.26.18,2.61-.89,1-1.95,2.3-3.13,2.53-.71.14-2.52-1.46-2.54-2.32-.2-6-.14-11.93.09-17.89a3.1,3.1,0,0,1,2.28-2.06,3.48,3.48,0,0,1,2.27,2.23,24.47,24.47,0,0,1,.25,4.94c.15,3.23.16,3.23,3.52,2.77.33,0,.65-.13,1-.18,3.92-.64,3.9-.64,4.19-4.45a17.17,17.17,0,0,1,.64-4.38,3.05,3.05,0,0,1,2.21-1.49c.55-.08,1.49.72,1.81,1.35a7.33,7.33,0,0,1,.62,2.86c.39,5.29.72,10.58,1.07,15.88,0,.49.26,1.11.05,1.46-.55.91-1.23,2.33-2,2.41a5.34,5.34,0,0,1-3.34-1.31c-.53-.39-.59-1.49-.75-2.29-1-5-1-5-6.12-4.5C461.53,79.81,461.53,79.81,461.57,81.43Z"/><path d="M493.38,87.89c-6.59-.12-9.49-2.72-9.57-9.29C483.75,74,483,69.37,485,64.86c1-2.32,2.34-3.49,4.83-3.34a52.71,52.71,0,0,1,5.9.46,2.4,2.4,0,0,1,1.38,1.81,2.35,2.35,0,0,1-1.2,1.88,12.63,12.63,0,0,1-4.28.88c-2,0-2.52.9-2.57,2.73-.06,2,1,2.09,2.52,2,1.15,0,2.52-.29,3.4.22a4.36,4.36,0,0,1,2,2.89c.06.69-1.27,1.71-2.18,2.22-.64.35-1.63,0-2.44.15-1.15.18-3.11-.7-3.06,1.37,0,1.73.47,3.77,2.84,4.08,1.32.16,2.65.15,4,.21,1.67.07,3,.68,3,2.56a2.69,2.69,0,0,1-2.78,2.88C495.38,88,494.38,87.89,493.38,87.89Z"/><path d="M389.79,4c1.82-.14,3.64-.33,5.46-.42s3.4.49,3.61,2.56C399.05,8,397.73,8.7,396.1,9s-3.89.38-4.49,1.39c-.8,1.34-.41,3.49-.26,5.28.37,4.29.8,8.58,1.39,12.84.27,2-.31,3.48-2.24,3.73-1.74.22-2.55-1.21-2.71-2.88-.5-5.11-1.12-10.21-1.46-15.33-.17-2.71-.27-4.88-4-4.57a2.5,2.5,0,0,1-2.77-2.81c.17-1.81,1.67-2.43,3.24-2.51,2.31-.12,4.64,0,7,0Z"/><path d="M444.4,28.55c-.32.35-1.15,2-2.2,2.16s-2.64-.91-3.51-1.87c-.68-.75-.79-2.14-.89-3.27-.5-5.93-.91-11.86-1.36-17.79-.12-1.68.45-2.95,2.14-3.45,1.85-.54,2.74.64,3.38,2.08a6.17,6.17,0,0,1,.58,1.89C443.16,14.71,443.73,21.13,444.4,28.55Z"/><path d="M137.57,373.81c-.54-.59-1.48-1.14-1.48-1.69,0-2.14-.69-3.37-3-3.58-.48-.05-1.25-1.18-1.2-1.77s.91-1.64,1.42-1.64c2.35,0,3.7-.87,4-3.3,0-.32.74-.72,1.18-.79,1.14-.2,4.86,5.65,4,6.32a10.63,10.63,0,0,0-3.47,5.5C138.86,373.21,138.22,373.39,137.57,373.81Z"/><path d="M170.36,42.73c-1.61-1.86-3-2.84-3.45-4.15-.62-1.73,1.26-3.78,3.05-3.63s3.38,1.21,3.09,3.13C172.86,39.43,171.63,40.64,170.36,42.73Z"/><path d="M4.09,264c-2.73,0-4.21-1.33-4.08-3a3.18,3.18,0,0,1,3.13-3.18c1.72-.14,4.08,1.95,3.51,3.31S4.7,263.33,4.09,264Z"/><path d="M38,301.42c-1,.71-2.26,2.19-3,2-1.16-.38-2-1.86-2.91-2.88l3.46-3.09Z"/><path d="M560.19,115.53c.59,1.32,1.55,2.57,1.59,3.85,0,.74-1.92,2.3-2.13,2.16a22.23,22.23,0,0,1-3.33-3.05Z"/><path d="M298.71,139.09c-1.1.92-1.94,2.07-2.41,1.93-.92-.27-1.63-1.25-2.43-1.94.72-.74,1.39-2,2.15-2.07S297.59,138.16,298.71,139.09Z"/><path d="M208.11,286.84c-7.69-.43-14-1-19.57-4.43-3-1.89-4.83-4.47-4.82-8.16s.54-4.34,4-5.1c3.89-.85,7.85-1.44,11.68-2.48,4.31-1.17,8.52-2.7,12.77-4.09a15.8,15.8,0,0,1,2.79-.94,2,2,0,0,1,1.63.79,1.81,1.81,0,0,1-.34,1.73A15.27,15.27,0,0,1,212,266.6c-6.69,1.95-13.45,3.64-20.14,5.58-1.22.36-3.69-.38-3.4,1.84.24,1.88-.44,4.6,2.4,5.46,3.47,1.07,6.89,2.58,10.44,3,5.25.65,10.62.92,15.71-1.37.75-.34,1.83,0,2.75.09-.35,1-.44,2.3-1.13,2.94a7.28,7.28,0,0,1-3.49,1.72C212.4,286.41,209.58,286.65,208.11,286.84Z"/><path d="M216.78,103.21c-.19,2.48-2.33,3.2-4.67,1.92-3.5-1.9-7-3.88-10.47-5.73a109.79,109.79,0,0,0-28.15-9.75,13.94,13.94,0,0,1-3.37-.89c-.77-.38-1.3-1.27-1.94-1.93.82-.69,1.54-1.73,2.47-2a10,10,0,0,1,4,0,110.43,110.43,0,0,1,36.85,13.25,26.56,26.56,0,0,1,4.37,3.26A5,5,0,0,1,216.78,103.21Z"/><path d="M231.94,119c-.34.51-.76,1.78-1.61,2.24s-2.62.58-3.18,0a35.48,35.48,0,0,1-5.36-6.44c-1.12-1.79.74-4.23,2.75-4S231.76,116.47,231.94,119Z"/><path d="M169.89,213.37c-3.59.14-6.07-1.64-6.21-4a2.89,2.89,0,0,1,.77-2.2,2.19,2.19,0,0,1,2.15.16c2.45,2.89,3.46,1.92,4.57-1.15.85-2.32,2.92-.16,4.22-.5s2.13-2.07,3.37-2.91c.23-.15,1.93,1,2,1.66.11,1.2-.08,3.1-.85,3.58C176.48,210.12,172.81,211.84,169.89,213.37Z"/><path d="M198.67,193.18c-3.44-.18-4.92-1.32-4.73-3.63s2.87-4.8,4.89-4.78a4.61,4.61,0,0,1,4.65,4.68C203.26,191.92,201.44,193.33,198.67,193.18Z"/><path d="M137.17,211.76c-2.91-.06-4.93-1.7-4.76-3.86a4.78,4.78,0,0,1,4.83-4.08,4.66,4.66,0,0,1,4.44,4.43C141.64,210.4,139.82,211.81,137.17,211.76Z"/><path d="M242.9,52c-.21,1.79-.41,3.57-.71,5.34-.16,1-.35,1.91-.45,2.88s0,1.87-.11,2.79a1.5,1.5,0,0,0,1.5,1.5,1.53,1.53,0,0,0,1.5-1.5c.1-.92,0-1.86.11-2.79s.28-1.67.41-2.5c.31-1.9.53-3.81.75-5.72a1.5,1.5,0,0,0-1.5-1.5,1.54,1.54,0,0,0-1.5,1.5Z"/><path d="M238.42,59.2a29.36,29.36,0,0,0,12.2.41,1.52,1.52,0,0,0,1-1.85,1.55,1.55,0,0,0-1.85-1,25.44,25.44,0,0,1-10.6-.41,1.54,1.54,0,0,0-1.85,1.05,1.53,1.53,0,0,0,1,1.85Z"/><path d="M8,99.16a72.94,72.94,0,0,0,5.41,6.38,1.51,1.51,0,0,0,2.12,0,1.53,1.53,0,0,0,0-2.12c-.9-1-1.78-1.92-2.64-2.92-.42-.49-.83-1-1.24-1.5l-.6-.75-.14-.18c-.11-.14-.05-.06,0,0-.12-.15-.23-.31-.34-.46a1.72,1.72,0,0,0-.9-.69,1.54,1.54,0,0,0-1.15.16,1.51,1.51,0,0,0-.54,2Z"/><path d="M10.57,104.5a13,13,0,0,0,3.52-2.87,20.53,20.53,0,0,0,1.29-2c.43-.66.9-1.3,1.38-1.93a1.51,1.51,0,0,0-.54-2.06,1.55,1.55,0,0,0-2,.54c-.44.59-.88,1.18-1.28,1.79-.19.29-.36.58-.54.88-.08.14-.16.28-.25.42s-.09.15-.15.23l-.06.08c-.06.09,0,.06.07-.08,0,.06-.61.66-.67.73l-.74.65-.21.17c-.17.14.29-.21,0,0l-.4.29c-.29.2-.58.38-.88.56a1.5,1.5,0,1,0,1.51,2.59Z"/></g></g></svg>