<?xml version="1.0" encoding="utf-8"?>
<!DOCTYPE svg PUBLIC "-//W3C//DTD SVG 1.0//EN" "http://www.w3.org/TR/2001/REC-SVG-20010904/DTD/svg10.dtd">
<svg version="1.0" xmlns="http://www.w3.org/2000/svg" width="1200px" height="880px" viewBox="0 0 1200 880" preserveAspectRatio="xMidYMid meet">
 <g fill="#000000">
  <path d="M557.75 817.70 c-0.80 -0.10 -3.50 -0.45 -6 -0.75 -6.10 -0.75 -20.65 -3.65 -26.35 -5.25 -8.15 -2.25 -15.40 -5.65 -19.90 -9.25 l-1.85 -1.50 -6.20 1.80 c-6.90 2 -15.85 3.75 -26.20 5.10 -10 1.30 -35.75 1.30 -43 -0.05 -5.95 -1.05 -14.35 -3.75 -17.65 -5.65 -9.80 -5.60 -15.10 -14.10 -15.10 -24.15 0 -7.15 2.45 -12.85 7.95 -18.65 4.40 -4.65 8.80 -7.65 14.55 -10 4.90 -2.05 7.45 -2.75 17.75 -4.85 9.15 -1.90 12.90 -3.60 15.15 -6.80 1.75 -2.45 3.35 -2.85 4.75 -1.30 3 3.30 -2.40 9.15 -10.80 11.75 -2.25 0.70 -7.15 1.90 -10.85 2.65 -7.65 1.50 -12.10 2.95 -17.50 5.75 -6.60 3.40 -10.40 7.15 -13.20 12.95 -1.30 2.70 -1.60 4 -1.70 7.55 -0.45 10.95 5.65 18.45 18.75 23 16.25 5.60 54.70 3.95 77.25 -3.35 l2.40 -0.80 -0.85 -1.55 c-1 -2.05 -1.40 -7.50 -0.70 -10.10 1.50 -5.55 6.05 -9.30 11.25 -9.30 8.05 0 12.50 7.80 8.70 15.20 -1.15 2.30 -4.85 6.05 -7.05 7.20 l-1.55 0.80 1.45 1.20 c8.85 7.40 46 14.60 65.25 12.70 13.05 -1.30 25.55 -4.80 36.80 -10.25 3.60 -1.75 6.70 -3.40 6.85 -3.65 0.15 -0.25 -0.15 -1.90 -0.70 -3.70 -2.20 -6.95 0.70 -14.40 6.80 -17.60 3.95 -2 11.50 -1.70 17.25 0.75 l2.25 0.95 4.15 -2.15 c3.45 -1.75 4.75 -2.15 7.65 -2.30 2.95 -0.20 3.85 -0.05 6.15 1.10 3.95 1.95 6.80 6.30 6.80 10.35 0 1.95 1.25 2.20 7.10 1.45 7.75 -1 15.05 -3.15 27.70 -8.15 26.95 -10.70 41.85 -13.35 64.45 -11.65 5.80 0.45 11.40 0.65 12.50 0.50 4.35 -0.60 4.05 -0.20 4.05 -4.80 -0.05 -3.75 0.10 -4.40 1.50 -6.90 1.10 -1.90 2.30 -3.20 3.95 -4.25 2.15 -1.35 2.85 -1.50 6.25 -1.50 2.95 0 4.40 0.25 6.35 1.15 l2.45 1.20 1.95 -1.30 c2.30 -1.60 6.20 -2.80 8.95 -2.80 4.40 0 9.30 3.60 11.40 8.40 0.55 1.20 1.25 2.25 1.55 2.30 2.10 0.60 17.90 3.90 21.60 4.55 6.50 1.15 20.45 1.55 27.85 0.75 7.65 -0.75 16.45 -2.95 21.10 -5.20 7 -3.35 10.50 -7.95 10.55 -13.80 0 -3.90 -1.05 -6.30 -4.15 -9.40 -2.35 -2.40 -7.75 -5.15 -12.30 -6.35 -7 -1.75 -20.05 -2.15 -20.55 -0.60 -1.10 3.75 -2.30 5.90 -4.25 7.90 -4.10 4.15 -9.75 4.55 -16.25 1.15 l-3.55 -1.80 -3.75 1.05 c-10.15 2.85 -17.45 -0.15 -17.45 -7.20 0 -1.95 0.30 -3.05 1.25 -4.50 0.75 -1 1.25 -1.95 1.15 -2 -0.10 -0.10 -2.05 -0.45 -4.40 -0.75 -6.20 -0.85 -13.75 -0.15 -29.50 2.75 -5.10 0.95 -11.50 2 -14.25 2.30 -6.05 0.70 -16.10 0.35 -21.50 -0.80 -5.10 -1.05 -13.25 -4.25 -16.60 -6.45 l-2.60 -1.70 -3.15 1.50 c-16.90 8 -42.65 15.40 -67.90 19.40 -38.45 6.05 -70.95 6.45 -106 1.20 -20.20 -3 -40.90 -8.45 -55.30 -14.45 -2.95 -1.25 -5.60 -2.25 -5.90 -2.25 -0.35 0 -0.95 0.65 -1.45 1.45 -1.20 2.05 -3.95 3.25 -6.65 2.85 -2.90 -0.40 -5.40 -1.70 -8.75 -4.60 -4.55 -4 -4.25 -3.85 -5.45 -3.20 -1.70 0.90 -4.65 0.70 -7.05 -0.50 -1.20 -0.65 -4.45 -3.45 -7.20 -6.25 -4.15 -4.30 -5.15 -5.05 -6 -4.75 -0.55 0.25 -1.95 0.45 -3.10 0.45 -3.55 0.05 -12.15 -5 -26.10 -15.45 l-6.20 -4.60 -3.55 0.25 c-8.60 0.60 -18.75 -0.95 -26 -3.95 -11.30 -4.75 -19.80 -15.20 -22.10 -27.10 -1.10 -5.65 -0.85 -9.25 1.05 -16.60 l0.30 -1.30 -5.55 -0.65 c-8.30 -0.95 -13.15 -2.30 -19.25 -5.25 -10.15 -5 -16.05 -11.90 -19 -22.30 -0.60 -2.20 -1.20 -3.05 -2.80 -4.25 -1.15 -0.80 -3.10 -2.75 -4.45 -4.25 -7.10 -8.20 -10.25 -16.90 -10.25 -28.25 0 -10.65 2.90 -18.70 9.05 -25.20 l3.15 -3.40 -1.45 -10.95 c-1.85 -14.05 -2.70 -24.90 -2.40 -32.05 0.15 -3.55 0.05 -5.65 -0.30 -5.65 -0.25 0 -1.45 -0.45 -2.60 -1.05 -1.60 -0.75 -2.40 -1.60 -3.25 -3.30 -1 -2.10 -1.05 -2.70 -0.75 -8.10 0.15 -3.20 0.45 -6.50 0.60 -7.35 0.25 -1.45 0.15 -1.65 -1.25 -1.95 -1.95 -0.40 -3.90 -2.75 -4.35 -5.15 -0.65 -3.40 1.15 -11.75 4.05 -18.70 0.30 -0.75 0.10 -0.90 -0.95 -0.90 -1.95 0 -4.20 -1.30 -5.05 -3 -1.30 -2.50 -0.90 -5.20 2 -13.60 3.20 -9.35 4 -13.10 4.75 -22.90 0.30 -4 0.65 -7.55 0.75 -7.90 0.15 -0.35 -0.40 -2.25 -1.20 -4.25 -3.65 -9.25 -6.95 -21.35 -9.10 -33.60 -0.95 -5.30 -1.15 -8.40 -1.15 -16.50 -0.05 -9.15 0.05 -10.25 1.05 -12.95 1.45 -3.75 3.20 -6.05 5.80 -7.45 1.85 -1 2.80 -1.10 8.60 -1.10 5.45 0.05 7.35 0.25 11.60 1.40 7.10 1.90 12.25 3.85 20.60 7.90 3.95 1.90 7.45 3.45 7.75 3.45 0.35 0 1.50 -0.90 2.55 -2.05 2.40 -2.45 9.35 -8.05 13.50 -10.80 4.90 -3.30 17.05 -10.10 23.70 -13.35 5.40 -2.60 6.75 -3.05 10 -3.30 3.15 -0.25 4.55 -0.70 7.95 -2.45 6.20 -3.15 8.50 -3.25 9.60 -0.30 l0.40 1.05 5.20 -1 5.25 -1 1.40 -4 c4.80 -13.60 16.60 -31.40 23.30 -35.05 3.75 -2.05 7.60 -2.05 11.45 0.05 7.55 4.05 16.85 16.90 27.40 38 l3.55 7.05 3.65 2.15 c2 1.20 6.35 4 9.65 6.25 7.35 5.05 8.90 5.85 14.05 7.25 2.45 0.65 4.70 1.60 5.65 2.40 1.80 1.50 2.60 4.05 2 6.25 -0.30 1.10 -0.20 1.45 0.45 1.70 3.10 1.05 8.20 3.90 9.30 5.15 1.55 1.90 2.15 4.60 1.35 6.40 -0.55 1.15 -0.45 1.45 1.30 3.20 l1.95 1.90 6.95 -6.90 c3.85 -3.80 8.60 -8 10.50 -9.35 1.95 -1.30 3.60 -2.50 3.65 -2.55 0.10 -0.05 -0.25 -1.35 -0.80 -2.80 -1.60 -4.25 -2.30 -9.85 -1.95 -15.80 0.40 -6.80 1.70 -11.95 4.80 -18.30 6.85 -14.20 18.65 -24.05 35.15 -29.30 8.25 -2.60 12.70 -3.25 23.15 -3.25 8.15 0 10.25 0.15 14.65 1.15 22.25 5 44.15 19.70 62.15 41.70 2.40 2.95 4.70 5.80 5.05 6.35 0.70 1 0.75 1 5.45 0.05 7.80 -1.65 15.10 -1.05 21.80 1.65 9.05 3.65 16.60 12.15 19.60 22.05 0.60 1.85 1.05 3.95 1.05 4.55 0 0.65 0.20 1.30 0.45 1.45 0.20 0.15 3.20 0.85 6.60 1.55 5.90 1.25 16.65 3.90 22.35 5.55 1.50 0.45 2.75 0.70 2.85 0.60 0.10 -0.10 0 -1.75 -0.30 -3.65 -1.35 -9.10 1.65 -18.45 7.65 -24 5.40 -5 12.25 -7.40 21.15 -7.45 8.55 0 14.75 2.25 22.65 8.15 3.05 2.35 8.55 7.85 10.45 10.50 0.10 0.15 0.85 -0.15 1.60 -0.60 2.20 -1.30 4.25 -1.10 5.65 0.60 0.70 0.75 3.20 4.70 5.60 8.75 l4.35 7.30 3.90 0 c7.10 0 12.05 2.45 14.50 7.25 1.05 2.05 1.30 3.10 1.25 6.25 -0.05 3.55 -0.40 4.90 -2.95 11.10 -0.25 0.60 0.05 0.90 1.35 1.15 2.80 0.60 6.10 2.55 8.10 4.75 6.05 6.70 5.70 16.65 -1.15 31.75 l-1.80 4 0.55 4.50 c0.35 2.50 0.75 7.20 0.90 10.50 0.55 10.35 0.70 11.05 2.10 11.70 2.80 1.25 3.30 5.85 1.95 18.60 -1.15 11.20 -3.55 24.20 -6.55 35.60 l-1.30 4.90 5.45 5.60 c6.15 6.35 8.20 9.25 11.70 16.60 3.60 7.50 5.05 13.50 5.10 21.25 0.10 7.20 -0.65 10.70 -3.45 16.40 -3.70 7.60 -9.95 12.35 -17.10 12.95 -7 0.60 -12.55 -1.95 -20.10 -9.15 -2.20 -2.10 -4.10 -3.75 -4.20 -3.65 -0.05 0.10 -1.30 1.90 -2.70 4.05 -2.70 4 -8.60 11.60 -13.90 17.80 -2.35 2.75 -3.20 4.20 -3.45 5.75 -0.65 3.80 -4.20 14.05 -6.60 18.90 l-2.40 4.80 1.15 1.70 c2.70 3.95 -0.45 9.40 -10.20 17.75 -3.80 3.25 -5.10 4.65 -4.85 5.20 0.20 0.40 0.40 1.80 0.40 3.10 0 2.15 -0.20 2.60 -2.50 4.90 -1.40 1.40 -4.35 3.80 -6.60 5.40 -3.55 2.45 -4.15 3.05 -4.15 4.25 0 2.55 -1.45 4.60 -7.90 11.15 -10.35 10.50 -23 20 -34.60 25.95 l-5.50 2.80 0 1.95 c0 3.80 -2.85 5.70 -15.85 10.80 -3.40 1.30 -6.15 2.55 -6.15 2.80 0 0.75 6 3.30 10.25 4.40 10.45 2.70 18.85 2.50 36.75 -0.95 13.65 -2.65 19.40 -3.25 27.05 -2.90 l6.25 0.25 0 -2.40 c-0.05 -2.10 0.15 -2.65 1.65 -4.20 3.40 -3.50 9.65 -4.30 15.80 -1.95 3.95 1.45 5.05 1.55 10 0.65 4.70 -0.85 8.30 0.10 11.60 3.15 2.45 2.20 4.65 6.20 4.65 8.40 l0 1.30 8.40 0.30 c6.70 0.20 9.30 0.50 13.25 1.55 10 2.60 16.45 7.05 19.65 13.55 1.30 2.65 1.45 3.50 1.45 7.75 0 4.10 -0.20 5.15 -1.35 7.60 -4.65 9.95 -17.30 15.65 -38.60 17.45 -11.95 1 -24.05 -0.25 -40.05 -4.05 -4 -1 -6.10 -1.30 -6.30 -0.90 -0.20 0.30 -0.45 1.50 -0.65 2.70 -0.95 7.25 -8.50 12.30 -13.95 9.45 -1.30 -0.65 -1.55 -0.60 -3.70 0.75 -6.30 4 -16.10 2.45 -21.70 -3.50 l-2.35 -2.50 -4 0.60 c-3.15 0.45 -5.90 0.45 -12.20 0 -15.85 -1.20 -25.55 -0.65 -38.35 2.20 -7.45 1.65 -13.60 3.70 -26 8.65 -15.75 6.30 -23.35 8.35 -32.90 8.90 -3.10 0.15 -5.65 0.50 -5.65 0.75 0 1 -3.45 7.85 -4.45 8.85 -1.45 1.45 -3.80 1.40 -4.80 -0.15 -0.75 -1.10 -0.65 -1.40 1.50 -5.60 l2.25 -4.45 -4.10 -1.35 c-2.30 -0.75 -6.25 -2.35 -8.75 -3.45 l-4.65 -2.10 -3.60 3 c-5.95 4.85 -11.95 9.65 -12.80 10.10 -1.20 0.65 -0.20 1.60 3.55 3.45 7 3.45 12.40 3.85 15.55 1.05 2 -1.70 3.40 -1.85 4.85 -0.40 1.70 1.70 0.10 4.50 -3.80 6.60 -1.60 0.90 -2.85 1.10 -6.50 1.10 -5.80 0 -10.55 -1.50 -15.70 -4.95 l-3.80 -2.55 -7 3.50 c-10 5 -21.05 8.60 -32.25 10.50 -4.50 0.80 -23.70 1.45 -27.25 0.95z m70 -24.55 c0.90 -0.80 4.10 -3.40 7.15 -5.85 3.05 -2.45 5.45 -4.60 5.35 -4.80 -0.40 -0.65 -7.15 -1.65 -8.80 -1.30 -4.60 0.85 -7.30 4.70 -6.80 9.60 0.25 2.60 0.60 3.70 1.20 3.70 0.15 0 1 -0.60 1.90 -1.35z m-118.70 -1.45 c1.50 -0.95 3.25 -2.50 3.85 -3.40 3.05 -4.50 -0.75 -9.50 -5.35 -7 -2.65 1.45 -3.75 3.30 -3.75 6.35 -0.05 2.85 0.95 5.85 1.95 5.85 0.35 0 1.85 -0.80 3.30 -1.80z m155.70 -5.70 c0.60 -1 -1.60 -4.90 -3.30 -5.75 -1.85 -1 -5 -0.75 -7.55 0.55 l-1.55 0.80 3.10 1.50 c2.80 1.30 7.75 3.25 8.65 3.35 0.20 0.05 0.50 -0.15 0.65 -0.45z m143 -11.70 c0.90 -0.40 1.90 -1.15 2.20 -1.70 0.30 -0.55 1.10 -1.15 1.80 -1.30 1.35 -0.35 1.65 -1.65 0.75 -3.35 -0.55 -0.95 -0.55 -0.95 -2.65 0.10 -1.15 0.60 -3.25 1.95 -4.65 3 -2.90 2.20 -3.80 2.35 -5.25 0.90 -0.75 -0.75 -0.95 -1.40 -0.70 -2.45 l0.30 -1.45 -2.30 1.25 c-2.25 1.30 -2.30 1.35 -1.40 2.35 1.40 1.55 5.65 3.35 8.05 3.35 1.15 0 2.90 -0.30 3.85 -0.70z m14.70 -2.75 c1.30 -1.40 2.55 -4.45 2.55 -6.30 0 -0.80 -0.40 -0.85 -3.30 -0.60 -1.80 0.10 -3.35 0.35 -3.45 0.45 -0.20 0.20 0.95 5.80 1.50 7.30 0.35 1 1.25 0.70 2.70 -0.85z m-15.45 -8.70 c0.70 -0.30 1.35 -0.60 1.45 -0.70 0.25 -0.15 -1 -1.65 -1.40 -1.65 -0.15 0 -1.30 1.20 -2.55 2.60 l-2.25 2.65 1.75 -1.15 c0.95 -0.65 2.30 -1.40 3 -1.75z m-11.70 0.70 c1.05 -0.80 3.05 -2.60 4.45 -4 2.85 -2.95 2.65 -3.55 -1.35 -3.55 -4.55 0 -6.40 1.90 -6.40 6.50 0 2.95 0.50 3.15 3.30 1.05z m28.20 -4.90 c0.15 -0.15 -0.70 -1.10 -1.85 -2.20 -1.80 -1.70 -2.45 -1.95 -4.40 -1.95 -2.45 0 -5.25 1.15 -5.25 2.10 0 0.30 0.50 1.10 1.10 1.75 1.10 1.15 1.30 1.20 5.65 0.85 2.45 -0.15 4.60 -0.45 4.75 -0.55z m-196.50 -19.65 c11.95 -0.60 22 -1.60 35.75 -3.55 28.80 -4.05 50.90 -9.85 71.50 -18.70 4.95 -2.10 12.60 -5.30 17 -7 8.65 -3.40 14.60 -6.10 15.05 -6.85 0.20 -0.25 0.05 -0.75 -0.25 -1.05 -0.75 -0.75 -0.70 -3.10 0.10 -3.75 0.30 -0.25 3.50 -2 7.05 -3.80 12.50 -6.50 25.85 -16.30 35.20 -25.95 5.05 -5.20 5.60 -6 4.60 -6.60 -0.70 -0.40 -0.60 -2.35 0.15 -3.25 0.35 -0.45 3.55 -3 7.15 -5.65 3.60 -2.65 6.85 -5.20 7.20 -5.60 0.50 -0.60 0.35 -1.05 -0.95 -2.50 -1.20 -1.40 -1.45 -2 -1.10 -2.85 0.20 -0.65 2.75 -3 5.60 -5.20 5.50 -4.35 11.45 -10.15 11.45 -11.30 0 -0.35 -0.50 -0.90 -1.10 -1.15 -0.65 -0.30 -1.35 -1.10 -1.60 -1.90 -0.45 -1.20 -0.05 -2.25 3.30 -8.75 3.15 -6.10 5.90 -12.15 5.90 -13.05 0 -0.10 -0.40 0.15 -0.85 0.55 -2 1.70 -3.15 2 -4.45 1.15 -2.30 -1.50 -1.65 -2.75 4.95 -9.65 16.15 -16.85 29.50 -36 38.85 -55.75 3.70 -7.90 3.80 -8.20 2.50 -8.60 -0.55 -0.20 -1.35 -0.85 -1.80 -1.50 -0.85 -1.30 -0.80 -1.70 2.30 -12 l1.50 -5 -1.15 -0.85 c-2 -1.55 -10.50 -5.75 -14.35 -7.15 -4.65 -1.65 -9.25 -2.60 -14.35 -3.05 l-3.95 -0.35 -1.40 6.95 c-1.90 9.60 -6.15 22.10 -10.35 30.75 -3.90 7.95 -7.90 14.75 -9.70 16.45 -1.50 1.45 -3.70 1.20 -4.65 -0.50 -0.70 -1.20 -0.55 -1.50 2 -5.50 1.55 -2.35 3.85 -6.35 5.20 -8.95 2.20 -4.40 2.35 -4.75 1.50 -5.25 -15.65 -9.25 -27 -23.30 -31.35 -38.75 l-1.30 -4.80 -7.20 -0.05 c-7.95 -0.10 -11.45 -0.40 -16.70 -1.50 -15.90 -3.25 -31.35 -13.05 -42.35 -26.90 -4 -4.95 -8.55 -11.55 -11.10 -15.95 -0.75 -1.35 -1.50 -2.35 -1.60 -2.20 -0.10 0.10 -0.65 1.90 -1.15 4 -0.55 2.10 -1.95 6.10 -3.10 8.95 -1.10 2.85 -2.40 6.05 -2.85 7.20 l-0.75 2 2.95 3.75 c1.65 2.05 5.15 6.40 7.80 9.70 2.65 3.30 8.30 10.10 12.50 15.05 15.30 18.05 20 24 23.05 28.95 2.20 3.65 4.65 9.65 5.40 13.30 1.15 5.25 -0.40 11.50 -3.75 15.30 l-1.95 2.25 1.70 3.55 c1.10 2.30 2.95 4.90 5.35 7.45 1.95 2.15 3.60 4.10 3.60 4.40 0 1.55 -1.10 2.50 -2.85 2.50 -1.65 0 -2.25 -0.40 -5.15 -3.35 -1.80 -1.90 -4.05 -4.85 -4.95 -6.65 -0.95 -1.80 -2.45 -4.35 -3.40 -5.70 -0.90 -1.30 -1.65 -2.65 -1.65 -2.90 0 -0.30 1.15 -1.55 2.50 -2.80 4.95 -4.45 6.05 -7.85 4.50 -13.80 -2.25 -8.90 -7.90 -16.90 -29.75 -42.30 -4.15 -4.80 -10.10 -12.10 -13.25 -16.25 -7.10 -9.25 -13.25 -15.60 -16.95 -17.40 -3.55 -1.75 -7.15 -1.85 -8.25 -0.25 -1.15 1.60 -1 6.50 0.25 9.90 2.20 6.05 2.20 5.90 1.20 7 -1.45 1.60 -3.60 1.30 -4.75 -0.60 -1.90 -3.10 -3.10 -7.85 -3.10 -12.50 l0 -4.40 -2.50 0 c-2.80 0 -4.85 0.90 -6.35 2.80 -2.05 2.65 -1.20 11.25 1.70 16.80 1.55 3 1.40 4.70 -0.55 5.20 -2.95 0.75 -5.30 -2.35 -7 -9.05 -0.75 -3 -0.95 -3.30 -1.50 -2.50 -0.35 0.45 -0.90 1.95 -1.15 3.35 -2.35 10.80 3.20 26.85 14.35 41.65 2.65 3.50 5.15 6.80 5.55 7.35 0.55 0.75 0.55 1.20 0.05 2.40 -0.50 1.15 -1.10 1.60 -2.70 2 -5.55 1.40 -10.60 3.30 -14.15 5.40 -5.25 3.05 -11.60 9.55 -14.85 15.10 -1.35 2.35 -2.90 4.75 -3.45 5.40 -1.15 1.20 -3.75 1.50 -4.75 0.50 -0.40 -0.40 -0.75 -0.40 -1.05 -0.15 -0.80 0.85 -1.45 6.85 -1.20 10.60 l0.30 3.60 -3 2.95 c-1.60 1.60 -3.55 4 -4.30 5.30 l-1.35 2.40 1.85 1.70 c1.65 1.60 1.75 1.85 1.45 3.80 -1.85 11.85 0 22.60 5 29.20 2.80 3.65 2.90 4.05 1.45 5.50 -0.90 0.90 -1.60 1.15 -2.40 0.95 -2.85 -0.80 -7.50 -8.20 -9.10 -14.45 -0.90 -3.50 -1.80 -12.20 -1.50 -14.15 0.80 -5.20 0.75 -6.15 -0.25 -6.15 -1.40 0 -2.70 -2.30 -2.65 -4.65 0.15 -3 3.15 -8.85 6.25 -12.05 l2.70 -2.80 -0.20 -2.95 c-0.55 -7.50 3.25 -18.05 6.45 -18.05 0.55 0 1.55 0.60 2.30 1.30 0.70 0.70 1.35 1.20 1.40 1.10 0.10 -0.10 1.35 -1.95 2.75 -4.15 5.95 -9.10 14.25 -15.55 24.45 -18.95 l3.15 -1.10 -1.90 -2.25 c-1.10 -1.25 -3.15 -4.10 -4.65 -6.35 -1.50 -2.30 -2.85 -4.05 -3.05 -4 -0.15 0.10 -2.10 2.20 -4.30 4.65 -4.25 4.75 -11.55 11.40 -18.05 16.35 -11.30 8.70 -35.45 23.40 -38.45 23.40 -1.35 0 -2.70 -1.25 -2.70 -2.50 0 -1.35 1.35 -2.45 6.35 -5.25 13.90 -7.75 29.60 -18.45 39.65 -27.05 6.25 -5.35 15.10 -15.25 14.30 -16.05 -0.15 -0.20 -1.50 0.15 -2.95 0.80 -1.40 0.60 -4.70 1.90 -7.30 2.85 -4.05 1.50 -5.20 2.20 -8.25 5.05 -4.50 4.20 -18.30 15.25 -25.80 20.70 -3.15 2.25 -11.30 7.80 -18.10 12.30 l-12.35 8.15 -0.80 2.90 c-2.60 9.25 -7.25 16.20 -14.90 22.40 -6.20 5.05 -11.20 8.15 -23.60 14.70 -18.85 9.95 -19.60 10.45 -22.45 14.80 -3.55 5.45 -5.75 7.25 -11.90 9.65 -1.05 0.40 -1.90 1.60 -3.60 5.15 -2.05 4.25 -3.70 9.15 -3.25 9.60 0.10 0.10 2.90 -1.10 6.20 -2.75 13.85 -6.75 25.15 -7.70 34.85 -2.85 16.65 8.35 18.45 30.50 3.60 44.35 -3.95 3.70 -9.15 6.30 -14.80 7.40 -15.95 3 -31.25 -10 -35.20 -29.95 l-0.85 -4.30 -9 6.75 c-14.10 10.55 -27.35 19.15 -37.25 24.10 -8.90 4.50 -22.30 9.50 -29.85 11.20 l-3 0.70 4.75 3.50 c6.25 4.60 13.55 9.40 17.15 11.20 l2.90 1.50 1.50 -1.30 c0.85 -0.70 1.80 -1.25 2.15 -1.25 1.10 0 3.95 2.45 9.35 7.95 2.90 3 5.80 5.60 6.45 5.80 0.85 0.25 1.40 0.05 2.35 -0.95 1.95 -2.10 3.10 -1.70 8.35 2.90 2.60 2.30 5.60 4.55 6.65 5.05 1.80 0.85 1.85 0.85 2.75 -0.25 0.50 -0.60 0.90 -1.60 0.90 -2.20 0 -1.60 1.15 -2.90 2.55 -2.90 0.70 0 2.70 0.60 4.45 1.30 1.80 0.75 6.30 2.55 10 4.05 20.35 8 49.15 13.90 77.25 15.75 15.85 1.05 20.90 1.10 33.25 0.50z m238.70 -5.05 c1.40 -1.10 3.05 -3.85 2.60 -4.35 -0.35 -0.30 -9.80 2.80 -10.50 3.45 -0.65 0.60 2.55 1.90 4.75 1.95 1.10 0 2.35 -0.40 3.15 -1.05z m-20.55 -1.90 c0.40 -0.40 -6.30 -6.05 -7.20 -6.05 -0.20 0 -0.95 0.70 -1.65 1.55 -2.95 3.45 -0.75 5.70 5.15 5.20 1.80 -0.10 3.45 -0.45 3.70 -0.70z m10.75 -4.50 c3.25 -1.40 6.60 -2.50 11 -3.55 2.45 -0.65 2.60 -1.30 1 -4.50 -1.55 -3 -3.25 -4.10 -6.75 -4.40 l-2.85 -0.25 2.10 2.40 c2.35 2.65 2.65 4.30 1 5.45 -1.80 1.30 -2.70 0.95 -6.20 -2.30 l-3.30 -3.10 -4.15 2.20 c-2.30 1.25 -4.15 2.50 -4.15 2.75 0 0.65 7.45 6.65 8.30 6.70 0.40 0.05 2.20 -0.60 4 -1.40z m-14.60 -10.90 c2.30 -1.35 4.20 -2.55 4.20 -2.75 0 -0.25 -1.70 -0.40 -3.75 -0.40 -3.10 0 -3.95 0.20 -4.75 1 -1.25 1.25 -1.35 4.50 -0.10 4.50 0.10 0 2.10 -1.05 4.40 -2.35z m-423.80 -35.10 c-1.80 -1.60 -4.70 -4.65 -6.50 -6.75 -3.05 -3.60 -3.35 -3.80 -5.30 -3.80 -1.70 0 -2.60 -0.40 -4.55 -1.90 -3 -2.40 -11.20 -11 -16.15 -17.05 -2.05 -2.45 -3.90 -4.50 -4.05 -4.50 -0.70 -0.10 -1 5.40 -0.50 8.50 2.75 17.15 16.85 28.20 36.30 28.40 l4 0.05 -3.25 -2.95z m19.60 0.25 c20.75 -5.35 42.15 -17.20 70.15 -38.90 l5.95 -4.65 0.60 -4.25 c0.65 -4.30 2.10 -8.95 4.20 -12.95 0.60 -1.20 1 -2.20 0.90 -2.25 -0.10 -0.10 -1.60 -0.90 -3.35 -1.85 -2.10 -1.10 -4.70 -3.15 -7.35 -5.85 -4 -4.05 -4.15 -4.15 -5.30 -3.40 -3.70 2.45 -30.10 13.85 -41.40 17.95 -12.70 4.60 -34.55 10.25 -49.55 12.80 -6.90 1.20 -19.30 2.50 -24.30 2.60 -2 0.05 -3.65 0.20 -3.65 0.40 0.05 1.05 12.40 15.30 18.45 21.30 l3.05 2.95 0.80 -1.10 c0.60 -0.85 1.20 -1.10 2.35 -1 1.35 0.10 1.95 0.70 3.85 3.45 3.15 4.60 5.80 7.55 11.15 12.30 2.80 2.50 5.05 4.15 5.70 4.15 0.60 0 4.10 -0.75 7.75 -1.70z m117.20 -9.50 c9.30 -4.60 14.65 -13.55 14.05 -23.60 -0.30 -5.25 -2 -8.80 -5.95 -12.45 -8.95 -8.30 -23.75 -7.05 -40.15 3.30 l-3.40 2.10 0.35 3.50 c0.70 7.40 4.70 16.45 9.85 22.05 2.80 3.05 4.70 4.40 8.90 6.15 2.40 1 3.45 1.15 7.60 1.05 4.40 -0.15 5.15 -0.35 8.75 -2.10z m-154.30 -38.05 c30.80 -3.60 64.40 -13.90 94.45 -28.95 5.95 -3 6.60 -3.45 5.95 -4.15 -0.70 -0.65 -1.85 -0.65 -10.45 0.10 -17.10 1.40 -23.30 2.75 -45.45 9.75 -26.35 8.30 -41.90 11.05 -63.10 11.20 -5.45 0 -9.90 0.10 -9.90 0.20 0 0.50 2.05 3.95 4.95 8.30 l3.30 4.95 7 -0.35 c3.85 -0.15 9.80 -0.65 13.25 -1.05z m-29.20 -1.60 c-0.90 -1.35 -2.75 -4.35 -4.10 -6.75 -2.45 -4.35 -2.45 -4.40 -4.70 -4.65 -4.15 -0.55 -13.70 -3.10 -17.75 -4.75 -2.20 -0.85 -4.30 -1.70 -4.65 -1.85 -0.40 -0.20 0 1.05 0.90 2.85 4.35 8.60 14.30 14.75 27.45 17 4.80 0.80 4.75 0.80 2.85 -1.85z m31.70 -17.35 c13.60 -1.90 22.45 -4.05 40.25 -9.80 20.50 -6.60 30.30 -8.65 50.15 -10.25 l4.10 -0.35 -1.45 -2.60 c-4.10 -7.20 -10.50 -24.15 -13.55 -35.95 -3.20 -12.60 -3.75 -16.85 -3.75 -31.35 0 -8.70 0.20 -14.25 0.65 -16.25 0.60 -2.90 0.60 -3 -0.65 -4.25 -1.30 -1.25 -1.30 -1.25 -1.85 -0.25 -1 1.75 -6.50 7.25 -8.85 8.75 -2.50 1.70 -3.80 1.85 -5.15 0.65 -1.45 -1.30 -1.10 -2.95 0.95 -4.50 3.65 -2.80 6.80 -5.95 9 -9 2.35 -3.35 4.30 -5.15 5.50 -5.15 0.40 0 1.40 0.70 2.20 1.55 1.50 1.60 1.55 1.60 2.20 -1.30 0.60 -2.90 5.25 -11.55 8.50 -15.85 1.80 -2.35 4.95 -5.75 7 -7.45 l3.75 -3.15 0 -4.30 c0 -15.50 5.05 -29.10 14.80 -39.95 3.50 -3.90 9.20 -8.30 13.75 -10.55 4.15 -2.10 4.20 -2.20 4.70 -6.75 1.45 -12.75 6.70 -27.35 14.15 -39.50 1.70 -2.70 3.10 -5.25 3.10 -5.60 0 -0.35 -1.45 -2.05 -3.25 -3.80 -3.45 -3.40 -4.05 -5.05 -2.50 -7.15 0.40 -0.50 0.75 -1.10 0.75 -1.30 0 -0.60 -2.85 -1.90 -7.40 -3.45 -2.35 -0.80 -4.55 -1.70 -4.90 -2 -1 -0.85 -0.85 -3.50 0.30 -4.95 1.20 -1.55 1.25 -2.35 0.15 -2.70 -8.45 -2.35 -9.90 -3 -15.05 -6.50 -2.95 -2 -8.20 -5.35 -11.70 -7.50 l-6.35 -3.85 -3.75 -7.35 c-12.65 -24.75 -22.45 -37.60 -28.55 -37.60 -4.35 0 -12.35 9.50 -18.95 22.50 -3.05 5.95 -5.40 11.50 -4.90 11.55 0.20 0 1.85 0 3.65 -0.05 3.75 -0.05 4.95 0.65 4.95 2.95 0 2.35 -1.05 2.75 -8.20 3.10 -3.80 0.20 -9.55 0.95 -13.75 1.75 l-7.15 1.40 -1.25 -1.45 -1.25 -1.45 -1.60 0.95 c-3.80 2.25 -8.95 4.75 -9.75 4.75 -0.50 0 -1.20 -0.35 -1.55 -0.75 -0.35 -0.40 -0.85 -0.75 -1.10 -0.75 -0.85 0 -14.15 6.85 -19.95 10.30 -10.75 6.35 -15.30 9.65 -22.05 16.05 -2.55 2.45 -3.65 3.15 -4.80 3.15 -0.85 0 -5.55 -1.80 -10.45 -4.05 -14.70 -6.70 -26.15 -9.95 -32.60 -9.30 -5.10 0.55 -6.80 2.85 -7.60 10.30 -1.25 11.75 2.05 30.90 8.45 48.80 2.80 7.90 2.85 8.05 2.75 13.05 -0.15 6.40 -1.40 16.80 -2.65 21.70 -0.55 2.05 -2 6.75 -3.25 10.45 -2.60 7.45 -2.60 8.55 -0.25 7.30 2.35 -1.20 4.60 -0.80 5.45 0.95 0.75 1.55 0.25 4.05 -2.75 13.80 -0.75 2.50 -1.35 5.60 -1.40 7.50 -0.05 3.15 0 3.25 1.30 3.50 1.85 0.35 3.30 1.65 3.70 3.35 0.20 0.75 0.10 3.75 -0.20 6.65 -0.80 7.30 -0.75 9.20 0.30 10.50 0.80 1 1.05 1.05 2.05 0.50 0.65 -0.30 1.70 -0.45 2.35 -0.30 2.05 0.55 2.35 1.90 2.10 9.75 -0.30 8.60 0.15 16.90 1.60 28.40 1.15 8.90 4.30 28.10 4.70 28.50 0.10 0.15 0.90 -0.25 1.70 -0.85 3.10 -2.30 4.20 -0.10 6.35 12.25 0.70 4.15 1.75 9.20 2.30 11.25 1.10 4.05 3.35 9.50 3.95 9.50 0.15 0 0.85 -0.55 1.50 -1.25 1.40 -1.45 3.50 -1.65 4.60 -0.35 0.40 0.45 1.95 3.90 3.40 7.60 3.25 8.30 7.25 16.90 8.40 18.15 0.80 0.90 1.50 0.95 14.85 0.70 8.55 -0.15 16.25 -0.60 19.75 -1.05z m-41.65 -0.15 c-0.70 -1.25 -3.80 -8.15 -5.65 -12.65 l-2.20 -5.25 -2.50 0.15 c-2.95 0.20 -4.75 -0.85 -6.25 -3.60 -0.55 -1 -1.20 -1.75 -1.50 -1.65 -0.25 0.10 -1.20 1.60 -2.10 3.40 -1.85 3.70 -3.15 10.05 -2.35 11.35 1.20 1.90 8.60 5 17.45 7.35 5.05 1.35 5.40 1.40 5.10 0.90z m163.70 -3.45 c0.90 -1 3.75 -3.45 6.25 -5.50 3.90 -3.10 4.70 -4.05 5.40 -6 0.45 -1.30 0.70 -2.45 0.55 -2.60 -0.10 -0.10 -1.95 0.05 -4.10 0.35 -2.15 0.30 -6.10 0.75 -8.75 1 -4.40 0.45 -5.30 0.70 -9.40 2.85 -2.45 1.30 -4.50 2.50 -4.50 2.70 0 0.80 6.65 6.70 8.80 7.75 3.25 1.60 3.70 1.55 5.75 -0.55z m-189 -18.75 c0.90 -1.65 2.50 -4 3.55 -5.20 l1.90 -2.15 -0.75 -2.95 c-0.40 -1.60 -1.25 -6.05 -1.90 -9.90 l-1.20 -7 -1.50 0 c-1.90 -0.05 -3.90 -1.35 -4.80 -3.15 -0.40 -0.75 -1 -2.85 -1.40 -4.75 l-0.65 -3.35 -1.45 1.35 c-2 1.95 -4.70 7.75 -5.60 11.90 -1.15 5.50 -0.95 12.75 0.45 18.45 1.50 5.90 3.70 10.10 7.25 13.95 l2.70 2.90 0.90 -3.55 c0.50 -1.95 1.65 -4.90 2.50 -6.55z m209.50 3.75 c0.85 -0.40 1.45 -0.85 1.35 -0.95 -0.35 -0.40 -3.90 0.80 -3.90 1.25 0 0.70 0.85 0.60 2.55 -0.30z m-22.30 -5.50 c3.05 -1.55 7.85 -4.05 10.70 -5.60 l5.20 -2.75 -0.35 -4.80 c-0.90 -12.35 -4.60 -23.65 -13.75 -41.95 -6.35 -12.70 -13.05 -27.35 -15.80 -34.60 -1.35 -3.45 -2.45 -6.30 -2.55 -6.40 -0.05 -0.10 -1.50 0.55 -3.25 1.40 -2.60 1.35 -3.55 1.55 -5.40 1.35 -2.10 -0.25 -2.60 -0.05 -6 2.20 -2.05 1.35 -4.05 2.45 -4.45 2.45 -2.05 0 -3.35 9.25 -3.30 23.50 0.05 14.45 1.40 22.20 6.80 39 3 9.20 4.90 13.95 9.25 22.95 l3.20 6.70 7.10 -0.30 7.10 -0.35 5.50 -2.80z m14.10 0.50 c1.20 -0.35 2 -1.70 0.95 -1.70 -0.80 0 -3.30 1.95 -2.55 2 0.30 0 1 -0.15 1.60 -0.30z m12.15 -2.45 c8 -2 13.85 -4.20 21.60 -8.05 7.05 -3.55 8.95 -4.70 11.95 -7.55 4.70 -4.45 10.40 -12.65 9.85 -14.15 -0.10 -0.25 -2.40 0.95 -5.15 2.65 -5.90 3.60 -32.20 18.55 -38.75 22 l-4.50 2.40 0 2 c0 1.70 0.15 2 0.90 1.75 0.45 -0.15 2.30 -0.60 4.10 -1.05z m7.85 -16.20 c6.85 -3.80 16.85 -9.60 22.20 -12.80 5.35 -3.25 10.90 -6.55 12.35 -7.35 1.40 -0.80 2.85 -1.95 3.15 -2.55 0.90 -1.60 0.25 -12.80 -0.95 -17.40 -0.55 -2.10 -1.75 -5.65 -2.65 -7.90 -1.65 -4.20 -5.30 -10.60 -6.20 -10.85 -0.25 -0.10 -1.90 1.85 -3.60 4.25 -3 4.30 -3.10 4.45 -2.55 6.25 0.85 2.75 -0.10 5.10 -3.90 9.35 -2.05 2.30 -4 5.25 -5.25 7.80 -2.35 4.90 -3.45 5.50 -6.60 3.70 l-1.95 -1.10 -4.60 4.45 c-2.55 2.50 -5.35 4.85 -6.25 5.35 -1.50 0.75 -1.75 0.75 -2.85 0 -2.25 -1.45 -1.60 -2.75 4.35 -8.75 6.45 -6.45 8.05 -7.40 10.80 -6.25 1 0.40 1.85 0.70 1.85 0.65 1.50 -3.40 2.80 -5.45 5.25 -8.40 1.70 -2 3.05 -3.85 3.05 -4.10 0 -0.25 -0.45 -1.05 -0.95 -1.75 -1.30 -1.55 -0.95 -2.50 2.75 -7.45 5.70 -7.75 11.85 -18.65 17.70 -31.45 5 -10.85 8.95 -24.25 9.70 -33 0.60 -6.40 -0.85 -12.90 -3 -13.60 -1.10 -0.35 -4.05 2.25 -6.10 5.35 -2.40 3.70 -3.50 4.45 -5.35 3.60 -1 -0.45 -1.25 -0.95 -1.25 -2.30 0 -2.30 3.50 -7.45 6.60 -9.65 2.65 -1.90 2.75 -2.20 1.65 -4.80 -1.20 -2.95 -3.80 -4.55 -7.70 -4.75 -3.20 -0.20 -3.40 -0.10 -6.15 1.85 -1.80 1.35 -3.65 3.30 -5.20 5.60 -2.50 3.80 -3.05 4.20 -4.95 3.75 -2.95 -0.75 -1.55 -5.60 3.15 -10.85 l2.20 -2.45 -1.75 0 c-2.45 0 -7.15 1.55 -9.85 3.25 -3.05 1.90 -9.55 8.30 -12.50 12.25 -1.35 1.80 -4.10 6.10 -6.15 9.50 -10.95 18.45 -18.50 27.85 -29.80 37.25 -2.20 1.85 -4.05 3.50 -4.05 3.70 0 0.70 2.35 7.25 4.85 13.55 1.40 3.45 6.25 13.90 10.80 23.25 4.55 9.35 9.30 19.60 10.55 22.75 2.95 7.50 5.15 16.15 5.90 23.30 0.35 3.15 0.65 5.70 0.70 5.70 0.05 0 5.70 -3.15 12.55 -6.95z m347.55 0.45 c4.70 -2.10 8.95 -8.20 10.40 -14.90 2.85 -13.50 -2.40 -28.90 -14 -41 l-4 -4.15 -1.35 4.65 -1.40 4.65 1.35 1.40 c1.80 1.90 1.70 4.90 -0.30 10.10 -1.85 4.65 -8.40 16.95 -12.40 23.35 l-2.80 4.40 2.45 2.80 c7.60 8.95 14.95 11.80 22.05 8.70z m-291.80 -34.10 c13.85 -9.30 36.30 -26.15 35.70 -26.80 -0.10 -0.05 -1.85 0.15 -3.85 0.45 -5.10 0.80 -21.90 0.30 -27.45 -0.80 -7.95 -1.55 -16.50 -4.25 -23.60 -7.45 l-2.90 -1.30 -0.70 1.15 c-2.05 3.10 -2.05 3.55 0 6.15 2.90 3.80 7.55 13.85 8.95 19.50 1.45 5.55 2.40 13.60 1.95 15.55 -0.30 1.10 -0.20 1.25 0.45 1 0.45 -0.15 5.60 -3.50 11.45 -7.45z m231.95 -13.25 c0.65 -1.70 -0.25 -8.55 -1.45 -10.90 -1.15 -2.30 -2.10 -6.25 -2.10 -8.90 0 -1.80 -0.55 -3.45 -2.30 -7 -1.25 -2.50 -2.90 -5.55 -3.60 -6.70 l-1.30 -2.05 -1.95 1 c-2.50 1.25 -7.05 1.75 -8.10 0.90 -1 -0.85 -0.95 -3.15 0.15 -4.10 0.45 -0.45 1.80 -0.95 2.95 -1.15 1.50 -0.25 2.65 -0.85 3.90 -2.15 0.95 -1 1.75 -1.95 1.75 -2.15 0 -0.20 -2.10 0.35 -4.60 1.15 -2.55 0.80 -6.65 1.95 -9.15 2.45 -2.45 0.55 -4.60 1.10 -4.70 1.25 -0.55 0.55 2.20 8.35 4.70 13.45 3.25 6.65 6.25 10.65 12.10 16.30 3.95 3.80 11.80 9.90 12.80 9.95 0.20 0 0.60 -0.60 0.90 -1.35z m6 -20 c0.75 -3.55 1.05 -6 0.75 -6.10 -0.25 -0.10 -1.35 0.75 -2.40 1.85 -1.40 1.55 -1.90 2.50 -1.90 3.75 0 1.85 1.40 6.35 1.95 6.35 0.20 0 0.95 -2.65 1.60 -5.85z m-212.85 -7.65 c-0.05 -7.15 -0.30 -10.75 -1.15 -15.75 -2.80 -16 -9.15 -32.50 -17.25 -44.65 -9.50 -14.20 -20.05 -24.70 -34.50 -34.15 -11.35 -7.45 -19.90 -11.25 -33 -14.50 -4.80 -1.20 -6.05 -1.40 -6.40 -0.85 -1.10 1.70 -4.30 13.65 -3.80 14.20 0.15 0.10 2.40 0.75 5.05 1.40 9.15 2.35 16.75 5.80 25.10 11.50 8.25 5.65 8.95 5.95 13.85 6.05 3.70 0.05 4.70 0.25 7.20 1.55 3.30 1.65 5.65 4.35 7 8.05 0.45 1.30 1.85 3.40 3 4.65 2.75 2.90 4.05 5.90 4.50 10.25 0.25 3 0.65 4.15 2.95 8 9.40 16.05 14.20 31.10 15.20 47.50 0.35 6.45 0.05 6.20 7.55 6.10 l4.75 -0.10 -0.05 -9.25z m15.75 7 l2.05 -0.55 0 -8.85 c0 -29.65 -9.05 -57.40 -26.35 -80.75 -4.80 -6.45 -18.40 -20.10 -24.75 -24.75 -13.30 -9.80 -25.90 -16.15 -39.85 -20.05 -7.75 -2.20 -8.70 -2.30 -9.65 -1.20 -1.25 1.35 -6.90 11.75 -6.90 12.65 0 0.55 1.15 1 4.35 1.65 18.60 3.85 40.20 16.25 56.20 32.30 13.50 13.60 22.80 28.80 29.10 47.55 4.05 12 5.85 23.10 5.85 35.55 0 4.25 0.10 7.90 0.25 8.05 0.30 0.30 6.50 -0.75 9.70 -1.60z m-33.65 -1.60 c-0.15 -1.45 -0.40 -4.35 -0.55 -6.40 -0.30 -3.50 -1.55 -10.45 -1.95 -10.90 -0.10 -0.10 -2.45 1.80 -5.25 4.20 -4.80 4.10 -9.55 9.55 -9.55 10.90 0 0.90 12.65 4.65 15.90 4.75 l1.65 0.05 -0.25 -2.60z m275.65 -6.25 c3.05 -12.70 5.20 -25.50 5.80 -34.15 0.15 -2.35 0.40 -5.30 0.55 -6.60 0.20 -2.30 0.20 -2.40 -1.05 -2.40 -0.70 0 -1.65 -0.40 -2.15 -0.90 -0.85 -0.85 -1 -2.15 -1.25 -11.15 -0.45 -14.35 -0.30 -14 -4.15 -8.30 -8.15 12 -21.85 26 -31.85 32.60 -2.75 1.80 -2.85 2 -2.55 3.45 0.45 2.10 0.45 19.15 0 21.20 l-0.40 1.60 3 0 c8.25 0 21.05 4 29.10 9.15 1.50 1 2.90 1.80 3.10 1.80 0.15 0.05 1 -2.80 1.85 -6.30z m-226.75 2.70 l3.80 -1.80 -0.75 -1.80 c-1.65 -3.85 -2.85 -10.50 -2.90 -15.50 0 -6.25 0.75 -9.95 2.70 -13.05 l1.55 -2.40 -1.10 -5.50 c-6.30 -32.25 -18.65 -56.45 -38.85 -76.35 -12.95 -12.75 -27.10 -21.85 -43.90 -28.20 -6.35 -2.45 -15.75 -5.25 -17.45 -5.25 -1.25 0 -13.05 12.15 -12.25 12.65 0.10 0.05 2.35 0.65 4.95 1.30 20.95 5.15 45.50 20.35 61.40 38.05 17.80 19.85 28.45 42.10 33.40 69.95 1.10 6 1.35 9.35 1.55 19.15 l0.25 11.80 1.90 -0.65 c1.05 -0.35 3.60 -1.45 5.70 -2.40z m-70.25 -3.10 c1.80 -3.20 7.70 -9.20 13.20 -13.50 2.10 -1.65 3.85 -3.30 3.85 -3.70 0 -0.75 -1.90 -6.10 -3.35 -9.40 l-0.90 -2.15 -4.05 3.05 c-3.80 2.80 -4.20 3.25 -5.20 6.10 -1.65 4.60 -4.85 12.10 -7.05 16.45 l-1.95 3.90 1.90 0.95 c1 0.55 1.90 1 1.95 1.05 0 0 0.75 -1.25 1.60 -2.75z m247.30 -0.30 c0.20 -0.30 1.85 -1.25 3.70 -2.10 l3.30 -1.65 0.45 -6.30 c0.25 -3.50 0.25 -8.25 0.05 -10.55 l-0.35 -4.20 -3.80 2.30 c-2.10 1.25 -5.15 3 -6.70 3.80 -2.75 1.40 -2.95 1.65 -3.95 4.60 l-1 3.05 1.70 2.45 c0.95 1.30 2.55 3.90 3.55 5.80 1.85 3.30 2.45 3.85 3.05 2.80z m-355.70 -2.75 c1.40 -1.70 4.50 -2.80 6.85 -2.45 1.90 0.30 2.70 0.10 4.95 -1.10 3.10 -1.60 2.95 -0.50 1.35 -9.75 -0.50 -3 -1.05 -5.40 -1.25 -5.40 -0.55 0 -4.80 4.90 -7.20 8.25 -2.10 2.95 -6.25 10.15 -6.25 10.90 0 0.60 0.85 0.40 1.55 -0.45z m28.70 -17.30 c3.30 -3.35 7 -7.35 8.20 -8.75 2.05 -2.55 2.10 -2.65 0.90 -2.65 -2.95 0 -10.30 1.65 -13.80 3.10 -5.75 2.35 -6.05 2.65 -6.05 5.25 0 1.90 1.15 8.70 1.75 10.55 0.35 1.05 2.25 -0.55 9 -7.50z m287.70 5.95 c0.55 -0.10 0.70 -1.40 0.85 -5.85 0.15 -7 1.40 -12.10 4.35 -17.75 2.60 -5 7.80 -10.45 12 -12.45 2.45 -1.25 2.85 -1.60 2.55 -2.50 -0.65 -2.10 -11.10 -23.20 -14.40 -29.05 -6.10 -10.75 -10.45 -17.45 -13.25 -20.45 -2.95 -3.15 -6.70 -5.80 -8.10 -5.80 -0.45 0 -1.80 0.80 -2.95 1.75 -1.15 0.95 -2.40 1.75 -2.80 1.75 -0.35 0 -2.10 -0.75 -3.80 -1.70 -6 -3.30 -9.40 -3.40 -12.95 -0.45 -2.05 1.75 -2.95 3.70 -2.95 6.30 0 3.65 -0.75 5.05 -3.60 6.60 -3.25 1.80 -4.10 3.65 -4.05 9 0.10 9.75 5.15 22.85 15.85 40.70 4.70 7.85 5.15 9.50 3.05 10.85 -1.15 0.75 -1.35 0.75 -2.45 0.05 -0.65 -0.45 -3.75 -5.05 -6.80 -10.20 -5.95 -10 -6.85 -11.25 -7.70 -11.05 -0.30 0.10 -3.80 -1.50 -7.80 -3.45 -8.85 -4.45 -19.50 -7.70 -19.50 -6 0 1.10 5 10.70 7.50 14.35 5.80 8.60 13.60 17.35 19.55 21.90 10.15 7.75 22.95 12.60 35.45 13.50 4.10 0.30 9.60 0.25 11.95 -0.05z m13.10 -2.30 c3.15 -0.80 7.75 -2.25 10.20 -3.20 l4.50 -1.75 -0.10 -3.35 c-0.15 -4.65 -4 -19.80 -5.40 -21.15 -0.55 -0.60 -4.95 2.15 -7.60 4.75 -3.15 3.05 -6.30 9.15 -7.40 14.40 -0.80 3.85 -1 11.75 -0.30 11.75 0.25 0 3 -0.65 6.10 -1.45z m32.05 -13.95 c1 -0.80 0.90 -1.65 -0.70 -5.95 -1.20 -3.30 -5.25 -7.80 -8.35 -9.35 -2.10 -1.05 -7.45 -2.55 -7.85 -2.15 -0.10 0.05 0.55 2.25 1.35 4.85 1.70 5.25 3.20 11.75 3.70 16.10 l0.35 2.90 5.35 -2.85 c2.90 -1.55 5.70 -3.15 6.15 -3.55z m-243.85 -2.20 l1.25 -1.15 -1.05 -1.75 -1.10 -1.75 -0.35 1.25 c-1.25 4.65 -1 5.35 1.25 3.40z m-98.95 0.15 c0.80 -0.80 7.85 -3.10 11.70 -3.85 2.05 -0.40 5.55 -0.70 7.75 -0.60 l4 0.10 3.45 -5.15 3.45 -5.10 -1.55 -5.85 c-2.20 -8.35 -3.10 -13.55 -3.45 -19.95 -0.15 -3.10 -0.50 -5.65 -0.75 -5.65 -1.05 0 -8.40 5.45 -11.45 8.45 -8.85 8.90 -14.40 21.90 -14.45 34.20 0 3.70 0.25 4.35 1.30 3.40z m356.70 -8.25 c7.50 -6.20 15.65 -15 21.70 -23.45 4.10 -5.75 7.80 -12.10 7.80 -13.35 0 -2.95 -4.75 -21.90 -6.95 -27.70 l-0.55 -1.40 -2.05 2.55 c-6.80 8.55 -24.55 20.30 -36.70 24.30 -2.45 0.80 -4.55 1.50 -4.60 1.50 0 0 1.15 2.40 2.60 5.35 3.45 7.05 6.75 17.05 9.25 28.20 1.10 5 2 9.25 2 9.40 0 0.55 2.70 -1.40 7.50 -5.40z m-187 2.70 c0 -1.10 3.20 -3.95 5.60 -5 2.80 -1.20 7.60 -1.50 10 -0.55 1.05 0.40 1.70 0.30 3.25 -0.50 3.90 -2.10 11.40 -0.40 16.45 3.65 3.40 2.75 3 2.80 4.70 -0.90 1.65 -3.70 4.80 -13.55 4.45 -13.95 -0.15 -0.10 -1.80 0.05 -3.70 0.35 -4.70 0.70 -19.55 0.70 -24.40 0 l-3.90 -0.60 -5.65 2.45 c-3.10 1.35 -6.55 2.75 -7.70 3.10 -1.25 0.35 -2.10 0.90 -2.10 1.35 0 1.65 2.20 11.10 2.60 11.10 0.20 0 0.40 -0.20 0.40 -0.50z m170.70 -11.85 c-1.20 -4.95 -6.25 -17.55 -9.65 -24.15 l-1.40 -2.75 -4.95 -0.30 c-4.10 -0.20 -5.45 -0.50 -7.85 -1.70 -3.30 -1.65 -5.50 -3.90 -7.05 -7.20 -0.85 -1.85 -1.05 -3.20 -1 -6.80 0.05 -2.45 0.30 -5.15 0.65 -5.90 0.55 -1.40 0.40 -1.55 -4.90 -6.75 -7 -6.80 -9.20 -11 -7.50 -14.25 0.35 -0.60 0.90 -1.25 1.25 -1.50 0.45 -0.25 0.20 -1.05 -1.10 -3.20 -0.95 -1.60 -2.40 -4.60 -3.30 -6.70 -1.50 -3.75 -1.55 -3.80 -3.85 -4.35 -1.25 -0.30 -7.90 -1.90 -14.80 -3.55 -17.10 -4.10 -16.25 -3.95 -16.25 -2.35 0 2.40 -1.55 9 -2.85 12.05 -2.65 6.30 -7.75 12.15 -13.40 15.50 l-3.15 1.85 0.25 7.55 c0.40 11.70 -1.35 22.50 -5.15 31.60 -0.70 1.65 -1.30 3.30 -1.35 3.65 -0.05 0.45 1.60 1.30 4.45 2.30 2.45 0.90 5.90 2.45 7.65 3.45 1.70 1.05 3.15 1.85 3.25 1.85 0.10 0 -0.60 -2.05 -1.55 -4.60 -3.10 -8.20 -3.80 -11.55 -3.85 -18.40 -0.05 -5.65 0.05 -6.45 1.15 -8.50 1.40 -2.70 2.85 -4.35 4.65 -5.30 1.05 -0.55 1.35 -1.15 1.65 -3.30 0.50 -3.65 1.80 -6.45 4.10 -8.75 3.10 -3.10 5.20 -3.90 10.40 -3.90 3.85 0 4.90 0.20 7.35 1.35 l2.80 1.30 2.45 -1.25 c9.55 -4.90 20.45 7.45 38.50 43.60 1.95 3.85 4.35 8.90 5.40 11.25 1.05 2.35 2.15 4.40 2.45 4.60 0.25 0.20 1.10 0.20 1.80 0.10 2.80 -0.60 12.65 2.50 13.75 4.30 0.65 1.05 1.25 0.45 0.95 -0.85z m-300.15 -12.15 c2.10 -2.65 5.10 -5.95 6.65 -7.30 3.10 -2.65 8.70 -6 10.95 -6.50 0.75 -0.15 1.35 -0.45 1.35 -0.70 0 -0.60 -4.65 -3.60 -8.90 -5.70 -4.25 -2.15 -12.80 -5.10 -16.15 -5.55 -2.15 -0.30 -2.35 -0.25 -2.60 0.85 -0.45 1.65 -0.40 14 0.10 18.15 0.25 1.95 0.95 5.95 1.55 9 l1.15 5.45 1.05 -1.45 c0.60 -0.75 2.75 -3.60 4.85 -6.25z m136.75 2.60 c11.85 -5.25 28.15 -17 36.75 -26.50 l2.80 -3.10 -0.45 -2.90 c-0.55 -3.40 -2.80 -12.50 -3.40 -13.55 -0.30 -0.55 -0.50 -0.45 -1 0.50 -1.20 2.30 -7.25 9.70 -11.50 14.15 -8.15 8.50 -18.60 16.10 -30.85 22.40 -3.80 1.95 -7 3.65 -7.10 3.75 -0.20 0.15 0.25 1.75 2.70 9.50 0.20 0.65 4 -0.70 12.05 -4.25z m32.75 -1.15 c2.85 -0.25 5.45 -0.75 5.75 -1.10 0.70 -0.75 1.70 -9.55 1.70 -15.20 l0 -4.30 -4.35 4.20 c-4.50 4.30 -10.80 9.25 -17.75 13.90 -2.15 1.45 -3.90 2.70 -3.90 2.85 0 0.40 13.45 0.20 18.55 -0.35z m-39.60 -14.55 c11.90 -6.75 24.20 -16.70 31.20 -25.30 3.80 -4.65 8.35 -11.55 8.35 -12.70 0 -1.85 -7.95 -16.40 -9 -16.40 -0.20 0 -0.90 1.30 -1.55 2.90 -6.60 16.70 -19.50 31.75 -37.35 43.60 -2.85 1.90 -5.40 3.50 -5.65 3.60 -0.25 0.10 0.45 2.20 1.65 4.70 l2.10 4.60 3.70 -1.70 c2.05 -0.95 5 -2.40 6.55 -3.30z m58.20 2 c4 -9.45 5.40 -16.80 5.40 -27.70 0 -9.75 0.15 -9.45 -4 -9.50 -2.20 -0.05 -4.20 -0.45 -5.70 -1.10 -4.95 -2.20 -9.60 -8.90 -10.20 -14.85 -0.60 -5.70 2.80 -13.05 7.50 -16.25 1 -0.70 1.85 -1.55 1.85 -1.90 0 -1.70 -9.95 -20 -13.30 -24.45 l-1.25 -1.65 -2.35 1.20 c-3.90 1.95 -8.40 5.60 -10.85 8.65 -2.55 3.20 -4.75 7.50 -4.75 9.20 0 0.65 1.40 2.55 3.65 4.90 8.40 8.85 15.55 18.95 19.30 27.40 6.45 14.50 9.55 28.60 9.55 43.70 l0 5.45 1.90 0 c1.90 0 2 -0.05 3.25 -3.10z m97.35 -9.70 c0 -1 -10.15 -12.70 -11 -12.70 -0.70 0 -1 3.15 -0.50 5.20 0.50 2.20 1.70 4.05 3.60 5.45 1.85 1.35 7.90 2.95 7.90 2.05z m11.05 -1.90 c7.90 -2.60 17.25 -7.60 24.70 -13.30 5.70 -4.35 14.75 -13.50 14.75 -14.90 0 -2.40 -7.70 -18.20 -14.90 -30.60 -2.60 -4.55 -4.85 -8.35 -4.90 -8.45 -0.10 -0.10 -0.95 0.20 -1.95 0.65 -2.95 1.40 -4.05 0.75 -8.90 -5.15 -7.55 -9.20 -16.70 -14.05 -26.55 -14.05 -14.70 0.05 -23.30 8.15 -23.30 21.95 0 8.25 3.75 18.55 9.60 26.45 1.35 1.80 1.50 2.30 1.10 3.50 -0.30 0.90 -1 1.50 -2.10 1.85 -0.85 0.25 -1.60 0.65 -1.60 0.90 0 1 4.75 6 9.15 9.70 2.55 2.10 5.70 4.85 7.05 6.10 2.80 2.65 9.35 10.70 11.55 14.15 0.85 1.35 1.75 2.40 2.05 2.40 0.30 0 2.25 -0.55 4.25 -1.20z m-178.85 -2.55 c6.30 -3.95 9.80 -6.75 15.75 -12.50 8.10 -7.85 13.20 -14.60 17.50 -23.05 2.70 -5.35 5.15 -12.10 4.80 -13.25 -0.40 -1.15 -13.10 -13.45 -13.95 -13.45 -0.40 0 -1.05 1.30 -1.55 3.15 -4.65 16.65 -16.60 37.15 -29.80 51.10 l-2.35 2.50 2.30 4.10 c1.30 2.25 2.45 4.15 2.65 4.15 0.15 0 2.25 -1.25 4.65 -2.75z m234.20 -1.85 c2.70 -7.75 2.20 -15.40 -1.25 -18.50 -1.25 -1.15 -4.35 -2.40 -5.90 -2.40 -1.10 0 -1.20 0.15 -0.80 0.95 0.75 1.40 5.40 17.95 5.80 20.70 0.20 1.30 0.50 2.35 0.70 2.35 0.20 0 0.85 -1.40 1.45 -3.10z m-243.15 -12.75 c10.65 -12.05 19.60 -27.50 24.95 -43.05 3.40 -9.80 3.15 -10.45 -2.45 -7.50 -6.10 3.20 -12.95 8.70 -19.40 15.75 -5.05 5.45 -10.80 13.75 -14.70 21.20 l-2.50 4.75 1.75 2 c0.95 1.05 3.15 3.90 4.95 6.35 1.80 2.40 3.45 4.35 3.60 4.35 0.20 0 1.90 -1.75 3.80 -3.85z m-10.70 -26.30 c7.95 -11.95 18.70 -22.60 28.10 -27.85 1.55 -0.85 2.85 -1.80 2.85 -2 0 -0.35 -8 -4.50 -8.65 -4.50 -0.15 0 -0.40 0.85 -0.60 1.90 -0.20 1 -1 3.20 -1.75 4.90 -3.25 6.75 -8.75 10.70 -15.50 11.10 -2.75 0.15 -4.30 0 -5.70 -0.60 -1.85 -0.80 -2 -0.75 -3 0.15 -2.20 2.05 -6.25 3.60 -10.10 3.90 -3.70 0.30 -3.75 0.35 -5.80 2.60 -2.95 3.35 -5.65 7.50 -5.10 8 0.25 0.20 2.80 2.30 5.70 4.65 2.90 2.35 6.80 5.75 8.75 7.55 l3.50 3.20 2.10 -4.20 c1.20 -2.30 3.50 -6.25 5.20 -8.80z m93.95 11.10 c0 -2.15 -5.65 -20.70 -6.45 -21.20 -0.65 -0.35 -3.95 3.10 -5.05 5.25 -1.20 2.35 -1.35 7.20 -0.30 9.70 1.70 4 6.10 7.25 9.95 7.30 1.55 0 1.85 -0.15 1.85 -1.05z m9.05 -2.75 c6.55 -4.80 11 -13 11.55 -21.20 0.15 -2.10 0.05 -2.25 -1.35 -2.55 -4.20 -0.95 -15.35 -0.10 -19.35 1.45 l-1.30 0.55 2 5.40 c2.10 5.75 4.90 15.50 4.90 17.15 0 1.40 0.80 1.25 3.55 -0.80z m140.95 -3.55 c0.55 -1.50 1 -3.90 1 -5.50 0 -2.55 -0.15 -2.95 -1.75 -4.45 -1 -0.90 -2.60 -1.90 -3.65 -2.20 -1.80 -0.50 -5.10 -0.70 -5.10 -0.30 0 0.10 1.30 3.10 2.95 6.60 1.60 3.55 3.25 7.30 3.60 8.35 0.60 1.70 0.75 1.80 1.30 1.05 0.35 -0.50 1.10 -2.10 1.65 -3.55z m-273.10 -12.65 c0.60 -1.10 2.10 -3.20 3.30 -4.70 l2.20 -2.70 -1.85 -1.80 c-1.70 -1.70 -2 -1.80 -4.10 -1.50 -2.60 0.35 -7.80 -0.80 -10.35 -2.35 -1.40 -0.80 -1.85 -0.85 -2.50 -0.35 -1.15 0.95 -4.60 5.40 -4.60 5.95 0 0.25 1.95 1.45 4.40 2.65 2.40 1.25 6.05 3.25 8.10 4.50 2.05 1.20 3.85 2.25 4 2.25 0.15 0 0.75 -0.85 1.40 -1.95z m-22.30 -11.10 c0.40 -0.90 1.85 -2.85 3.15 -4.30 2.05 -2.30 2.35 -2.85 1.85 -3.50 -0.60 -0.85 -2.65 -5.05 -3.25 -6.70 -0.30 -0.80 -0.70 -0.70 -4.15 0.85 -6 2.75 -15.70 8.50 -15.70 9.35 0 0.20 0.95 0.60 2.15 0.90 3.65 0.95 9.50 2.90 11.85 3.95 3 1.30 3.20 1.30 4.10 -0.55z m40.75 -0.85 c1.30 -0.60 2.60 -1.75 3.45 -3.05 1.20 -1.75 1.40 -2.75 1.60 -6.40 0.10 -2.40 0.45 -4.65 0.70 -4.95 0.90 -1.15 3.30 -0.75 4.20 0.60 0.65 1 0.80 2.20 0.60 6 l-0.20 4.80 1.30 0.25 c0.70 0.15 1.55 0.40 1.95 0.50 0.40 0.15 1.90 -0.15 3.40 -0.55 3.45 -1 6.65 -3.90 8.50 -7.70 1.25 -2.55 1.40 -3.30 1.40 -8.30 0 -5.30 -0.05 -5.60 -1.70 -8.65 -2.15 -3.95 -5.35 -6.85 -10.40 -9.50 -6.50 -3.40 -11 -4.35 -20.40 -4.35 -7.45 0 -8.25 0.10 -11.95 1.40 -7.45 2.65 -11.85 6.05 -14.40 11.25 -2.20 4.45 -2.55 10.30 -0.90 14.70 1.90 5.15 7.20 9.35 11.75 9.40 l2 0 0 -5.20 c0 -5.85 0.65 -7.30 3.30 -7.30 2.10 0 2.90 1.50 2.60 5 -0.45 4.80 0.15 7.10 2.40 9.70 2.95 3.30 6.80 4.15 10.80 2.35z m106.65 -0.60 c2.90 -0.75 5.35 -0.95 10.75 -0.95 3.85 0.05 7.15 0.05 7.35 0 0.65 0 -1.25 -5.85 -3 -9.25 -3.70 -7 -11.10 -12.75 -18.45 -14.30 -3.20 -0.65 -13.95 -0.40 -15.30 0.35 -0.70 0.40 -0.50 0.95 1.60 4.20 3.65 5.80 7.35 12.50 9.60 17.25 1.60 3.55 2.15 4.30 2.85 4 0.45 -0.20 2.55 -0.75 4.60 -1.30z m-47.10 -9.60 c2.65 -5.90 7.70 -11.10 14.60 -15.15 1.80 -1.05 3.30 -1.95 3.40 -2 0.50 -0.30 -7.50 -9.85 -12.90 -15.40 -20.95 -21.45 -44 -32.55 -65.75 -31.65 -22.55 0.95 -40.50 10.55 -49.75 26.65 -4.10 7.20 -6.45 16.80 -5.80 24.15 0.30 3.70 1.40 8.85 2.05 9.45 0.15 0.20 1.70 -0.40 3.40 -1.30 1.70 -0.90 4.90 -2.35 7.10 -3.30 l4 -1.65 0.35 -2.75 c1.05 -8.50 6.40 -15.50 15.10 -19.90 6.30 -3.15 10.75 -4.10 19.05 -4.15 10.75 0 18.80 2.15 26.50 7.15 6.80 4.45 9.85 8.60 11.60 15.75 l0.85 3.50 6.10 2.95 c5.95 2.85 12.60 6.90 16.20 9.85 0.95 0.75 1.85 1.40 2 1.45 0.15 0 1 -1.65 1.90 -3.65z"/>
  <path d="M776.30 601.75 c-0.55 -0.60 -0.70 -2.10 -0.65 -7.35 0 -5.10 -0.20 -7.30 -0.85 -9.45 -1.05 -3.30 -0.60 -4.75 1.55 -5.25 1.60 -0.45 3.30 1.30 4.15 4.20 0.75 2.70 1.20 10.45 0.80 13.80 -0.55 4.15 -2.95 6.10 -5 4.05z"/>
  <path d="M398.40 586.95 c-1.80 -1.05 -1.90 -2.15 -0.70 -6.50 2.40 -8.65 6.70 -17.55 12.60 -25.75 4.80 -6.75 6.45 -7.90 8.40 -5.90 1.35 1.35 0.90 2.60 -2.65 7.60 -7.15 10.05 -10.55 16.75 -12.85 25.35 -1.40 5.30 -2.55 6.55 -4.80 5.20z"/>
  <path d="M432.10 537.90 c-1.20 -1.20 -0.70 -3.20 1.40 -5.10 2.15 -1.95 3.50 -2.25 4.70 -1 1.35 1.30 0.95 2.95 -1.20 4.90 -2.05 1.85 -3.80 2.30 -4.90 1.20z"/>
  <path d="M369.20 460.25 c-0.75 -1.15 -0.75 -1.35 0.10 -2.65 1.75 -2.60 14.60 -14.05 19.40 -17.30 2.50 -1.70 4.65 -1.70 5.40 -0.10 0.30 0.70 0.40 1.55 0.25 1.95 -0.25 0.60 -9.75 9 -19.75 17.50 -2.60 2.15 -4.25 2.35 -5.40 0.60z"/>
  <path d="M353.85 439.60 c-1.10 -1.20 -1.05 -2.75 0.05 -3.80 2.80 -2.45 31.15 -9.85 33.90 -8.80 2.30 0.90 1.95 4.70 -0.45 5.25 -0.60 0.10 -4.80 1.05 -9.35 2.05 -4.55 0.95 -11.30 2.75 -15.05 4 -3.75 1.20 -7.10 2.20 -7.55 2.20 -0.40 0 -1.10 -0.40 -1.55 -0.90z"/>
  <path d="M433.35 427 c-2.65 -0.70 -4.85 -1.85 -6.70 -3.65 -1.80 -1.70 -2.10 -3.35 -0.85 -4.55 1.15 -1.15 2.50 -1 4.90 0.65 5.85 4.05 12.70 2.65 15.55 -3.15 1.10 -2.20 1.25 -3.20 1.15 -6.05 l-0.15 -3.40 -4.40 -1.80 c-5.70 -2.35 -7.85 -4.05 -7.85 -6.20 0 -0.90 0.40 -2.10 0.90 -2.65 0.95 -1.20 4.60 -3.20 5.80 -3.20 0.40 0 2.45 -0.90 4.55 -2 4.30 -2.25 6 -2.45 7.95 -0.95 1.65 1.30 1.65 3.05 0.10 9.20 -1.15 4.45 -1.15 4.50 -0.20 5.75 2.30 2.95 7.55 5.35 10.35 4.75 1.95 -0.40 4.35 -2 5.30 -3.45 0.45 -0.70 1.05 -2.75 1.25 -4.55 0.45 -3.80 1.10 -4.75 3 -4.75 2.35 0 3.20 1.50 2.80 5.05 -0.80 7.70 -5.55 12.75 -12.55 13.30 -3.55 0.30 -6.40 -0.40 -8.95 -2.10 -1.25 -0.85 -1.80 -1 -1.80 -0.55 0 0.40 -0.45 2.15 -1 3.90 -1.95 6.25 -7.10 10.25 -13.80 10.65 -1.90 0.10 -4.30 0 -5.35 -0.25z"/>
  <path d="M393.85 410.30 c-2.50 -0.90 -3.60 -1.95 -4.90 -4.65 -2.55 -5.25 0.65 -10.95 6.40 -11.50 3.15 -0.35 5.60 0.70 7.45 3.10 1.90 2.55 2.30 7.65 0.75 10.10 -1.80 2.85 -6.20 4.20 -9.70 2.95z"/>
  <path d="M505.30 388.85 c-0.90 -1.30 -0.60 -2.90 0.65 -3.70 1.50 -0.95 19.50 -4.15 23.25 -4.15 2.65 0 3.65 2.40 1.95 4.40 -0.75 0.85 -2.80 1.35 -11.70 2.80 -12.80 2.15 -13.20 2.15 -14.15 0.65z"/>
  <path d="M499.85 378.60 c-1.95 -2.15 -0.75 -3.70 9.15 -11.60 6.60 -5.25 12.30 -9 13.70 -9 2.75 0 3.20 3.30 0.70 5.20 -0.90 0.70 -4.25 3.30 -7.40 5.75 -14.65 11.55 -14.55 11.45 -16.15 9.65z"/>
  <path d="M475.75 374.80 c-0.85 -0.35 -2.15 -1.40 -2.90 -2.25 -5.55 -6.65 1.40 -16.15 9.25 -12.65 3.15 1.35 4.55 3.55 4.80 7.35 0.20 3.50 -0.85 5.60 -3.50 7.25 -1.90 1.15 -5.40 1.30 -7.65 0.30z"/>
  <path d="M749.85 454.60 c-1.15 -1.25 -1.05 -3 0.20 -6.35 0.80 -2.15 1.50 -3.10 3 -4 2.45 -1.55 3.60 -1.55 4.45 -0.05 0.80 1.60 0.40 3.10 -1.75 6.30 -0.95 1.45 -1.75 2.80 -1.75 3 0 0.75 -1.55 2 -2.45 2 -0.50 0 -1.25 -0.40 -1.70 -0.90z"/>
  <path d="M779.90 433.15 c-3.40 -2.15 -4.35 -7.70 -2.35 -13.85 2.50 -7.60 7.35 -9.85 15.55 -7.30 5.80 1.80 8.90 4.80 8.90 8.70 0 4.05 -3.60 7.25 -8.20 7.30 -1.65 0 -2.30 0.35 -4.45 2.55 -1.35 1.40 -3.05 2.75 -3.70 3 -1.85 0.70 -4.25 0.50 -5.75 -0.40z"/>
  <path d="M766.65 420.65 c-0.60 -0.10 -1.80 -1 -2.65 -1.95 -3.85 -4.45 0.20 -11.10 5.30 -8.60 1.90 0.90 3.70 3.70 3.70 5.70 0 3 -3.20 5.40 -6.35 4.85z"/>
  <path d="M773.95 405.05 c-1.75 -1.75 -1.95 -2.20 -1.95 -4.55 0 -2.20 0.20 -2.80 1.45 -4.05 2.05 -2 4.40 -2 6.75 0.05 3.05 2.70 3.55 6.85 1.20 9.35 -0.80 0.85 -1.60 1.15 -3.30 1.15 -1.90 0 -2.50 -0.25 -4.15 -1.95z"/>
  <path d="M791.05 405.95 c-2.55 -2.40 -2.55 -6 0 -8.15 1.75 -1.50 2.90 -1.60 4.95 -0.55 1.90 1 2.50 2.15 2.50 4.90 0 3.20 -1.40 4.85 -4.20 4.85 -1.45 0 -2.45 -0.35 -3.25 -1.05z"/>
  <path d="M324.05 730.70 c-4.90 -1.30 -7.80 -3.90 -8.40 -7.40 -0.35 -2.20 0.40 -4.30 2.65 -7.60 1 -1.45 1.70 -3 1.60 -3.50 -0.05 -0.55 -0.95 -1.35 -1.90 -1.85 -2.70 -1.40 -8.40 -0.90 -15 1.40 -7.65 2.60 -10.90 3.35 -14.20 3.35 -2.20 -0.05 -3.55 0.25 -5.50 1.25 -6.80 3.45 -14.10 4.95 -22.20 4.50 -20.75 -1.10 -38.50 -16.65 -42.40 -37.10 -1.45 -7.95 -0.15 -19.25 3.10 -26.60 2.75 -6.25 8.65 -13.70 13.95 -17.65 5.90 -4.35 13.05 -7.40 19.90 -8.50 4.80 -0.80 14.85 -0.40 19.10 0.75 14.05 3.85 26.05 15.20 30.70 29.05 2.05 6.15 2.75 10.95 2.40 17.20 -0.55 10.40 -4.70 20.45 -11.50 27.90 -1.05 1.20 -1.85 2.25 -1.75 2.35 0.10 0.15 3.35 -0.80 7.15 -2.10 5.80 -1.90 7.70 -2.30 11 -2.30 5.20 -0.10 7.85 0.75 10.25 3.15 3.20 3.20 3.30 6.95 0.25 11.55 -2.05 3 -2.15 3.90 -0.60 5.30 2.25 2.15 7.25 2.70 12.60 1.40 2.60 -0.60 3.15 -0.60 4.15 0.05 1.35 0.90 1.45 3.20 0.15 4.40 -1.90 1.75 -10.65 2.30 -15.50 1z m-51.40 -16.50 c0.80 -0.45 0.45 -0.80 -2.25 -2.45 -1.75 -1.10 -5.15 -3.90 -7.60 -6.25 -14.90 -14.30 -23.60 -33.30 -25.05 -54.70 l-0.35 -4.90 -1.95 1.90 -1.95 1.90 0 6.55 c0 21.80 9.90 42.30 27 55.90 l3.75 2.95 3.75 -0.20 c2.10 -0.15 4.15 -0.45 4.65 -0.70z m-23.65 -4.55 c-11.85 -12.90 -19.75 -30.05 -20.90 -45.45 -0.20 -2.45 -0.55 -4.45 -0.85 -4.45 -0.25 0 -1 1.70 -1.65 3.75 -1.65 5.05 -2.10 15.10 -0.90 20.25 1.90 8.20 4.90 13.45 11.25 19.75 3.45 3.45 5.80 5.30 8.40 6.65 3.40 1.75 6.85 3.25 7.80 3.30 0.25 0.05 -1.20 -1.70 -3.15 -3.80z m36.30 -1.35 l3.25 -2.20 -3.65 -1.80 c-10.75 -5.45 -21.60 -17.25 -28.40 -30.80 -4.65 -9.40 -7.05 -17.50 -8.05 -27.55 -0.35 -3.40 -0.65 -6.25 -0.75 -6.35 -0.20 -0.30 -4.10 1.85 -4.30 2.40 -0.40 1.25 0.55 15.15 1.35 18.75 2.65 12.80 9.20 26.20 17.40 35.75 3.20 3.80 9.05 8.85 14.10 12.20 4.10 2.75 4.40 2.75 9.05 -0.40z m10.20 -11.15 c4.35 -6.60 6.50 -13.70 6.50 -21.20 0 -5.70 -0.25 -5.95 -2.65 -2.35 -2.95 4.40 -10.85 12.45 -15.95 16.30 -2.45 1.80 -4.40 3.30 -4.40 3.35 0 0.05 1.40 1.10 3.15 2.30 3.90 2.75 9.95 5.95 10.50 5.60 0.25 -0.15 1.55 -1.95 2.85 -4z m-16.40 -11.25 c8.35 -6.30 14.80 -13.55 18.85 -21.25 l1.65 -3.10 -1.65 -3 c-0.95 -1.70 -1.85 -3.05 -2 -3.05 -0.20 0 -0.65 0.70 -1 1.60 -2.60 6.25 -11.65 16.80 -19.80 23 -2.55 1.95 -4.65 3.75 -4.65 4 0 0.60 3.60 4.90 4.10 4.90 0.15 0 2.20 -1.40 4.50 -3.10z m-8.15 -9.75 c7.75 -5.85 14.95 -14.10 19.45 -22.30 l2.10 -3.80 -1.45 -1.60 -1.50 -1.60 -3.90 2.40 c-5.05 3.15 -12.65 10.75 -18.35 18.35 l-4.35 5.90 1.65 2.75 c0.90 1.50 1.85 2.75 2.10 2.75 0.25 0 2.15 -1.30 4.25 -2.85z m0.10 -22.10 c3.45 -3.85 8 -7.75 11.30 -9.60 1.20 -0.65 2.15 -1.35 2.15 -1.55 0 -0.20 -1.05 -0.95 -2.40 -1.60 l-2.35 -1.20 -2.90 1.20 c-3.85 1.55 -8.40 4.85 -12.15 8.75 -3.25 3.45 -7.20 8.95 -7.20 10.10 0 0.55 1.10 4.15 2.25 7.25 0.15 0.35 1.95 -1.65 4.20 -4.60 2.15 -2.90 5.35 -6.85 7.10 -8.75z m-12.40 -5.95 c2.85 -3.35 7.90 -7.75 11 -9.55 2.80 -1.60 2.70 -1.70 -3.25 -2.30 -3.20 -0.35 -11.05 0.40 -12.30 1.20 -0.55 0.35 -0.15 8.45 0.70 12.90 0.35 1.95 0.20 2.05 3.85 -2.25z"/>
  <path d="M974.20 679.75 c-8.85 -4.45 -15.20 -13.70 -15.20 -22.05 l0 -2.65 -3.20 0.30 c-7.65 0.70 -12.60 -4.85 -10.90 -12.30 0.50 -2.10 0.45 -2.25 -1.20 -3.85 -2.55 -2.55 -3.90 -5.50 -3.85 -8.45 0.05 -4.45 2.45 -7.40 8.40 -10.25 l3.25 -1.55 -0.30 -2.10 c-0.70 -5.40 -3.15 -10.50 -6.95 -14.75 -2.45 -2.70 -2.85 -4.40 -1.35 -5.75 1.40 -1.25 2.40 -1.05 4.65 1 4.35 3.90 7.75 10.35 8.95 16.75 l0.60 3.35 3 0 c3.65 -0.05 6.95 1.50 9.10 4.20 1.50 1.85 1.55 2.15 1.65 7.35 0.05 5.30 0.05 5.40 1.80 7.65 5.30 6.95 2.35 15.35 -5.80 16.80 l-2.10 0.35 0.05 3.70 c0 3.05 0.25 4.25 1.35 6.45 2.40 4.75 7.40 9.50 12.15 11.55 2.75 1.20 3.60 3.55 1.90 5.20 -1.15 1.15 -2.15 1 -6 -0.95z m-14.65 -31.35 c0.80 -1.25 0.50 -2.20 -0.35 -1 -1.05 1.50 -2 1.40 -5.40 -0.65 -1.60 -0.95 -3.10 -1.60 -3.35 -1.45 -0.80 0.45 -0.50 2.15 0.60 3.25 0.95 0.95 1.45 1.05 4.60 0.80 2.05 -0.20 3.70 -0.60 3.90 -0.95z m8.75 -1.55 c1.50 -1.30 1.75 -3.40 0.70 -5.35 -0.75 -1.40 -1.15 -0.95 -2.25 2.50 -0.50 1.50 -1 3.05 -1.15 3.40 -0.35 1 1.25 0.70 2.70 -0.55z m-6.15 -6.60 c0.75 -2.20 1.35 -4.25 1.35 -4.55 0 -0.25 -1.25 -1.10 -2.75 -1.85 -3 -1.45 -3.55 -2.15 -3.05 -4.10 0.55 -2.10 2.35 -2.55 4.90 -1.30 1.25 0.55 2.35 1.05 2.55 1.05 0.20 0 0.35 -0.80 0.35 -1.80 0 -2.65 -2.20 -4.70 -5.10 -4.70 -1.20 0 -2.45 0.20 -2.80 0.45 -0.35 0.20 -0.95 1.85 -1.35 3.60 -0.55 2.70 -2.20 7.85 -3.50 11.05 -0.25 0.65 0.50 1.35 3.15 3.15 1.95 1.25 3.65 2.65 3.80 3.10 0.50 1.20 1 0.35 2.45 -4.10z m-11.80 -12.60 c0.35 -2.20 -0.70 -2.20 -3.05 0.05 -2.15 2 -2.35 3.95 -0.70 6.05 l1.05 1.35 1.20 -2.90 c0.70 -1.60 1.35 -3.65 1.50 -4.55z"/>
  <path d="M151.80 548.40 c-1.45 -2.30 0.45 -13.05 3.75 -21.40 1.70 -4.25 2.90 -6.35 5.25 -9.30 l1.65 -2.05 -1.25 -1.20 c-2.30 -2.15 -3.35 -4.85 -3.60 -9.25 -0.20 -3.60 -0.05 -4.45 1 -6.75 1.55 -3.40 3.20 -5.35 6.25 -7.45 2.15 -1.50 2.55 -2.05 3.55 -5.20 2.95 -9.10 9.40 -13.95 15.75 -11.85 1.65 0.55 4.90 3.60 6.15 5.80 0.65 1.20 1.50 0.70 4.15 -2.50 4.10 -4.90 6.55 -11.85 6.55 -18.50 0 -4 0.85 -5.75 2.80 -5.75 0.65 0 1.70 0.50 2.25 1.05 1 1 1.05 1.40 0.75 5.65 -0.60 8.50 -3.50 16.25 -7.90 21.05 l-2.40 2.65 1.75 2.60 c1.50 2.20 1.75 3 1.75 5.45 0 1.70 -0.40 3.65 -1 4.95 -1 2.25 -5 6.45 -7.50 7.95 -1.15 0.65 -1.60 1.40 -2 3.35 -1.15 5.70 -4.25 10.35 -8.25 12.45 -2.80 1.50 -8.55 1.45 -11.90 -0.05 l-2.40 -1.05 -1.55 2.10 c-4 5.45 -7.45 15.05 -8.20 23 -0.45 4.65 -0.80 5.35 -2.95 5.35 -1.25 0 -1.95 -0.30 -2.45 -1.10z m28.60 -34.50 c1.35 -1.30 3.25 -4.70 3 -5.45 -0.20 -0.55 -8.35 3.40 -10.40 5 -1.45 1.15 -1.15 1.60 1.35 2.05 2.40 0.40 4.45 -0.15 6.05 -1.60z m-11.70 -6.60 c-1.45 -1.20 -2.15 -3.80 -2.20 -7.80 l-0.05 -2.75 -1.25 1.50 c-0.65 0.85 -1.55 2.55 -1.95 3.90 -0.60 2 -0.60 2.70 0 4.65 0.40 1.30 1.20 2.85 1.80 3.50 l1.05 1.15 1.95 -1.55 1.90 -1.50 -1.25 -1.10z m12.35 -4.55 l3.30 -1.30 0.35 -2.60 c0.15 -1.45 0.30 -3.65 0.30 -4.90 0 -2 0.15 -2.40 1.15 -2.65 3.30 -0.85 4.35 0.10 4.35 3.90 0 1.25 0.20 2.30 0.45 2.30 0.60 0 2.95 -3.55 3.30 -5.10 0.40 -1.55 -0.35 -3.10 -2 -4.20 -1.10 -0.70 -1.35 -0.65 -3.70 0.55 -1.40 0.70 -5.55 2.10 -9.20 3.15 l-6.60 1.90 0 6.50 0 6.50 2.50 -1.35 c1.35 -0.75 4 -1.95 5.80 -2.70z m-0.10 -17.10 c4.45 -1.15 5.10 -2.35 2.75 -5.10 -2.45 -2.90 -5.45 -1.60 -8.15 3.50 l-1.65 3.05 2.15 -0.35 c1.20 -0.20 3.40 -0.70 4.90 -1.10z"/>
  <path d="M990.25 503.50 c-0.80 -0.85 -0.85 -1.65 -0.60 -6.10 0.45 -8.30 3.10 -15.10 8.35 -21.40 l2 -2.40 -1.45 -1.55 c-2 -2.10 -2.75 -4.55 -2.30 -7.45 0.60 -4.10 3.25 -7.70 7.75 -10.60 2.15 -1.35 2.50 -1.85 3 -4.15 0.95 -3.85 3.10 -8.40 4.95 -10.25 2.35 -2.30 4.30 -3.20 7.80 -3.45 2.75 -0.25 5.50 0.35 9.25 2.05 0.95 0.40 5.45 -6.10 7.25 -10.60 1.65 -4.05 3.15 -10.35 3.55 -14.95 0.40 -4.15 1.30 -5.50 3.45 -4.95 2.15 0.55 2.50 2.10 1.80 7.85 -1.10 8.90 -4.40 18 -8.75 23.95 l-1.60 2.20 1.85 2.65 c5.15 7.40 2.70 17.75 -5.40 22.45 -1.70 1.05 -2.25 1.70 -2.70 3.35 -2.65 9.90 -10.15 15.85 -16.60 13.20 -1.50 -0.65 -4.40 -3.50 -5.70 -5.65 -0.50 -0.90 -0.70 -0.80 -3.15 1.55 -4.65 4.55 -7.95 13.10 -8 21.05 0 3.80 -2.60 5.55 -4.75 3.20z m27.25 -25.85 c1.65 -1.15 2.30 -1.95 3.80 -4.85 l1.30 -2.45 -2.20 0.30 c-4.30 0.60 -7.40 1.45 -8.50 2.30 -1 0.85 -1.05 1.05 -0.40 2.50 1.20 2.90 3.65 3.80 6 2.20z m-9.60 -9.35 c1.55 -0.65 5.65 -1.90 9.10 -2.80 3.45 -0.90 6.40 -1.85 6.60 -2.20 0.55 -0.80 0.50 -12.30 -0.05 -12.30 -0.20 0 -3 1.25 -6.15 2.75 l-5.80 2.75 -0.35 4.75 c-0.30 3.90 -0.50 4.85 -1.25 5.25 -1.45 0.75 -2.75 0.60 -3.75 -0.50 -0.70 -0.80 -0.80 -1.45 -0.55 -3.55 l0.35 -2.60 -1.10 0.75 c-1.45 0.95 -2.95 3.75 -2.95 5.50 0 1.40 1.50 3.40 2.50 3.40 0.30 0 1.80 -0.55 3.40 -1.20z m23.95 -9.85 c1.80 -2.75 2.15 -6.55 0.75 -9.25 -1.65 -3.20 -2.15 -3.45 -4.25 -1.85 -1 0.80 -2.35 1.80 -2.95 2.25 l-1.15 0.85 1.55 -0.25 c1.20 -0.25 1.85 -0.05 2.65 0.75 0.90 0.90 1.05 1.65 1.05 5.30 0 2.45 0.20 4.25 0.50 4.25 0.25 0 1.10 -0.90 1.85 -2.05z m-15.65 -10.40 c3.80 -1.75 8.90 -5.15 8.45 -5.60 -0.25 -0.25 -1.45 -0.60 -2.70 -0.75 -3.20 -0.45 -5.55 0.65 -7.10 3.40 -1.40 2.40 -2.20 4.65 -1.55 4.30 0.25 -0.15 1.55 -0.75 2.90 -1.35z"/>
  <path d="M999.95 330.80 c-4.05 -3.10 -7.10 -3.45 -14.30 -1.75 -7.90 1.90 -14.50 0.70 -19.25 -3.45 l-1.80 -1.60 -2.90 1.30 c-9.50 4.20 -20.85 4.45 -30.95 0.65 -11.30 -4.20 -20.80 -14.85 -24.35 -27.30 -0.95 -3.25 -1.10 -5.05 -1.10 -10.65 0.05 -5.80 0.25 -7.40 1.40 -11.25 3.65 -12.20 12.40 -21.85 23.90 -26.25 10.05 -3.90 19.40 -3.95 29.30 -0.20 17.40 6.55 28.25 26.05 24.90 44.70 -1.55 8.75 -5.10 15.70 -11.20 22.10 -4.15 4.30 -4.10 4 -0.45 5.95 2.95 1.55 6 1.70 11 0.50 8.50 -2 15.15 -1.05 19.45 2.85 2.75 2.50 3.15 3.40 2.15 4.90 -1.10 1.70 -3.10 1.55 -5.80 -0.50z m-46.70 -8.90 c1.25 -0.35 2.25 -0.80 2.25 -1 0 -0.20 -0.20 -0.40 -0.40 -0.40 -1.05 0 -9.80 -6.30 -13.35 -9.60 -11.40 -10.60 -20.50 -27.70 -22.05 -41.50 -0.35 -3.30 -0.85 -3.45 -2.60 -0.85 -1 1.50 -1.10 2.05 -0.80 4.95 1.90 18.80 12 35.85 27.20 45.90 5 3.30 5.90 3.50 9.75 2.50z m-20.40 -3.45 c-9.40 -8.50 -17.40 -21.55 -20.15 -32.95 -0.90 -3.70 -0.90 -3.70 -1.35 -2 -0.70 2.70 -0.05 10.80 1.15 14.75 2.30 7.35 5.95 12.75 11.65 17.10 3.20 2.45 10 6.15 11.35 6.15 0.40 0 -0.80 -1.40 -2.65 -3.05z m33 -2.50 c1.45 -1.15 2.65 -2.25 2.65 -2.45 0 -0.20 -1.95 -1.35 -4.30 -2.55 -9.80 -4.80 -18.10 -12.35 -25.05 -22.70 -4.70 -7 -8.95 -17.65 -10.20 -25.50 -0.35 -2.20 -0.70 -4.05 -0.75 -4.15 -0.05 -0.10 -0.90 0.35 -1.90 0.95 -1.55 0.90 -1.80 1.30 -1.80 2.95 0 5.40 3.05 17 6.35 23.90 4.30 9.10 13.40 20.15 20.75 25.20 2.65 1.80 10.70 6.35 11.35 6.40 0.10 0 1.40 -0.95 2.90 -2.05z m8.35 -9.35 c3.15 -5.05 5.30 -12.70 5.30 -19.10 0 -2.40 -0.15 -4.45 -0.30 -4.65 -0.20 -0.15 -1.45 1.45 -2.80 3.55 -1.55 2.40 -4.85 6.15 -8.75 10 -4.30 4.20 -6.10 6.35 -5.75 6.70 0.70 0.70 9.75 5.35 10.45 5.40 0.35 0 1.20 -0.85 1.85 -1.90z m-13.65 -11.25 c6.35 -5.45 11.75 -12.25 15 -19 l1.15 -2.40 -1.20 -2.25 c-0.70 -1.25 -1.40 -2.35 -1.55 -2.50 -0.20 -0.10 -1.40 1.70 -2.65 3.95 -4.20 7.50 -12.70 17.55 -17.80 21 l-1.20 0.85 1.70 1.75 c0.95 0.95 1.95 1.75 2.25 1.75 0.35 0 2.25 -1.40 4.30 -3.15z m-5.90 -9.95 c5.75 -5.75 9.95 -11.40 13.35 -18 l1.75 -3.40 -1.60 -1.60 -1.60 -1.60 -3.65 2.85 c-4.30 3.25 -9.75 9.70 -13.60 16 -4.10 6.70 -4.15 6.85 -2.50 9.30 0.70 1.15 1.50 2.05 1.75 2.05 0.25 0 2.95 -2.55 6.10 -5.60z m-11.55 -6.30 c1.45 -3.05 6.45 -10.35 9.50 -13.80 1.60 -1.75 4.25 -4.20 5.90 -5.45 l3 -2.30 -2.30 -1 -2.30 -1.05 -3.55 2.35 c-4.75 3.05 -9.15 7.60 -12.25 12.65 l-2.55 4.10 1.60 3.20 c0.85 1.75 1.70 3.20 1.85 3.20 0.15 0 0.65 -0.85 1.10 -1.90z m-4.90 -14.80 c1.75 -2.55 5.45 -6.25 9.35 -9.45 l1.70 -1.40 -5.25 0.25 c-2.90 0.10 -6.45 0.60 -7.90 1.05 l-2.70 0.80 0.30 1.85 c0.85 4.75 2 9.60 2.30 9.60 0.20 0 1.15 -1.20 2.20 -2.70z"/>
  <path d="M221.95 327.95 c-1 -1 -1.05 -1.45 -0.80 -6.65 0.30 -6.70 1.40 -10.25 4.80 -15.45 1.35 -1.95 3.80 -4.90 5.45 -6.50 1.70 -1.60 3.10 -3 3.10 -3.10 0 -0.10 -0.55 -1.05 -1.25 -2.05 -1.80 -2.65 -2.90 -6.85 -2.50 -9.50 0.45 -3.05 3.55 -6.35 7.40 -7.90 2.70 -1.10 3.05 -1.40 4.15 -3.85 2.30 -4.95 4.70 -7.15 8.85 -8.15 3.45 -0.85 8.55 1.95 11.65 6.40 l1 1.40 2.70 -1.35 c5.20 -2.65 9 -7.15 11.25 -13.45 1.40 -3.80 2.95 -4.95 4.95 -3.65 1.65 1.10 1.65 2.50 -0.05 6.75 -2.60 6.65 -7.20 12.25 -12.05 14.65 -1.30 0.65 -2.45 1.25 -2.50 1.30 -0.10 0.05 0.40 1.10 1.15 2.35 1.90 3.25 2.15 6.90 0.65 9.80 -1.40 2.70 -3.60 4.30 -7.55 5.40 -2.85 0.75 -3 0.90 -4.30 3.60 -2.05 4.20 -3.50 5.90 -6.25 7.25 -2.90 1.45 -6.55 1.65 -8.85 0.45 -0.85 -0.40 -2.40 -1.60 -3.55 -2.60 l-2 -1.80 -3.20 3.35 c-5.20 5.45 -7.65 11.75 -7.70 19.45 0 2.35 -0.25 3.55 -0.80 4.10 -1.05 1.10 -2.50 1 -3.75 -0.25z m27.05 -27.70 c0.80 -0.40 1.90 -1.40 2.50 -2.25 l1.05 -1.50 -1.90 0.05 c-2.70 0.05 -6.80 1.10 -7 1.80 -0.25 0.75 1.80 2.65 2.95 2.65 0.55 0 1.60 -0.35 2.40 -0.75z m0.35 -9.25 l4.60 -0.65 0.30 -2.30 c0.40 -3.20 1.30 -4.75 2.75 -4.95 2.15 -0.25 3.25 1 3.10 3.60 -0.10 2.60 0.50 2.90 2.90 1.45 2.25 -1.30 2.70 -2.85 1.60 -5.30 -0.55 -1.15 -1.40 -2.50 -2 -3 -0.95 -0.85 -1.20 -0.85 -4.80 -0.15 -2.05 0.45 -4.95 0.85 -6.40 0.85 -5.35 0.15 -5.55 0.25 -6.25 4.20 -0.85 4.60 -2.40 5.80 -5.10 3.95 -1.05 -0.75 -1.15 -1.10 -0.90 -3.25 0.35 -2.65 0.30 -2.70 -1.20 -1.90 -2.30 1.20 -2.20 3.50 0.30 7.75 l1.20 2.05 2.65 -0.85 c1.45 -0.50 4.70 -1.20 7.25 -1.50z m5.80 -16.50 c2.85 0 3.10 -0.80 0.80 -2.70 -2.70 -2.30 -6.05 -1.50 -7.75 1.80 l-0.80 1.55 2.65 -0.30 c1.50 -0.20 3.75 -0.35 5.10 -0.35z"/>
  <path d="M826.15 205 c-2.50 -1 -2.75 -2.20 -2.55 -12.60 l0.15 -9.65 -1.55 -2.25 c-2.70 -3.90 -8.70 -13.95 -10 -16.65 -2.15 -4.60 -1.25 -7.35 2.40 -7.35 1.90 0 2.80 0.75 4.15 3.50 1.40 2.85 8.45 14.50 8.75 14.50 0.30 0 7.40 -12.30 9.15 -15.80 1.05 -2.05 2.15 -2.85 3.85 -2.85 2.10 0 3.50 1.40 3.50 3.65 0 1.35 -1.15 3.80 -4.70 10.05 -2.55 4.50 -5.35 9.30 -6.25 10.65 l-1.55 2.50 0 9.50 c0 8.65 -0.10 9.70 -1 11.20 -0.55 0.85 -1.20 1.60 -1.45 1.60 -0.25 0 -0.75 0.10 -1.15 0.20 -0.35 0.15 -1.15 0.05 -1.75 -0.20z"/>
  <path d="M363.25 204.10 c-4.20 -1.55 -4.15 -1.30 -4.80 -21.35 -0.60 -19.65 -0.45 -23.10 1.20 -24.65 2.25 -2.15 5.85 -3.30 10.15 -3.30 3.65 0 4.45 0.20 7.50 1.70 2.65 1.35 3.80 2.30 5.05 4.15 2.85 4.25 2.80 8.55 -0.15 12.95 -1.65 2.40 -1.70 2.70 -0.90 3.15 6.85 4 10.10 9.90 8.70 15.75 -1.20 5.05 -4.80 8.70 -10.95 11.05 -3.95 1.55 -12.25 1.85 -15.80 0.55z m14.50 -8.10 c6.10 -3.05 6.30 -9.20 0.40 -12.05 -2.50 -1.20 -7.95 -1.85 -10.40 -1.25 l-1.25 0.30 0 6.95 c0 3.80 0.15 7.05 0.40 7.25 0.20 0.20 2.15 0.30 4.35 0.20 3 -0.10 4.60 -0.45 6.50 -1.40z m-7 -22.45 c5.50 -2.55 7.40 -6.45 4.60 -9.45 -1.35 -1.45 -4.50 -2.25 -7.20 -1.85 l-2.15 0.30 0 6.25 c0 7.20 -0.10 7.10 4.75 4.75z"/>
  <path d="M444.60 202.25 c-1.15 -1.40 -1.40 -4.95 -2 -24.95 l-0.35 -11.50 -5.50 0.15 c-5.05 0.10 -5.60 0.05 -6.45 -0.90 -1.10 -1.20 -1.25 -3.65 -0.35 -4.75 1.05 -1.25 3.70 -1.70 13.55 -2.25 12.35 -0.75 18.05 -0.70 19.10 0.15 1.15 0.85 1.80 2.65 1.50 4.15 -0.35 1.90 -2.50 2.65 -7.45 2.65 -7.20 0 -6.85 -0.30 -6.50 5.95 0.20 2.90 0.50 10.95 0.65 17.85 0.35 12.40 0.35 12.55 -0.70 13.60 -1.55 1.55 -4.25 1.45 -5.50 -0.15z"/>
  <path d="M784 202.85 c-0.70 -0.35 -1.50 -1.20 -1.85 -1.85 -0.65 -1.50 -1.50 -14.10 -1.95 -29.60 -0.30 -10.25 -0.25 -11.45 0.50 -12.65 2.45 -3.70 11 -4.65 16.90 -1.90 4.15 1.95 6.50 4.10 8.10 7.25 2.40 4.80 1.45 10.85 -2.35 14.85 -2 2.05 -7.70 4.90 -10.80 5.30 -4.45 0.65 -4.25 0.30 -3.85 5.45 0.20 2.50 0.45 5.95 0.65 7.65 0.25 2.95 0.20 3.15 -1.25 4.60 -1.70 1.70 -2.25 1.85 -4.10 0.90z m10.15 -27 c5.40 -2.25 6.90 -7.05 3.25 -10.45 -1.80 -1.70 -6.30 -3.10 -8.40 -2.65 l-1.55 0.35 0.30 6.55 c0.20 3.65 0.40 6.90 0.50 7.20 0.25 0.80 2.60 0.40 5.90 -1z"/>
  <path d="M406.55 202.30 c-6.05 -2.20 -10.05 -10.50 -11.05 -23.05 -0.95 -12.25 -0.50 -17.50 1.65 -19 1.55 -1.05 2.70 -0.95 4.10 0.50 1.15 1.15 1.25 1.55 1.25 6.60 0 11.60 1.70 21.85 4.25 25.75 2.15 3.25 4.95 3.15 7 -0.25 3 -5.15 4.25 -14.30 3.30 -24.50 -0.55 -6.20 -0.55 -6.60 0.35 -7.80 1.35 -1.80 4.35 -1.85 5.65 -0.05 1.45 1.95 2.10 7.90 1.80 16 -0.45 13.90 -3.95 22.70 -10.10 25.55 -2.25 1.05 -5.70 1.15 -8.20 0.25z"/>
  <path d="M502 202.50 c-3.30 -0.70 -7.65 -3.05 -8.50 -4.60 -0.90 -1.70 -0.25 -3.85 1.55 -4.85 1.15 -0.65 1.60 -0.55 5.35 0.90 6.65 2.55 11.35 1.85 13.25 -2.05 1.95 -3.95 -0.35 -7.15 -8.45 -11.80 -7.40 -4.25 -9.90 -7.25 -9.90 -12.10 -0.05 -6.40 5.80 -11.75 13.55 -12.40 5.25 -0.40 9.15 1.70 9.15 4.95 0 2.35 -1.40 3.05 -5.45 2.65 -5.70 -0.55 -9.55 1.45 -9.55 4.85 0 1.70 1.80 3.25 6.65 5.80 5.10 2.65 10.40 8 11.60 11.60 2.25 6.85 -0.85 13.55 -7.50 16.35 -2.35 0.95 -8.60 1.35 -11.75 0.70z"/>
  <path d="M749.95 202.05 c-0.75 -0.55 -1.45 -1.65 -1.60 -2.40 -0.15 -0.75 -0.65 -10.25 -1.15 -21 l-0.90 -19.65 1.20 -1.25 c2.90 -3.10 12.15 -3.65 17.60 -1.05 5.55 2.65 9.45 8.95 8.70 13.95 -0.45 2.95 -2.55 7.05 -4.45 8.65 -2.40 2.05 -7.40 4.20 -11.15 4.85 l-3.30 0.55 0.30 2.05 c0.15 1.10 0.40 4.60 0.60 7.75 0.30 5.15 0.20 5.85 -0.60 6.85 -1.40 1.65 -3.65 1.95 -5.25 0.70z m11.75 -26.95 c3.05 -1.65 4.50 -3.55 4.50 -5.85 0 -3.75 -4.35 -6.90 -9.15 -6.65 l-2.75 0.15 0.15 5.50 c0.05 3.05 0.25 6.25 0.40 7.20 0.30 1.65 0.30 1.65 2.30 1.35 1.15 -0.20 3.15 -0.95 4.55 -1.70z"/>
  <path d="M539.50 201.60 c-1 -0.80 -1.20 -1.60 -1.60 -6.40 -0.20 -3 -0.60 -10.95 -0.80 -17.65 l-0.35 -12.25 -5.15 0.15 c-4.80 0.10 -5.30 0.05 -6.40 -1 -2 -1.90 -1.35 -4.85 1.35 -5.90 1.60 -0.60 26.05 -1.75 27.85 -1.30 2.05 0.50 3.10 1.70 3.10 3.55 0 2.70 -1.55 3.50 -7.60 3.90 -2.80 0.20 -5.20 0.45 -5.35 0.55 -0.10 0.15 0.05 6.90 0.40 15.10 0.75 20 0.75 19.95 -0.45 21.15 -1.25 1.25 -3.55 1.30 -5 0.10z"/>
  <path d="M567.30 201.35 c-1.45 -1.45 -1.55 -2.55 -2.30 -19.35 -0.65 -15 -0.65 -21.80 0.05 -23.05 1.30 -2.45 5.40 -2.15 6.35 0.45 0.30 0.75 0.85 10.15 1.30 20.85 0.75 18.70 0.75 19.55 -0.15 20.75 -1.25 1.75 -3.65 1.90 -5.25 0.35z"/>
  <path d="M672.25 201.35 c-1.95 -1.65 -2.10 -3.40 -2.55 -25.10 l-0.35 -18.05 1.65 -1.35 c1.75 -1.50 3 -1.45 4.75 0.20 0.90 0.85 1 1.80 1.25 9.35 l0.25 8.35 1.40 -0.05 c0.75 0 4.15 -0.05 7.60 -0.10 l6.25 -0.10 0 -7.55 c0 -9.20 0.45 -10.45 3.85 -10.45 1.85 0 3.65 1.60 3.65 3.20 0.10 3.90 1 28.75 1.30 34.10 0.35 6.25 0.30 6.60 -0.75 7.65 -1.35 1.35 -4.05 1.40 -5.25 0.10 -1.30 -1.40 -1.70 -3.90 -2.10 -12.45 l-0.35 -7.70 -2.55 0.30 c-1.40 0.15 -4.90 0.30 -7.75 0.30 l-5.20 0 0.35 8.90 c0.30 8.15 0.25 9.05 -0.55 10 -1.45 1.70 -3.30 1.85 -4.90 0.45z"/>
  <path d="M710.20 202 c-2.55 -1.05 -2.55 -4.55 0.05 -18.75 3.65 -19.75 7.60 -27.75 13.75 -27.75 4.90 0 8.10 4.70 11.45 16.85 1.65 5.95 5.55 24.65 5.55 26.70 0 1.75 -1.70 3.45 -3.50 3.45 -3.40 0 -4 -1 -5.50 -9.50 -0.60 -3.45 -1.20 -6.45 -1.35 -6.70 -0.30 -0.40 -12.45 0 -13.15 0.45 -0.20 0.15 -0.75 3.15 -1.25 6.75 -0.55 4.20 -1.20 6.90 -1.70 7.50 -0.95 1.15 -2.95 1.60 -4.35 1z m18.65 -23.70 c0.25 -0.20 -2.35 -9.20 -3.25 -11.35 -1.30 -3.05 -1.90 -3.30 -2.85 -1.45 -0.70 1.35 -3.75 12.05 -3.75 13.15 0 0.35 9.45 -0.05 9.85 -0.35z"/>
  <path d="M586.50 200.65 c-0.95 -0.50 -2 -1.45 -2.30 -2.15 -0.60 -1.30 -1.70 -22.95 -1.70 -33.30 0 -4.85 0.15 -5.75 1.05 -6.90 1.25 -1.55 3.30 -1.70 5 -0.35 1.15 0.95 1.20 1.25 1.60 11.40 0.20 5.70 0.55 13.55 0.75 17.40 l0.35 7 7.60 -0.20 c8.85 -0.20 10.15 0.20 10.15 3.10 0 3.60 -1.55 4.15 -13 4.60 -6.90 0.30 -7.95 0.20 -9.50 -0.60z"/>
  <path d="M618.65 200.95 c-3.45 -1 -3.60 -2.15 -4.40 -29.30 l-0.40 -12.05 1.30 -1.30 c1.95 -1.95 4.90 -1.50 5.80 0.90 0.25 0.60 0.70 8.15 1 16.80 0.35 8.65 0.70 16.30 0.85 16.90 l0.25 1.20 7.95 -0.35 7.90 -0.35 1.30 1.25 c1.60 1.60 1.65 2.90 0.15 4.60 -1.05 1.25 -1.55 1.40 -6.60 1.80 -7.05 0.50 -13.05 0.50 -15.10 -0.10z"/>
  <path d="M792.65 132.80 c-2.65 -1.20 -3.45 -4.30 -1.90 -7.30 1.70 -3.25 7.05 -2.85 8.50 0.65 1.80 4.35 -2.30 8.50 -6.60 6.65z"/>
  <path d="M753.45 131.05 c-1.55 -1.25 -1.70 -2.90 -2.50 -28.50 -0.65 -20.70 -0.65 -21.20 0.30 -23 0.70 -1.20 1.80 -2.20 3.50 -3.05 3.45 -1.75 10.55 -1.75 14.90 -0.05 3.60 1.40 8.45 5.80 10.25 9.25 1.95 3.70 1.90 8.90 -0.05 12.90 -3 6.10 -11.15 10.90 -18.60 10.90 l-1.75 0 0.30 9.90 c0.30 9.65 0.30 9.90 -0.75 11.25 -1.35 1.65 -3.85 1.85 -5.60 0.40z m12.95 -31.05 c9.30 -4.10 8.35 -13.60 -1.60 -16.20 -1.50 -0.40 -3.60 -0.60 -4.55 -0.45 l-1.75 0.30 0.30 8.30 c0.15 4.55 0.40 8.60 0.50 9 0.30 0.90 3.95 0.40 7.10 -0.95z"/>
  <path d="M418.45 129.75 c-0.75 -0.40 -1.50 -1.10 -1.70 -1.60 -0.50 -1.30 -1.20 -18.65 -1.25 -30.75 l0 -10.35 -6.40 0.30 c-5.35 0.25 -6.65 0.15 -8 -0.55 -2.70 -1.40 -2.70 -4.75 0.10 -6.55 1.45 -0.95 8.15 -1.50 24.40 -2.05 l11.35 -0.35 1.50 1.55 c1.60 1.60 1.90 3 1 4.70 -0.90 1.70 -3.50 2.40 -8.80 2.40 -2.70 0 -5.45 0.15 -6.10 0.35 l-1.20 0.30 0.30 8.05 c0.20 4.45 0.50 13.55 0.65 20.30 0.30 11.55 0.30 12.30 -0.60 13.35 -1.20 1.45 -3.55 1.85 -5.25 0.90z"/>
  <path d="M470.65 130 c-1.85 -0.75 -2.50 -2.45 -3.85 -10.45 -0.75 -4.25 -1.45 -7.85 -1.55 -8.05 -0.10 -0.15 -1.95 -0.10 -4.10 0.05 -2.15 0.20 -5.30 0.40 -7 0.40 -3.60 0.05 -3.15 -0.75 -4.65 8.55 -0.60 3.70 -1.40 7.25 -1.80 7.85 -0.80 1.30 -3.25 1.90 -4.65 1.15 -2.35 -1.25 -2.75 -2.65 -2.10 -7.65 1 -7.30 3.95 -21.90 5.60 -27.40 3.30 -11.15 6.95 -16.45 11.35 -16.45 6.95 0 11.45 9.75 16.30 35.50 0.95 5.10 1.85 10.05 1.95 11 0.25 1.70 -0.60 4.65 -1.45 5.10 -1.05 0.60 -3.05 0.80 -4.05 0.40z m-8.75 -26.80 c0.85 -0.15 1.60 -0.40 1.60 -0.60 0 -0.20 -0.70 -2.80 -1.50 -5.80 -1.60 -5.55 -3.15 -9.30 -3.95 -9.30 -0.80 0 -4.15 9.90 -4.85 14.25 l-0.30 2.05 3.70 -0.15 c2 -0.10 4.40 -0.30 5.30 -0.45z"/>
  <path d="M544.10 129.95 c-4.95 -0.95 -9.80 -4.95 -12.35 -10.15 -2.30 -4.75 -2.90 -8.40 -2.60 -15.55 0.40 -10.40 2.55 -16.35 7.95 -21.85 3.70 -3.80 6.50 -5.05 11.40 -5.10 4.30 -0.05 7.60 1.25 9.75 3.80 1.50 1.80 1.60 3.35 0.20 5.10 -1.25 1.60 -3.20 1.70 -5.95 0.30 -4.80 -2.45 -9.35 -0.40 -12.40 5.50 -4.55 9 -3.95 22.10 1.25 27.10 2.40 2.25 3.65 2.90 5.75 2.90 3.95 0 7.60 -4.20 8.25 -9.40 l0.30 -2.50 -4.45 0.25 c-4.05 0.25 -4.60 0.15 -5.80 -0.85 -1.60 -1.25 -1.90 -3.60 -0.65 -5.35 1.05 -1.50 5.50 -2.35 10.55 -2 6.70 0.40 8.70 2.25 8.70 8.20 0 3.90 -0.85 7.40 -2.50 10.65 -2.50 4.90 -5.25 7.30 -10 8.70 -2.90 0.85 -4.15 0.90 -7.40 0.25z"/>
  <path d="M648.70 128.95 c-2.30 -0.65 -3.70 -2.45 -4.20 -5.50 -0.25 -1.50 -0.85 -11.05 -1.30 -21.30 -1 -20.85 -0.90 -21.95 1.95 -23.65 1.15 -0.75 2.50 -1 4.85 -1 11.85 0 23 8.95 25.75 20.60 3.10 13.20 -4.10 25.40 -17.50 29.80 -3.75 1.20 -7.55 1.65 -9.55 1.05z m10.15 -10.25 c3.40 -1.65 7.30 -5.90 8.40 -9.25 1.25 -3.70 0.85 -9.30 -0.95 -13.05 -2.40 -5.05 -7.70 -9.10 -13.90 -10.60 l-1.40 -0.30 0 6.10 c0 3.40 0.35 11.10 0.75 17.15 0.40 6.05 0.75 11.20 0.75 11.45 0 0.65 3.55 -0.15 6.35 -1.50z"/>
  <path d="M485.25 128 c-1.50 -1.65 -1.70 -4.75 -1.70 -25.75 -0.05 -18 0.05 -20.15 0.80 -21.25 0.45 -0.70 1.10 -1.40 1.35 -1.60 1 -0.70 4.20 -0.40 5.20 0.50 2.15 1.90 11.40 15.35 17.60 25.60 1.75 2.90 3.40 5.50 3.65 5.75 0.30 0.30 0.35 -5.10 0.15 -14.75 -0.35 -16.50 -0.30 -17 2.30 -18.45 1.60 -0.95 3.40 -0.25 4.70 1.75 0.80 1.15 0.95 3.55 1.30 20.40 0.50 21.75 0.35 24.90 -1.35 26.60 -1.55 1.55 -4.15 1.60 -6.05 0.10 -1.35 -1.10 -6.45 -8.70 -15.20 -22.65 -2.30 -3.70 -4.75 -7.40 -5.40 -8.15 l-1.15 -1.35 0.35 15.75 c0.30 15.65 0.30 15.75 -0.80 17.15 -1.35 1.70 -4.35 1.90 -5.75 0.35z"/>
  <path d="M576.20 128.50 c-3.80 -1.20 -3.90 -1.70 -4.70 -27.25 -0.50 -15.25 -0.45 -18.85 0.10 -20.50 0.75 -2.20 2.35 -3.10 4.60 -2.55 2.40 0.60 2.65 2.15 3.30 20.05 0.30 9.10 0.70 17.85 0.85 19.45 l0.30 2.95 8.70 -0.35 8.70 -0.30 1.20 1.25 c1.60 1.55 1.70 4.30 0.20 5.65 -0.55 0.55 -1.85 1.10 -2.85 1.30 -3.40 0.55 -18.80 0.80 -20.40 0.30z"/>
  <path d="M613.45 128.20 c-6.25 -1.90 -7.65 -7.20 -7.70 -28.70 0 -13.15 0.05 -13.85 1.10 -16.15 0.90 -1.90 1.55 -2.60 3.25 -3.35 3.10 -1.35 7.75 -2 14.70 -2 5.10 0 6.25 0.15 7.20 0.90 1.25 1 1.60 4.05 0.55 5.30 -0.95 1.15 -3.80 1.80 -7.80 1.80 -3.35 0.05 -10.15 0.75 -10.45 1.10 -0.10 0.05 -0.30 2.90 -0.50 6.25 l-0.35 6.10 6.75 -0.10 c5.95 -0.10 6.80 0 7.75 0.85 1.15 1 1.40 3.25 0.55 4.80 -0.70 1.30 -3 1.90 -9.20 2.30 l-5.40 0.35 0.30 4.05 c0.45 5.30 1.10 7.65 2.30 8.30 1.30 0.70 5.50 0.60 10.25 -0.25 5.40 -1 6.90 -0.95 8.45 0.30 1.90 1.50 1.80 3.95 -0.20 5.60 -3.15 2.65 -16.25 4.20 -21.55 2.55z"/>
  <path d="M719.25 127.80 c-3.20 -1.50 -5.90 -4.50 -8.05 -9 -2.60 -5.50 -3.70 -11.80 -4.05 -23.55 -0.40 -14.25 0.40 -17.25 4.60 -17.25 1 0 1.95 0.40 2.60 1.10 1 1.10 1.05 1.90 1.30 13.15 0.20 9.45 0.45 12.95 1.25 16.50 3.85 17.65 13.45 15.10 16.05 -4.25 0.70 -5.05 0.90 -12.65 0.55 -20.15 l-0.25 -5.45 1.40 -1.20 c2.30 -1.95 4.70 -1.40 6.15 1.35 1.15 2.25 1.70 12.15 1.15 19.85 -1.40 20.20 -7.10 30.10 -17.30 30.10 -2 0 -3.70 -0.40 -5.40 -1.20z"/>
  <path d="M792.80 114.45 l-1.30 -1 0 -8.50 c0 -9.15 1.25 -28.55 2.05 -31.55 0.50 -2.05 1.65 -2.90 3.70 -2.90 3.95 0 4.35 1.50 3.45 14.10 -0.35 5.60 -0.90 14.30 -1.15 19.40 -0.45 9.10 -0.50 9.25 -1.80 10.35 -1.65 1.45 -3.20 1.45 -4.95 0.10z"/>
 </g>
</svg>