<svg xmlns="http://www.w3.org/2000/svg" viewBox="0 0 787.44 746.87"><g id="Layer_2" data-name="Layer 2"><g id="Layer_1-2" data-name="Layer 1"><path d="M286.06,653.75c-4.11,4.84-7.73,5.45-13.21,1.76-2.47-1.66-4.67-3.72-7.27-5.8-5.6,2.64-9.63-.58-13.43-4.3-2.26-2.21-4.36-4.57-6.72-7.06-5.05,1.65-9.37-.35-13.43-3.12-6.87-4.69-13.75-9.37-20.46-14.27a9.16,9.16,0,0,0-6.39-2,60.43,60.43,0,0,1-23.61-2.86c-15.08-5.2-29.46-22.2-23.77-43.29a20.87,20.87,0,0,0,.27-2.41c-3.12-.47-6.16-1-9.21-1.4a46.78,46.78,0,0,1-20.4-7.54C121.76,556.9,117,550.84,115,542.91a10.53,10.53,0,0,0-3.7-5.65c-13.21-11.4-18.13-30.63-11.49-46.78,2-5,5.61-9.27,9.28-15.18-1.63-14.35-4.58-30.28-3.28-46.39-6.81-3.47-8.43-6.58-7.45-14,.33-2.46.67-4.92,1.05-7.73-6.54-1.83-6.42-6.88-5.46-12,.78-4.23,2.16-8.34,3.36-12.85-.59-.25-1.48-.6-2.34-1-3.17-1.45-4.5-3.54-3.9-7.19A37.1,37.1,0,0,1,93.35,366c4.09-9.87,5.11-20.28,5.56-30.77a16.49,16.49,0,0,0-1.37-6.22c-5.51-14.74-9.27-29.88-10-45.62a62.07,62.07,0,0,1,1.3-15.8c1.39-6.4,5.34-9,11.86-9.32,8.34-.39,16.18,1.84,23.78,4.85,6.32,2.51,12.45,5.45,18.92,8.32,11.48-12,25.94-19.53,40.53-26.87a24.5,24.5,0,0,1,10.89-3c2.89,0,5.73-2.34,8.63-3.54,4.09-1.7,4.64-1.55,7.88,1.85l8.76-1.59c4.33-8.4,8.07-16.36,12.48-23.93A68.2,68.2,0,0,1,242,202.2c5.63-6,11.95-6.4,18.12-1a56,56,0,0,1,10.54,11.89c5.48,8.7,10.32,17.82,15.21,26.89a15.76,15.76,0,0,0,6.36,6.7,97.86,97.86,0,0,1,10,6.53,40.19,40.19,0,0,0,14.23,6.92c6,1.47,7.2,3.53,6.72,9.66,5.18,3.09,13.25,3.89,10.79,13.48l3.34,3.09,20.93-19.05c-6.25-18.66-1.47-35.25,11.61-49.84,6.6-7.37,15-12,24.34-15.08,22.92-7.61,44.62-4.44,65.23,7.66a134.32,134.32,0,0,1,37.9,33.57c1.22,1.57,2.45,3.12,3.93,5,10.53-2.31,21.09-3,30.81,3,9.48,5.85,15,14.46,16.73,25.77l31.43,7.65c0-2.25,0-4.38,0-6.5-.39-16.64,9.6-27.31,26.2-28.42,12.9-.87,22.8,4.79,31.43,13.56,1.51,1.53,2.86,3.22,4.25,4.79,2-.38,4.16-1.52,5.58-.89,1.75.77,3.06,2.88,4.2,4.65,2.52,3.9,4.82,7.95,7.3,12.1,6.61.4,13.68,0,17.93,6.42s1.48,12.77-1.2,19.1l2.4.9c8.25,3,12,8.88,11.48,17.69A43.82,43.82,0,0,1,685,345.64a16.8,16.8,0,0,0-1.82,10.46c.94,6.57,1.17,13.25,1.74,20.4,4.27,2.36,4.21,6.72,3.93,11.38-1,16.51-4.17,32.62-8.62,48.82,2.2,2.17,4.52,4.3,6.66,6.59,10.8,11.61,16.61,25.13,15.59,41.22a30.51,30.51,0,0,1-6.18,16.6c-6.69,8.93-17.61,11.14-27,5.09-4-2.58-7.44-6-11.51-9.41-1.61,2.26-3.13,4.58-4.83,6.75-4.11,5.24-8.34,10.38-12.43,15.62a16.34,16.34,0,0,0-2.76,4.65c-1.38,4.08-2.23,8.35-3.7,12.4-1.43,3.89-3.37,7.59-5.18,11.58,3.29,4.32,1.66,8.45-1.56,12-3.81,4.15-8.09,7.88-12.61,12.22,2.39,4.67-.66,7.88-4.41,10.76-2.64,2-5.36,3.94-7.33,6.43-1.8,2.82-3.28,5.93-5.48,8.4-12.2,13.73-26.82,24.32-43.59,32.53.79,5-2.58,7.08-6.42,8.71-5,2.15-10.12,4.18-16.07,6.62,2.09,1.08,3.53,2,5.07,2.59,11.19,4.47,22.71,4.62,34.38,2.49,4.58-.83,9.14-1.75,13.71-2.64,9-1.76,18.07-2.61,27.22-1.5,1-7.64,4.87-10.78,12.57-9.8,3.41.43,6.71,1.69,10.69,2.74,12.32-3,15.84-1.2,21.54,11.5,7,.73,13.82,1.08,20.48,2.26a35.83,35.83,0,0,1,11.14,4.19c14,7.87,14.39,25.1,1,33.81-7.43,4.81-15.89,6.62-24.52,7.79-15.42,2.09-30.54.42-45.52-3.39-2-.52-4.13-1-6.16-1.42-4.44,12.55-8,15.15-16.4,12-8.2,5.49-17.88,5.22-25.6-3.64-10.32-.46-20.09-1.2-29.85-1.26-15.66-.09-30.7,3.29-45.22,9.08-5.56,2.22-11.1,4.5-16.73,6.51-8.81,3.16-17.84,5.36-27.59,5-.89,2-1.69,3.93-2.67,5.81a11.23,11.23,0,0,1-2.49,3.68c-.83.68-2.9,1.14-3.38.66a4.39,4.39,0,0,1-1.06-3.71c.77-2.32,2.2-4.43,3.47-6.85l-17.44-7-16.52,13.32c6.85,6.77,14.73,7.71,21.71,2.4l3.34,2.07c-1,4.5-4,6-7.59,6.73-5.82,1.18-11.24-.3-16.37-3-2.2-1.15-4.24-2.6-6.84-4.22-18.46,10.33-38.55,16.39-60.18,15-21.13-1.33-42.11-4-60-16.24-10.19,2-20.22,4.4-30.38,5.8-16.38,2.27-32.89,3-49.18-.56A52.44,52.44,0,0,1,190,729.29c-14.85-9.22-17-28-5.15-40.86,7.83-8.5,18.06-12.14,29-14.37,1.79-.37,3.59-.7,5.39-1,6-1.07,11.75-2.61,14.9-8.36,4,.56,5.35,2.32,3.39,4.92a17.73,17.73,0,0,1-7.11,5.9,103.08,103.08,0,0,1-15.83,4.31c-7.23,1.55-14.1,3.85-20.31,7.94A24.09,24.09,0,0,0,184,700.89c-2.89,9.32.86,18.57,9.61,24,6.81,4.25,14.44,6.09,22.26,6.68,21.07,1.59,41.91.24,62.3-5.76.94-.27,1.84-.68,2.64-1-.38-3.24-1.17-6.31-1-9.34.34-7.1,5.8-12.15,12.26-11.83s11.12,6.44,9,12.59c-1,2.84-3.25,5.29-5.18,7.72-1,1.25-2.52,2.07-4.59,3.7,18,9.64,37,12.46,56.3,13.29S385,736.6,401.7,727.18c-.49-3.28-1.25-6-1.25-8.79,0-9.09,7.07-15.32,16.1-14.14,3.59.47,7.08,1.7,11.38,2.77,1.06-.54,2.8-1.48,4.58-2.33,9.88-4.74,17.42-1,19.55,9.76a6.48,6.48,0,0,0,.54,1.19c5,1.06,10.11.11,15-1.36,7.3-2.21,14.57-4.67,21.62-7.59,21.62-9,43.86-13.27,67.29-10.16a37.86,37.86,0,0,0,6.48.1,47.91,47.91,0,0,0,4.74-.72c-.32-5.65-.23-11.21,4.82-14.88s10.38-2.41,15.43.23c12.27-6.37,17.63-4.92,23.76,6.45,21,5.86,42.22,9.11,63.82,3a37.48,37.48,0,0,0,11.66-5.4c8.47-6.13,8.21-15.94-.22-22.14-5.87-4.31-12.79-5.44-19.79-6.05-3.44-.3-6.93,0-10.15,0-7.08,14.08-10.58,15.18-24.9,8.24-2.54.65-5.07,1.49-7.67,1.89a17,17,0,0,1-5.91,0c-7.46-1.54-9.48-6.45-5.55-14.46-2.18-.36-4.17-.88-6.17-1-10.59-.61-20.87,1.6-31.15,3.61-12.23,2.39-24.46,3.38-36.53-.5-5-1.61-9.78-4.05-14.27-5.94C445.94,679,366.67,683.44,286.06,653.75Zm-3-8.18c43,18.92,87.68,24.65,133.63,21.87A326.25,326.25,0,0,0,547.5,631.8c-.64-4.66-.65-4.68,3.69-6.79a135.19,135.19,0,0,0,43.38-32.78c-.66-4.48-.6-4.64,2.85-7.22l12.25-9.15-3.18-4c1.85-4.29,6.14-5.69,9.08-8.48s6.44-5.17,8.35-8.9c-3.39-3.45-3.5-4.13-1.45-7.9,2.67-4.89,5.69-9.63,7.07-15.32-3.9.62-3.9.62-6-2.68,20.49-20.24,37.36-43.28,48.81-70.38-3.74-2-3.41-4.95-2.32-8.2,1.22-3.6,2.2-7.28,3.25-10.8-9.31-7.56-24.16-12.27-33.73-10.71-.28,1.19-.53,2.48-.89,3.74-2.42,8.45-4.22,17.16-7.48,25.28-3.21,8-7.83,15.35-12,22.9-1,1.74-2.75,3.33-4.93,1.55-1.88-1.55-.72-3.28.31-4.85.91-1.39,1.9-2.74,2.71-4.19,2-3.58,3.88-7.2,5.83-10.85-17.44-10.42-28.94-24.63-33.45-43.76-.47-.23-.62-.37-.77-.37-2.49,0-5,.06-7.47.07a71,71,0,0,1-46.07-16.33c-8.8-7.12-15.42-16-21.45-25.46L511,371.73c-2.77,7.52-5.39,14.63-8.11,22q11.9,14.43,23.8,28.87c5.52,6.67,11.25,13.17,16.54,20a83.53,83.53,0,0,1,8.26,13c4.65,9.13,5.28,18.15-2.52,26.08,2,4.89,4.43,9.16,8.42,12.49,2.77,2.32,2.53,3.1-.57,5.56-6-1-10.46-10.21-15.1-19,.58-.71,1.16-1.51,1.83-2.21s1.58-1.25,2.22-2c2.86-3.33,4.19-7,3-11.49-2.11-7.93-6.41-14.55-11.52-20.77-12.15-14.78-24.22-29.63-36.49-44.31a93.65,93.65,0,0,0-10.2-10.21,9.82,9.82,0,0,0-10.53-1.92c-.13,2.16-.64,4.6-.31,6.91a33.35,33.35,0,0,0,2.32,7.06c.71,1.84.51,3.6-1.37,4.08-1.06.27-2.77-.66-3.69-1.56a7.24,7.24,0,0,1-1.57-3.6c-.84-4.17-1.5-8.38-2.26-12.7-5.89-1.1-9.81,1.69-9.21,7.67.42,4.2,2.28,8.23,3.25,12.39.3,1.26.28,3.17-.47,3.95-1.45,1.5-3.23.51-4.18-1a35.6,35.6,0,0,1-2.77-5.81c-.6-1.47-.93-3.05-1.73-5.73-.77,2.77-1.34,4.32-1.62,5.93-1,5.55.05,10.93,1.62,16.22,3.28,11.06,9.56,20.41,16.68,29.3,3.3,4.12,2.7,5.84-2.52,7.06A41.28,41.28,0,0,0,444.4,479c-2,3.6-3.77,7.19-9.38,5-.2,3.58-.71,6.57-.45,9.49a8.45,8.45,0,0,1-3.06,7.87c-2.15,1.9-3.65,4.56-5.65,7.16,3.8,2.26,3.81,5.13,3.27,8.55-1.62,10.26-.12,19.89,6.69,28.22a8.34,8.34,0,0,1,.95,2.07c-1.27,3-3.27,3.1-5.19,1.35a19.62,19.62,0,0,1-3.87-5.15c-4.67-8.66-5.72-18-4.32-27.59-4-3.1-4.63-4.19-2.56-8.72,1.89-4.15,4.73-7.87,7.18-11.82.87-4.9,1.59-10.14,2.81-15.26a7.71,7.71,0,0,1,3.27-4.72c1.28-.65,3.46.48,5.29.83,9-13.65,11.41-15.6,29.24-23.54l-9-12.71a140.76,140.76,0,0,1-28.32,25.63c-10.48,7.3-21.22,14.14-32.56,19.39-3.1-2-3-3.73-.75-5.47a28.76,28.76,0,0,1,3-1.84c7.25-4.39,14.64-8.58,21.74-13.21,11.75-7.67,22.79-16.22,31.65-27.25.76-.94,1.36-2,2-3-7.21,2.78-15.14,3.61-20.34,10a31.67,31.67,0,0,1-4.53,3.91,421.55,421.55,0,0,1-45.81,32.83c-2.3,1.45-4.27,2.91-4.95,5.85a38,38,0,0,1-15,22.3,207.84,207.84,0,0,1-18.43,11.86c-6.73,4-13.71,7.51-20.61,11.16a16.17,16.17,0,0,0-6.76,6.4,19.64,19.64,0,0,1-9.43,8.58c-5,2.16-8.94,9.48-8.31,15.48a37.83,37.83,0,0,1,4.48-2.28c5.78-2,11.47-4.72,17.43-5.73,21.32-3.63,37.09,13.86,30.47,33.66-3.83,11.48-11.89,18.83-24,20.66s-21-3.6-27.63-13.22a44,44,0,0,1-7.11-17.42c-.19-1-.48-2-.84-3.56-24,18.57-48.2,35.68-78.85,42.69,8.48,6.18,15.94,11.93,24.43,15.92l4.57-2.65,15.34,14.51c4.89-3.39,5.1-3.35,9.29.36a70.79,70.79,0,0,0,5.73,4.81,26.06,26.06,0,0,0,4.21,2.06C280.89,649.87,281.89,647.92,283.09,645.57ZM98.82,400c5.67,2.38,6.35,3.43,6,8.87-.14,2-.65,3.95-.74,5.94-.11,2.41-.9,5,1.31,7.33h5.34c1.76,7.3-.43,14.6.45,21.73.92,7.43,1.6,14.89,2.61,22.3,1,7.23,2.26,14.42,3.43,21.78l5.13-1.14c4.41,10.81,3.11,23.16,9.34,33.43l4.41-2.44c2.77,1,3.1,3.51,4,5.59,3.13,7.28,6.27,14.56,9.51,22.08,7.29,0,13.94.19,20.57,0,18.62-.63,36.54-4.83,54.11-10.81,12.3-4.19,24.8-7.65,37.74-9.2,5.35-.64,10.73-1,16.51-1.6-.66-1.27-1.05-2-1.4-2.72-9.57-19.6-16.41-40-17.33-62-.28-6.78.58-13.61.86-20.41.08-2,1.22-4.33-1.78-5.76-1.11,1.21-2.13,2.47-3.3,3.58-2.18,2-4.35,4.11-6.7,5.95-1.47,1.15-3.42,2-4.82,0s-.16-3.19,1.37-4.62c3.37-3.16,6.45-6.63,9.69-9.94,1.34-1.37,2.76-2.66,4.17-4l3.48,2.15c2.81-5.3,5.05-10.75,8.36-15.43s7.86-8.93,12.19-13.71c-.79-24.87,9-44.28,32.56-56a101.28,101.28,0,0,1,18-49.08c-2-4.61-10-5.94-5.07-13.06l-13.4-5.37c.68-2.52,1.25-4.63,2-7.26-10-1.13-17-7.92-25.14-12.72a24.9,24.9,0,0,0-2.58-1.52c-4.49-2-7.07-5.57-9.25-9.92-4-7.86-8.32-15.54-12.89-23.07a63.57,63.57,0,0,0-8.54-11c-5.92-6.11-9.25-6-14.85.36a89.5,89.5,0,0,0-14.78,24.17c-.63,1.47-1.07,3-1.76,5h7.2c2.16,4.16,1.37,5.36-3,5.81-6.6.68-13.23,1.29-19.76,2.44-3,.52-5.51.92-7.45-1.62-5.09,1.48-8.69,7.3-14.68,3.86-14.74,7.5-29.37,14.71-41.26,26.28-4.11,4-4.14,3.95-9.55,1.59-6.09-2.66-12.14-5.46-18.33-7.88s-12.32-4.1-18.94-3.87c-5.24.17-7.47,1.77-8,6.94a89.8,89.8,0,0,0-.33,16.39c1.21,14.35,5.23,28.07,10.11,41.57a18.55,18.55,0,0,1,1.07,7.27c-.69,11.49-2.14,22.85-6.67,33.6A47.08,47.08,0,0,0,96.4,376l5.15-1.57c2.89,1.22,2.79,3.47,2.35,5.6-.58,2.76-1.54,5.43-2.24,8.17C100.66,392.17,99.74,396.16,98.82,400ZM293.2,420.64c.77,2.28,1.34,4.55,2.27,6.66,5.07,11.38,10,22.84,15.43,34.05,7.27,15,14.25,30,15,48.08l50.53-29.21c1.37-14-2.09-26.05-10.05-37.33l-6.6,9c1.63,3.53.82,6.73-1.78,9.53-3.18,3.44-6.13,7-7.73,11.51-.88,2.49-2.83,3.07-5.26,2-.87-.39-1.76-.7-2.55-1-4.53,3.16-7.16,8.27-12.39,10.13-2.67-1.45-3.16-3.1-1.09-5.2s4.34-4.13,6.35-6.35c2.9-3.2,5.91-5.89,10.15-4l8.89-12.14c-2.53-2.1-2-4.27-.19-6.52,1.05-1.29,2-2.69,2.91-4.06,11.59-16.88,20.47-35,25.11-55a64.75,64.75,0,0,0,1.2-13.86c0-2.71-.27-5.72-3.12-7.43-3.45.93-5.08,3.66-6.69,6.4-1.35,2.28-2.92,3.7-5.93,1.38.08-6.25,5-9.39,9.08-12.9-.57-3.3-2.06-5.56-4.84-6.86-3.51-1.64-7-1.38-9.78,1.24-2.51,2.36-4.38,5.39-6.82,7.84-.82.84-2.5.84-3.79,1.22-.31-1.17-1-2.4-.85-3.52a9.16,9.16,0,0,1,1.73-3.53c1.19-1.77,2.52-3.44,4.48-6.07-3,.55-5.21.52-7,1.38a42.1,42.1,0,0,0-8.39,5.26c-6.25,5.16-10.57,11.9-14.63,18.83-6.06,10.35-12.4,20.53-21.06,29C301.82,412.93,297.69,416.53,293.2,420.64Zm-7.75,115.73c-18.32,9-37.42,17.52-57.62,23.23s-40.45,9.94-61.45,10.69c-.16.36-.32.72-.49,1.07,6.92,7.73,13.83,15.47,20.49,22.92l5.24-2.35c4.81,8.43,11.45,14.83,18.93,20.69,33.09-6,58.69-25.59,83.32-44.49l6-19.89Zm307.3-225.14c3.53,3.34,6.57,6.63,10,9.4a86.85,86.85,0,0,1,16.61,17.8c.94,1.34,1.93,2.65,3.19,4.38,17.88-5,32.29-14.89,44.18-29-5.14-14.17-12.57-26.69-20.26-39.46-4.13,2.5-6.92.7-9.28-2.67a39.22,39.22,0,0,0-3.54-4.19c-5.85-6.23-12.72-10.56-21.4-11.71-16.56-2.21-28,8.94-26.19,25.39.89,8,4.25,14.93,8.44,21.59.93,1.47,1.74,3,2.69,4.7ZM566,322.1c-1.42-.84-2.55-1.52-3.7-2.18-8.93-5.1-14.61-2.29-16,7.76-.21,1.47-1.1,3.53-2.25,4.06-5.61,2.59-6.1,7.37-5.11,12.23a87.7,87.7,0,0,0,5.31,18.09c3.5,7.87,8.07,15.27,12.16,22.87a26.83,26.83,0,0,1,2.43,4.89c.25.87-.27,2.73-.86,2.93a5.44,5.44,0,0,1-3.53-.52c-.66-.27-1-1.25-1.47-2-2.17-3.55-4.39-7.07-6.45-10.68-2.3-4-4.37-7.82-9.48-9.4-6.3-2-12.25-5-18.41-7.44-1.41-.56-3.08-.47-5-.72,12.67,32,43,54.83,74.9,49.4-.5-15.77,3.86-29.21,19.38-37.11-1.16-2.6-2.07-5.08-3.32-7.38-6.87-12.71-13.7-25.45-20.81-38a23.67,23.67,0,0,0-12-10.83ZM495.63,251c-13.78-18.48-30.12-33.29-51.37-42-17.49-7.18-35.14-6.64-52.5.46-15.46,6.33-25.64,17.65-29.51,34-1.64,7-1.61,14,1.27,21l14.18-6.56c3.21-15.64,11.63-24,26.91-26.24A50.75,50.75,0,0,1,433,235.14c9.52,4.23,16.48,10.57,18.1,21.45,0,.3.32.57.15.29l24.86,14.4C479.25,261.63,486.67,255.7,495.63,251ZM320.28,512c-.39-4.36-.49-8.19-1.13-11.92-2-11.9-7-22.76-12.11-33.58-6.27-13.18-12.12-26.55-18.16-39.83-.33-.73-.68-1.43-.86-1.79l-11.51,2.88-.11-.5-8.89,5.44c-6.88,32.45,2.75,61.92,17.32,91.09,5.42-.5,10.85,0,15.49-1.67C307.11,519.63,313.34,515.6,320.28,512Zm20.83-219.76c32.06,8.21,57.33,25.42,76.14,51.59s26.68,56,25.41,89l10.92-4.88c-4.53-19.7-4.42-23.15.91-33.18C444.54,326.27,397.24,288.16,352.21,280c-1.87,2-3.94,4.13-6,6.33C344.69,288,343.2,289.81,341.11,292.22ZM437,434.3c1.41-36-7.71-68-30.72-95.17-18.24-21.57-41.09-35.86-69.42-41.54l-7.65,14.08c29.36,6.55,52.8,21.46,70.77,44.62,18.1,23.32,26.21,50.08,25.42,80.22ZM322.86,332c2.78.71,4.85,1.21,6.91,1.77A83.82,83.82,0,0,1,356,346.67c3.17,2.25,6.2,4.78,10.72,4.46,7.6-.54,12,2.68,14.93,9.86a10.5,10.5,0,0,0,2.33,3.67c3,2.78,4.2,6.17,4.89,10.08a26.32,26.32,0,0,0,3,8.76c7,11.71,12,24.09,14,37.61.74,5.07,1.21,10.17,1.84,15.59h11.31c5-62.76-45-112.43-92.22-119C325.59,322.2,324.31,326.78,322.86,332Zm200.3,25.51,14.59,6.27c-1.52-6.46-3.36-13-4.53-19.58-1.24-7.05.53-13.24,7-17.11,1-11.47,9.71-19.91,25.46-12.58,5.81-4.17,11-1.9,15.45,2.48a54.86,54.86,0,0,1,8.22,10c4.74,7.6,9.19,15.4,13.43,23.3,4,7.43,7.55,15.09,10.8,21.65l17,4.52c-2.76-9.43-6.21-18.62-11.27-26.94-17.57-.57-21.76-5.68-19.86-23.47-3.49-3.67-7.09-7.12-10.28-10.92-2.72-3.24-4-7-.81-10.55l-6.28-13.07c-5.51-1.38-10.81-2.77-16.14-4s-10.89-2.41-16.73-3.7c-1.29,14.22-7.42,24.65-19.83,30.82C531.1,329.53,529.35,343.72,523.16,357.49Zm-94.61-82.3c5.93,1.74,11-.34,14.07-5.64a19,19,0,0,0-6.06-25.89c-11.4-7.48-23.91-8.67-36.77-4.8a27.18,27.18,0,0,0-10.17,6c-8.42,7.76-7.38,21.49,1.76,27.18,2.23,1.39,4.61,2.63,7.59,1.23,0-3.07-.2-6.06.09-9,.16-1.65,1.25-3.21,3.37-2.91s2.43,1.88,2.35,3.71a36.07,36.07,0,0,0,0,6,9.26,9.26,0,0,0,9.63,8.22c4.83-.18,8-3.41,8.48-8.67.12-1.32-.29-2.76.12-3.95s1.36-2.89,2.38-3.15c2-.5,3,1.19,3.12,3C428.67,269.27,428.55,272.08,428.55,275.19ZM678.2,360.07l-1-.31c-10,14.87-21.94,27.82-36.57,37.71v24.6c12.75.05,23.87,4.38,34.53,11.14a218.26,218.26,0,0,0,8-48.86l-3.77-2Zm-38.67,30.66a11.39,11.39,0,0,0,1.76-.79c1.35-1,2.69-1.95,4-3a135.49,135.49,0,0,0,28-31.62c2.65-4.05,3.52-7.91,2.21-12.6-2.07-7.41-3.25-15.08-6.67-22.63C657,334,642.21,342.48,625.6,348.38,633.28,361.75,636.35,376.21,639.53,390.73ZM300.63,570.79c.64,11.27,4.54,20.87,13.1,28.15a20.65,20.65,0,0,0,7.91,4c12.55,3.33,26.09-6.42,28.21-20.06,1.81-11.61-4.72-20.92-16.29-22.64a34.58,34.58,0,0,0-10.88.32C314.68,561.91,307.7,565.76,300.63,570.79Zm-18.49-39.46-.36-1.56c-.95,0-1.91,0-2.86,0a165.89,165.89,0,0,0-49.79,9.31c-23.75,8.26-48.06,13.16-73.36,12.07a18.67,18.67,0,0,0-2.68.38l8.4,13.1C204.65,563.33,244.37,550.82,282.14,531.33ZM480.68,275.71c23.32,21.91,33.92,48.77,32.85,80.37h3.91c5.81-12.8,8.4-25.86,6-39.87-9,.35-15-3.35-18-11.27-3.7-9.79.6-17,8.21-22.92a133.91,133.91,0,0,0-14.63-26.16C490,260.14,483.54,265.92,480.68,275.71ZM661.1,492.5c2.15,1.78,4.56,3.82,7,5.81a37.07,37.07,0,0,0,3.54,2.73c7.5,4.79,14.86,3.56,20.11-3.56a26.06,26.06,0,0,0,3.6-7,33.3,33.3,0,0,0,1.11-16.7c-2.21-12.39-8.64-22.22-18.24-31l-2.61,8.61c3.26,4.87,3.35,5.49,1.24,11.06a41.21,41.21,0,0,1-2.2,5C670.44,475.31,666.16,483.16,661.1,492.5ZM443.57,341.92c20.47-12.28,36-28.15,43.1-51.39A97.07,97.07,0,0,0,472,276.32a135,135,0,0,1-33.22,57.21C440.4,336.41,441.8,338.85,443.57,341.92ZM428.74,442.29c-19.91,2.64-38.62-1.3-56.72-9.58l-2.44,4.73c8.76,11.34,12.76,24.08,13.11,38.65C399,465.57,414.52,455,428.74,442.29ZM435.19,328c11.27-7.91,31-41.77,30.83-55.49-10.69,1.79-32.42,22.87-40.41,43.19Zm56.59-31.1h-1.14c-8.17,22.56-24.49,38-44.37,50.29l3.82,8.37c16.64-4,44.68-28.16,50.11-43.39C497.51,307.3,494.65,302.09,491.78,296.89Zm-177,51.41c-13.62,5.17-27,25.35-25.52,45.81,8-3.62,16.3-5.69,24.93-4.83l6-9.47C318.34,368.64,316.57,358.42,314.81,348.3ZM455.6,371.61C476,364.23,493,353.08,507.09,337c-1.27-5.45-2.51-10.75-4-17.17-13.17,19.78-30.52,32.51-50.66,41.71C453.54,365.11,454.48,368.08,455.6,371.61ZM403,295.07l18.38,15.82c8.89-17.68,20.82-32.39,38.65-42.7L451.41,264c-7.48,16.43-13,19.91-26.22,16.64-4,3.75-9.1,4.92-14.71,4.67Zm192.41,122c4.21,17.8,14.57,30.29,30.72,40.08,0-3.05.34-5-.07-6.82-1-4.34-3.17-8.57-3.31-12.9-.24-7-4.39-11.84-7.31-17.39-3.73,1-6.8,3.43-10.43,1.4-1.43-3.1.24-4.48,2.86-4.93a6.3,6.3,0,0,0,5.43-4.21ZM542.23,276.7c-.49-14.49-18.07-29.31-36.51-22.34q6.82,12.34,13.6,24.61a108.11,108.11,0,0,1,11.12-2.18C534.34,276.41,538.3,276.7,542.23,276.7ZM118.94,495.12c-7.6.43-6.62-6.39-8.48-11-12,10.29-9.14,39.75,3.45,46.84a82.28,82.28,0,0,1,3.39-8.66,85.5,85.5,0,0,1,5.29-7.94C121.42,508.23,120.22,501.89,118.94,495.12ZM505.1,371.06c-6.21.39-11.33,1-16.44.95s-10.29-.66-15.43-1a4.47,4.47,0,0,0-2,.27c-4.72,2-9.43,4-14.38,6.07l2.41,11.2c4.71-5.92,10-7.65,16.48-5.92a4.56,4.56,0,0,0,2.79-.39c4.53-2,8.81-1.16,12.9,1.14,2.3,1.3,4.44,2.9,7.29,4.8ZM163,577.05c-2.46,8.28,1.49,19.86,8.89,26.74,7.61,7.07,22.35,11.39,29.27,8.73q-5.73-6-11.64-12.24c-4.68-.51-5.8-.89-9.71-5C174.2,589.43,168.8,583.36,163,577.05Zm186.18-228a59.87,59.87,0,0,0-26.62-10.81c-2,8.56-.7,23.88,2.64,32.75,3.53-4.21,6.65-8.76,10.61-12.4S344.53,352.3,349.18,349.05Zm261.09,31.12c-11.19,4.53-17.92,18.26-15.1,31.38L615.83,405C615.65,395.8,613.26,387.94,610.27,380.17Zm-88.8-95.52c2.53,8.14,4.88,15.72,7.31,23.58,9.77-5.53,13.65-14.15,14.67-25A39.88,39.88,0,0,0,521.47,284.65ZM326.24,519.06c1.08-.16,2.2-.26,3.27-.5a111,111,0,0,0,26-9.83A40.45,40.45,0,0,0,372.63,492a20.49,20.49,0,0,0,1.11-3.58c-6.51,3.83-12.18,7.26-17.95,10.52q-13.43,7.59-27,15C326.78,515,325,516,326.24,519.06ZM119.86,536.2c7.06,4.3,14.39,6.58,22.74,8.1l-8-18.25c-5.07,2.17-7.29-1.56-9.88-4.86C121.14,525.69,119.92,530.47,119.86,536.2Zm1.84,8.25c3.81,10.74,17.26,18.86,32,19.21l-7.4-12.4ZM392.84,397.38c-3.21,2.86-6.82,4.74-8.34,7.69-3.61,7-6.23,14.56-9.36,22.15l3.45,1.77c4.42-8.61,12-13.67,18.93-19.52C396,405.52,394.58,401.86,392.84,397.38Zm241.57,4.11-13.62,7.68c-.61,2.13-1.2,4.16-1.66,5.8l7,11.45,8.28-4.22ZM506.08,365.36c1-7,2-13.09,1.22-19.14l-25.69,20.34ZM304.74,542.2c3.69-5.54,12.06-7.17,13.88-15.84-9.37,1.89-19,.34-26.57,7.23C296.89,539.85,299,541.33,304.74,542.2ZM616.59,378.63c1.85,7.84,3.62,15.36,5.46,23.17,1.88-1,3.8-1.88,5.67-2.9s3.94-2.27,5.73-3.3C632.66,385.73,626.59,379.66,616.59,378.63ZM383.8,431A63.33,63.33,0,0,0,401,435.75c.83-6.56-.4-15.5-2.7-19.63C393,420.42,387.65,424.58,383.8,431ZM359.25,275,376,280.57l6.54-8.35c-1.31-2.65-2.61-5.26-4.08-8.22C371.66,267.06,365.15,270,359.25,275Zm22.11,7.92,16.76,9.23,6.76-9.37-3.3-3.09c-3.06-.16-5.59,0-8-.5s-4.57-1.67-7.15-2.65ZM291.49,414.14c7.46-5.29,16.07-14.63,17.73-19.17-7.24,0-13.61,2.29-20,6.09C290,405.51,290.72,409.67,291.49,414.14Zm225.06-126c-6.28,3.77-8.2,9.3-5.73,15.09,2.23,5.25,6.55,7.64,12.14,6.3C520.83,302.39,518.72,295.32,516.55,288.09Zm133.6,364c-1.15-6.74-4.54-9.29-9.33-7.12.19.27.37.55.57.81,1.32,1.75,4.06,3.49,1.36,5.76-2.46,2.08-4.14-.52-5.82-2-1.22-1.07-2.4-2.18-3.65-3.31l-8.92,4.89,8.65,6.83ZM283.8,404.53c-5.92,5.76-10.24,11.51-13,18.56,2.56-.84,4.92-2.4,7-2.13,3.61.47,5.93-1.11,8.5-3.09C285.54,413.62,284.75,409.49,283.8,404.53Zm390.61-87.95c2.21,7.85,4.31,15.31,6.58,23.41a26.76,26.76,0,0,0,3.16-14.12C683.74,320,680.63,317,674.41,316.58Zm-267.12,407,14.87-12c-5.18-1.74-9.54-3-13.38.63C405.63,715.17,405.82,718.84,407.29,723.53Zm263.2-416.2c2.25-5.07,4.66-9.1,2-13.33-2-3.1-5.27-4.16-9.44-3.23C665.45,296.15,667.74,301.22,670.49,307.33ZM287.74,722.61c2.33-1.83,4.87-3.34,6.75-5.44,2.16-2.4,1.68-5.52-.48-6.94s-5.25-.58-7,1.67C284.88,714.56,285,718.07,287.74,722.61ZM605.64,330.8c-1.77,8.77,1.74,12.65,10.29,12.2Zm-12.38,365c-2.1,1.22-3.7,2.09-5.24,3.07s-3.19,2.18-5.17,3.54l-3.26-4.68-2.78,1.81c6,5.95,9.75,5.74,17.77-.8Zm-19.34-2.07c4.25-1.48,6.75-4.64,9.55-8.21C575.31,683.86,572.67,686.33,573.92,693.77Zm-127.73,21c-1.72-6.69-5.27-8-11.57-4.23C438.34,712.6,441.78,714.74,446.19,714.76Zm169.93-55.39c3.36,3.26,6.64,2.9,10.67,1.08l-7.65-5.91c-.82,1.12-1.43,1.89-2,2.71C616.83,657.79,616.6,658.39,616.12,659.37Zm-11.68,28.16c-2.36-3.6-4.06-4.73-6.73-4.22a27.39,27.39,0,0,0-4.5,1.71l2.33,3.49Zm1.89,6.05-7,.37,2.28,7.89C605.57,698.9,605.57,698.9,606.33,693.58ZM630.71,441.3c1-4.63,1.69-8.11,2.48-11.92C627.67,432.34,627.22,434.19,630.71,441.3Zm-13,207,8.73-5C620.08,641.15,618.08,642.14,617.7,648.31Zm31.11,10.14-10.2,3.47C645.16,665,646.91,664.42,648.81,658.45ZM390.43,392.67,388.15,389c-.2,2.48-.3,3.75-.47,5.82Zm195.5,299.49.4.52a10.16,10.16,0,0,0,2-1,11.18,11.18,0,0,0,1.46-2.17c-1.28.36-1.83.37-2.13.64A22.06,22.06,0,0,0,585.93,692.16Z"/><path d="M76.5,637.27c4.89-1.49,8.47-2.89,12.17-3.62a33.17,33.17,0,0,1,9.87-.68c7.93.84,10.92,7.23,6.87,14.08-.68,1.14-1.46,2.22-2.19,3.33.7,3.35,3.41,4.1,6,4.27a42.55,42.55,0,0,0,8.4-.66c2.11-.28,4.25-.57,4.72,2.14.4,2.31-1.44,3.23-3.34,3.53-5.3.86-10.61,1.32-15.72-1-6-2.67-7.36-7.47-3.84-13,.87-1.37,1.72-2.77,2.54-4.08-2-3.63-5.2-3.49-8-3.09-3.76.53-7.4,1.86-11.12,2.69-4.5,1-9,1.81-13.56,2.79a18,18,0,0,0-4.2,1.39C37.62,659,4.61,640.83.5,611.31c-4.44-31.86,21.31-54.08,48.11-51.75,17.88,1.55,30.62,10.88,37.58,27.2s4.4,31.89-6.21,46.11C79.09,634.06,78.14,635.2,76.5,637.27Zm-6.5-2c-26.2-14.63-37.93-37.71-40.45-66.76l-4.06,2.2C23.17,594.62,37.32,628.07,62.86,640ZM19.42,575.37c-4.14,3.42-4.25,3.42-4.25,6.76,0,24.23,8.81,44.31,28,59.61,3.81,3,7.41,2.64,11.64.92C31.68,626.12,20.64,603.59,19.42,575.37ZM33.8,641.84C17.52,623.5,13.41,614.55,9.45,589.26-1.59,609.65,12.89,636.72,33.8,641.84Zm14.6-33.65a69.69,69.69,0,0,0,25.79-29.05c-.58-.75-1-1.3-1.39-1.77a17.17,17.17,0,0,0-1.43-1.26C59.47,582,52.18,592.21,45,602.55Zm25.74,22.45c7.31-9.27,10.83-18.81,9.64-29.82L61.51,622.91ZM56.41,618.1c10.72-7.43,19.93-15.54,24.91-27.62-1.06-2-2-3.73-3-5.46-4.06,5.45-7.43,10.82-11.66,15.39S57.21,609,52.3,613.29ZM66.6,571.94l-4.9-2.82c-10.45,3.67-17.15,10.81-22.59,19.9l3,7.81C49.22,587.13,55.81,578.12,66.6,571.94ZM36,566.53c-.47,7.16-.13,9.75,1.5,13.22L52.67,566C47.32,564.47,41.81,564.86,36,566.53Z"/><path d="M784.54,262.26c-1.2-.81-2.21-1.38-3.1-2.1-3.5-2.9-7.48-3.38-11.76-2.45-2.27.5-4.52,1.16-6.82,1.51-6.55,1-12.11-1.24-17-5.84-11.34,5.72-22.93,6.41-34.71,1.6-9.38-3.83-16-10.66-20.51-19.55a40.7,40.7,0,0,1,14.23-52,40.06,40.06,0,0,1,52.41,7.77c12.43,14.7,14.69,40.39-5.72,58.87,2.6,3.09,6,4,9.77,3.49,3.13-.39,6.19-1.28,9.31-1.76a17.55,17.55,0,0,1,15.2,4.62C788.28,258.73,788,259.83,784.54,262.26Zm-75.06-73.64c-3.66.35-3.61,2.68-3.34,5.08,2.46,21.49,12.62,38.22,30.93,49.86,2.33,1.49,4.93,2.57,7.36,3.81,1.4-1.05,2.49-1.8,3.5-2.66a21.47,21.47,0,0,0,1.89-2.09C726.67,231.72,713.8,213.27,709.48,188.62Zm-8.94,7c-3.17,4.11-3.3,4.19-2.95,7.21,2.39,20.59,12.21,36.54,29.82,47.64,3,1.9,5.77,1.74,9.22-.31-10.13-5.94-18.28-13.27-24.39-22.79A75,75,0,0,1,700.54,195.62Zm29.16,24.87c9.46-7.68,16.71-16.26,21.15-27.24l-3.22-2.76c-9.69,6.62-16,15.54-20.81,25.77Zm30.71-7.09-17.48,18.87c3.6,2.26,7.11,4.63,11.52,5.41C759.35,229.93,761.75,222.08,760.41,213.4Zm-22.76,14.51a56.16,56.16,0,0,0,20.29-24.49L755,198.26a78.8,78.8,0,0,1-21.33,26.44Zm-44.46-15.62c-3.05,16.93,8.19,34.76,23.75,37.94A72.16,72.16,0,0,1,693.19,212.29Zm45.17-27.23A40.5,40.5,0,0,0,720,204.34c1,1.91,2,3.58,3.34,6.08,4.95-9.28,10.72-17,18.5-23,.11-.08.1-.31.18-.64Zm-21.73,9.77,12.68-11.7a28.23,28.23,0,0,0-14.4,2.09C715.56,188.82,716.18,192.29,716.63,194.83Z"/><path d="M294.09,39.19c0-1.6,0-3.19,0-4.78-.11-6.66-.26-13.31-.32-20,0-1.48-.17-3.23.53-4.37A5.58,5.58,0,0,1,298,7.59c1.06-.07,2.56,1.33,3.25,2.45s.57,2.56.6,3.88q.4,18,.71,35.92a15,15,0,0,1-.52,4.43c-1.06,3.54-4.07,4.51-6.94,2.16a18.3,18.3,0,0,1-3.5-4.17c-4-6.12-7.89-12.31-11.86-18.46-1.69-2.63-3.46-5.21-5.79-8.71a33,33,0,0,0-.58,4.35c.1,7.15.29,14.31.41,21.46a23.77,23.77,0,0,1-.15,4.47,3.62,3.62,0,0,1-3.77,3.29,3.82,3.82,0,0,1-4-3.12,11.28,11.28,0,0,1-.32-3q-.3-18.19-.51-36.41a14.08,14.08,0,0,1,.61-4.43c1.09-3.4,4.37-4.33,7.06-2a17.25,17.25,0,0,1,2.88,3.43c5,7.45,10,14.94,14.93,22.41.87,1.3,1.77,2.59,2.65,3.89Z"/><path d="M162.43,105.73c1.95,1.38,3.53,2.33,4.9,3.51,6.33,5.5,6.51,14.79.08,20.08-6.63,5.44-14.33,6.56-22.54,4.15a5,5,0,0,1-4-5.09Q140.45,110.2,140,92c-.07-3.23,1.64-5.27,4.59-6.4a18.39,18.39,0,0,1,14.09.06c7.19,3,9.54,10.6,5.5,17.33C163.7,103.84,163.14,104.64,162.43,105.73Zm-13.77,7v13.79A14.49,14.49,0,0,0,161,124.74c4.84-3,4.65-8.35-.43-11C156.79,111.76,152.78,110.81,148.66,112.76Zm9.91-16.61c-2.8-4.72-5.41-5.55-10.3-3.41v11.62C155.14,102.75,157,101.23,158.57,96.15Z"/><path d="M424.35,29.73c0-4.41-.07-10.07,0-15.72.09-5.18,2.29-7.19,7.42-7.09,16.86.36,29.62,17,25.49,33.27C454.71,50.37,443.35,59,432.73,58.75c-4.15-.08-5.93-1.22-6.42-5.39C425.44,45.93,425.05,38.45,424.35,29.73ZM434,49.81c10-1.14,16-8.13,15.72-17S440.44,15,432.28,16C432.84,27.11,433.41,38.27,434,49.81Z"/><path d="M246.85,41l-14.09.86c-.68,3.94-1.36,7.82-2,11.7-.73,4.33-2.15,6.11-4.73,5.85s-3.86-2.16-3.3-6.65c1.51-12,3.46-24,7.94-35.4a26.21,26.21,0,0,1,3.61-6.48c3.48-4.45,8.27-4.39,11.61.24a25.06,25.06,0,0,1,4,8c2.49,9.29,4.63,18.67,6.82,28a46,46,0,0,1,1.14,7.38c.23,3.32-.89,4.86-3.31,5.2s-4.07-.85-4.75-4c-.78-3.57-1.29-7.2-2-10.79C247.57,43.63,247.2,42.39,246.85,41Zm-12.71-7.47,11.45-1c-2.23-5.32-1.9-10.88-6.41-15.71Z"/><path d="M337,40.06c-2.11,0-4.23.06-6.35,0s-4.42-.44-4.89-3.22c-.4-2.32,1-4.32,4-4.68a41.14,41.14,0,0,1,10.4-.06c3.9.55,6,3.06,5.54,7-.47,4.22-1.19,8.69-3.08,12.4-5,9.76-17.59,11.27-25.3,3.44a23.69,23.69,0,0,1-6.45-14.29,41,41,0,0,1,2-19.19c2.51-6.81,6.53-12.39,14.08-14.3a13.63,13.63,0,0,1,11.82,2.41c1.91,1.39,3,3.29,1.81,5.6s-3.43,2.06-5.64,1.25c-6.44-2.34-10.12-1.1-13.05,4.89a29.2,29.2,0,0,0-2.2,21.34c1.64,5.82,5.73,9.41,9.9,8.93C334,51.08,336.74,46.83,337,40.06Z"/><path d="M505.45,50.49c4.5-.86,6-4.07,7-7.44a69.72,69.72,0,0,0,2.58-27.14,38.47,38.47,0,0,1-.24-6,3.76,3.76,0,0,1,3.44-3.71c2.1-.28,3.5.9,4.21,2.78a13.59,13.59,0,0,1,.92,3.86c.67,10,.68,20-2,29.73a34.35,34.35,0,0,1-4.32,10c-5.54,8.22-16,8.32-21.74.17a33.08,33.08,0,0,1-4.66-10.36c-2.5-9.41-2.44-19.09-1.93-28.76a5.92,5.92,0,0,1,.82-3.33,7.32,7.32,0,0,1,3.74-2.58c2.08-.36,3.41,1.19,3.66,3.24.21,1.8,0,3.65.12,5.47.48,7.62.69,15.27,1.64,22.83C499.28,43.66,500.74,48.09,505.45,50.49Z"/><path d="M541.54,39.55c0,5.3,0,9.93,0,14.57a29.21,29.21,0,0,1-.1,4,3.62,3.62,0,0,1-3.58,3.48c-2.36.15-3.7-1.18-4.22-3.39a10,10,0,0,1-.21-2c-.42-13.94-.92-27.87-1.21-41.81-.14-6.44,1.84-8.72,8.2-9.53,8.5-1.09,15.36,2,20.16,9.09a14.61,14.61,0,0,1-1.63,18,21.56,21.56,0,0,1-12.47,6.74Zm-.87-8.9c8.3,0,14-4,13.79-9.21-.15-4.94-6.07-8.94-12.61-8.47-.43,0-.85.44-1.18.62Z"/><path d="M395.66,16.88V29c2-.11,3.75-.24,5.52-.28a44,44,0,0,1,6,0c1.94.24,3.47,1.29,3.54,3.53a3.69,3.69,0,0,1-3.21,3.88,36.88,36.88,0,0,1-5,.48c-2.14.21-4.28.45-7,.74.32,3,.47,5.77.95,8.5.62,3.57,1.85,4.56,5.42,4.28,2.81-.21,5.59-.81,8.39-1.2a24,24,0,0,1,4-.38c2.06.05,3.79,1.22,3.74,3.23,0,1.38-1.14,3.57-2.25,3.94-7,2.33-14.13,4.07-21.47,1.67-3.8-1.24-5.34-4.56-5.62-8.16-.66-8.44-1-16.91-1.36-25.38a54.52,54.52,0,0,1,.42-8c.47-4.22,2.21-6.53,6.42-7.14a159.84,159.84,0,0,1,16.38-1.2c2.41-.1,4.19,1.11,4.21,3.87s-2,3.69-4.27,3.91c-4,.38-8,.53-11.94.83A21,21,0,0,0,395.66,16.88Z"/><path d="M498.85,116c-.62,4.46-1.06,8.08-1.67,11.67-.31,1.82-.89,3.59-3.17,4-2.69.41-4.56-1.34-4.26-4.65a97.29,97.29,0,0,1,1.92-13.3q2.44-10.65,5.65-21.11c1.21-3.91,3.57-7.58,8.24-7.54s7.12,3.68,8.25,7.59c2.83,9.87,5.21,19.87,7.74,29.82a47.38,47.38,0,0,1,.87,4.9c.36,2.52-.66,4.34-3.19,4.8-2.35.42-3.86-1.1-4.37-3.19-.89-3.71-1.48-7.49-2.21-11.23-.13-.63-.34-1.23-.64-2.31Zm7.43-21.86-1.77-.06c-1.34,4.59-2.69,9.19-4.25,14.51l10.49-.82C509.09,102.69,507.68,98.41,506.28,94.13Z"/><path d="M474.67,111.72H458.82c.2,3.67.4,6.93.54,10.2.09,2.15.48,4.41,0,6.44a5.33,5.33,0,0,1-3.15,3.12c-1.71.58-3.22-.57-3.7-2.45a17.55,17.55,0,0,1-.65-3.92q-.42-17.19-.73-34.39c0-.67-.14-1.51.2-2,.92-1.2,1.9-2.81,3.17-3.17,2.14-.61,3.33,1.15,3.72,3.09a23.61,23.61,0,0,1,.29,4.46c0,3.48,0,7,0,11,2.87,0,5.29.05,7.7,0s4.94-.26,7.85-.42c0-2.69-.05-5.13,0-7.56s-.16-5.06.47-7.41A4.81,4.81,0,0,1,478,86c1-.11,2.57,1.34,3.23,2.47s.38,2.58.44,3.9q.74,16.94,1.43,33.87c0,.5.11,1,.1,1.49-.06,2.26-1.06,4-3.38,4.25a3.64,3.64,0,0,1-4.17-3.42c-.5-3.61-.74-7.27-1-10.91C474.57,115.73,474.67,113.77,474.67,111.72Z"/><path d="M205.33,16.66c.34,11.28.66,21.91,1,32.55a58.19,58.19,0,0,1,0,6.47c-.19,2.38-1.31,4.18-4,4.13s-3.8-1.81-4.13-4.17a37.26,37.26,0,0,1-.25-4.48q-.39-15.72-.76-31.43c0-.81-.16-1.62-.28-2.83-2.39,0-4.67,0-6.95,0-1.83,0-3.78.32-5.44-.21-1.35-.43-3.3-2-3.27-3,0-1.44,1.38-3.13,2.62-4.17.88-.75,2.51-.74,3.82-.8,9-.41,18-.75,26.93-1.1.67,0,1.34,0,2,0,3.32.21,5.27,1.74,5.13,4.21-.17,2.94-2.24,3.81-4.8,4Z"/><path d="M570.11,115.23c.21,4.24.44,8.38.6,12.53.09,2.3-.3,4.39-3.13,4.82-2.42.36-4-.92-4.37-4.23-.59-5.94-.93-11.91-1.2-17.88-.27-6.13-.4-12.28-.44-18.42,0-4,1.07-5.41,4.76-6.54a17.61,17.61,0,0,1,16.88,3.3c7.87,6.27,7.18,17-1.57,22C578.27,112.76,574.31,113.67,570.11,115.23Zm-.53-8.84c6.9-.11,11.63-3.57,11.32-7.81s-5.42-6.69-11.32-5.65Z"/><path d="M536.62,114.94c.24,2.89.5,5.86.72,8.83.1,1.33.14,2.66.18,4,.08,2.52-1,4.35-3.58,4.53s-4-1.62-4.18-4c-.43-5.47-.7-11-1-16.44-.31-6.48-.56-13-.84-19.45-.19-4.56.73-6,5.11-7.21a18.42,18.42,0,0,1,15.35,2.07c9.31,5.78,9.36,17.75-.1,23.25C545,112.44,541,113.33,536.62,114.94Zm0-7.42c3.53-1.74,6.51-2.76,8.94-4.52,2.78-2,2.8-5.33.66-7.86-2.37-2.81-6.31-3.73-10.47-2.33.18,3.39.34,6.85.53,10.3C536.36,104.08,536.46,105.05,536.65,107.52Z"/><path d="M199.08,101.7c-.19-3-.42-6-.54-9-.08-2.24.76-4,3.24-4.22a3.4,3.4,0,0,1,3.89,3.08c2.12,11.83,2.22,23.6-3.55,34.51-4.49,8.49-14.67,8.71-19.71.5a31.23,31.23,0,0,1-4.3-11.55c-.94-6.54-.86-13.23-1.16-19.86a8.19,8.19,0,0,1,.32-2.46c.49-1.87,1.31-3.48,3.65-3.36s3.11,1.67,3.21,3.69c.22,4.14.16,8.32.61,12.44a111.22,111.22,0,0,0,2.28,13.7c.6,2.52,1.76,5.49,4.92,5.59s4.42-2.91,4.95-5.43c1.22-5.8,2-11.7,2.91-17.56Z"/><path d="M288.34,132.85c-3-.78-6.08-1.52-9.1-2.36a6.84,6.84,0,0,1-2.2-1.12c-1.75-1.28-2.86-2.91-1.83-5.12s3-2.18,5.12-1.57c2.69.79,5.36,1.87,8.1,2.16s5.72-.48,7.09-3.52c1.13-2.49.07-5.61-2.72-7.91a42.78,42.78,0,0,0-4.56-3c-2-1.24-4.05-2.3-5.92-3.67-7.73-5.68-7.21-14.73,1.12-19.51A15.43,15.43,0,0,1,295,85.5c1.1.26,2.52.64,3.06,1.45a6.32,6.32,0,0,1,1.25,4.3c-.17.81-2.26,1.42-3.58,1.67-1.08.22-2.35-.53-3.43-.31a17.51,17.51,0,0,0-6,2c-2.36,1.52-2.25,4,0,5.8,1.29,1,2.88,1.65,4.27,2.55a68.58,68.58,0,0,1,7.4,5c5.37,4.56,7.09,10.52,5,16S295.42,132.52,288.34,132.85Z"/><path d="M609.06,104.26l8.15-14.32a24,24,0,0,1,1.72-3c1.29-1.66,3.26-2.26,4.8-1a5.89,5.89,0,0,1,1.54,4.23c0,1.37-1,2.75-1.78,4-2.79,4.91-5.79,9.71-8.42,14.71a17.46,17.46,0,0,0-1.83,6.5c-.36,4.13-.25,8.3-.37,12.45a21.12,21.12,0,0,1-.32,3.47c-.38,2-1.56,3.29-3.76,3.21a3.33,3.33,0,0,1-3.52-3.45,71.81,71.81,0,0,1,0-9.95c.56-5.54-.44-10.38-4-14.89-2.54-3.24-4.39-7-6.47-10.63A31.84,31.84,0,0,1,593,91.61c-.9-2.25-.86-4.3,1.71-5.44,2.33-1,3.81.23,4.89,2.14,1.39,2.46,2.65,5,4.09,7.41C605.25,98.42,607,101,609.06,104.26Z"/><path d="M362.39,50.34c4.4-.22,8.2-.44,12-.6a22.34,22.34,0,0,1,4.48,0,3.6,3.6,0,0,1,3.25,3.8c0,2-.88,3.58-3.05,3.93a53.85,53.85,0,0,1-6.44.76c-3.82.16-7.66.25-11.48.16-5.29-.11-6.89-1.56-7.21-6.79-.45-7.14-.71-14.29-.94-21.44-.16-5.15-.17-10.31-.19-15.47a17.45,17.45,0,0,1,.29-4c.45-2,1.8-3.56,3.86-3a6.87,6.87,0,0,1,3.39,3.05c.55.87.25,2.27.3,3.43.38,10.14.73,20.28,1.14,30.42C361.85,46.32,362.13,47.94,362.39,50.34Z"/><path d="M231.7,94.47c.39,9.8.75,18.58,1.08,27.35.08,2.32.09,4.65.07,7s-1,4-3.37,4.23c-2.68.27-3.87-1.6-4.19-4a59.2,59.2,0,0,1-.35-6c-.3-9.09-.57-18.17-.87-27.56-3.24,0-6-.07-8.81,0-2.36.07-4-.86-4.17-3.25s1.42-3.7,3.69-3.83c8.95-.54,17.89-1.06,26.85-1.4,2.33-.09,4.28,1,4.23,3.81-.05,2.58-1.9,3.41-4,3.52C238.74,94.59,235.61,94.47,231.7,94.47Z"/><path d="M326.17,94.82c.36,9.87.71,19.31,1,28.76a33,33,0,0,1-.07,5.45c-.25,1.85-1.65,3.22-3.45,2.8a6.64,6.64,0,0,1-3.61-2.75c-.64-1-.4-2.57-.45-3.9-.32-9-.61-17.92-.92-26.88,0-1-.13-2-.23-3.39-1.9,0-3.65,0-5.41,0-1,0-2,.22-3,.18-2.18-.08-4.05-.84-4.26-3.29a3.51,3.51,0,0,1,3.58-4c8.45-.52,16.91-.88,25.38-1.19,2.42-.09,4.3,1.1,4.44,3.71s-1.84,3.37-3.94,3.64C332.37,94.35,329.43,94.53,326.17,94.82Z"/><path d="M404.49,123.18c4,0,7.44,0,10.89,0,1.5,0,3.13-.32,4.44.18a5.29,5.29,0,0,1,2.88,2.81c.61,1.79-.59,3.14-2.4,3.74a6.82,6.82,0,0,1-1.93.43c-5.32.15-10.63.42-15.95.32-3.75-.08-5.37-1.46-5.53-5-.53-11.61-.82-23.24-1.14-34.87-.06-2.24.9-4,3.36-4.12s3.64,1.46,3.77,3.74c.32,5.64.52,11.29.8,16.93C403.93,112.57,404.22,117.83,404.49,123.18Z"/><path d="M372.83,123.51c4.15-.25,7.76-.5,11.37-.67,4.46-.22,6.48.91,6.52,3.53,0,2.44-1.71,3.77-5.85,4-4.47.26-9,.45-13.45.36s-5.81-1.18-6-5.56c-.52-11.28-.76-22.57-1.06-33.86-.06-2.26.32-4.45,3.23-4.72,2.29-.21,3.83,1.44,4,4.66.41,8.79.67,17.6,1,26.39C372.61,119.31,372.7,121,372.83,123.51Z"/><path d="M573,27.4q.75-10.45,1.5-20.91a17.24,17.24,0,0,1,.37-3C575.39,1.38,576.69-.19,579,0s3.53,1.72,3.61,4.06c0,1.16,0,2.33,0,3.49-.64,10.79-1.31,21.58-1.92,32.38-.14,2.52-.56,4.73-3.69,4.91-2.65.16-4.12-1.44-4.24-5-.15-4.15,0-8.31,0-12.46Z"/><path d="M354.89,110.07v16.42c0,3.72-1.16,5.57-3.49,5.52-2.18,0-3.64-1.72-3.81-5-.56-10.93-1-21.87-1.47-32.82a10.82,10.82,0,0,1,.44-4.42c.5-1.2,1.84-2.91,2.76-2.87,1.32,0,2.86,1.24,3.81,2.37.62.73.47,2.21.48,3.36,0,5.8,0,11.6,0,17.4Z"/><path d="M576,62.72a4.55,4.55,0,0,1-4.54-4.85,5,5,0,0,1,5-5.09A5.09,5.09,0,0,1,581.26,58,4.9,4.9,0,0,1,576,62.72Z"/><path d="M563,522.08c-.16,2.16-.22,4.32-.5,6.46-.25,1.93-1.53,3.26-3.4,2.53a4,4,0,0,1-2.08-3.23,34.2,34.2,0,0,0-1.13-15.25c-.56-1.69-.07-3.31,1.66-3.46,1.14-.11,3.2.86,3.47,1.77,1.09,3.61,1.65,7.38,2.4,11.09Z"/><path d="M234.86,333.7c2.16,1.52,4.23,3.5,6.69,4.62,5.09,2.3,10.19-.68,11.19-6.2.18-1-.16-2.16.29-2.93.66-1.14,1.7-2.63,2.79-2.82,2-.36,2.7,1.35,2.89,3.2.89,8.65-7.07,16.38-15.71,15.05-2.41-.38-4.71-1.41-7.48-2.27-.49,1.44-1,3.1-1.61,4.72-4.42,11.61-19,11.26-25.1,6-1.42-1.21-2.9-2.61-1.48-4.63s3.19-1.09,4.74,0c2.81,2,5.79,3.21,9.33,2.36,6.19-1.49,8.91-6.93,7.19-14.72a67.92,67.92,0,0,1-8.39-3.94c-1.49-.94-3.26-2.93-3.21-4.38s1.9-3.41,3.44-4.3a78.79,78.79,0,0,1,9.92-4.42c4.93-1.95,7.45.08,6.56,5.25C236.43,327.1,235.71,329.83,234.86,333.7Z"/><path d="M183.91,515.62c-4.71.39-5.7-.28-5-3.51a37.94,37.94,0,0,1,3.12-9.95c3.87-7.32,8.19-14.41,12.41-21.54a9.18,9.18,0,0,1,2.71-2.87,2.93,2.93,0,0,1,2.68-.19,5.05,5.05,0,0,1,1.17,2.93c.09.54-.41,1.25-.8,1.77C192.6,492.28,186.08,502.83,183.91,515.62Z"/><path d="M177.81,323.27a8.61,8.61,0,0,1,8.72,8.9,7.73,7.73,0,0,1-7.86,7.92,8.84,8.84,0,0,1-8.78-8.4A8,8,0,0,1,177.81,323.27Z"/><path d="M268.86,297a7.67,7.67,0,0,1-7.84,7.8c-4.94-.11-8.53-3.75-8.39-8.49a7.94,7.94,0,0,1,8.38-7.9A8.44,8.44,0,0,1,268.86,297Z"/><path d="M170.34,361c-1.76.41-3.69.8-5.58,1.31Q153,365.5,141.2,368.71c-1,.26-2,.87-2.86.71-1.14-.2-2.79-.82-3.06-1.64s.58-2.36,1.33-3.24a5.48,5.48,0,0,1,2.69-1.22c8.82-2.36,17.61-4.84,26.49-6.94C170.31,355.31,171.22,356.42,170.34,361Z"/><path d="M176.91,370.14a23.36,23.36,0,0,1-2.5,3.34c-6.12,5.34-12.3,10.61-18.47,15.9-.37.32-.81.79-1.22.79-1.08,0-2.77.19-3.11-.37a5.35,5.35,0,0,1-.12-3.53c.15-.69,1-1.26,1.64-1.8,5.23-4.6,10.44-9.22,15.74-13.73a10.06,10.06,0,0,1,4.27-2.36C174.14,368.2,175.4,369.38,176.91,370.14Z"/><path d="M280.48,305.81a21.14,21.14,0,0,1,2.76-3.27c5.72-4.55,11.53-9,17.33-13.46a6,6,0,0,1,2.59-1.43c1-.11,2.51.09,3,.76s.13,2.08,0,3.13c-.07.4-.64.75-1,1-6.29,4.92-12.56,9.85-18.89,14.72C284.05,309,282,309.23,280.48,305.81Z"/><path d="M287.81,319.64c-1.71-3.1-1.49-5.07,1.05-5.58,7.17-1.45,14.38-2.64,21.61-3.69.91-.13,2.93,1.3,2.87,1.84-.12,1.21-1.08,3.15-2,3.33C303.58,317.08,295.73,318.31,287.81,319.64Z"/><path d="M216,468.05c-2.67-1.16-3.79-2.7-2.22-4.46a10.73,10.73,0,0,1,5.1-3.19c1.48-.36,2.58,2.24,1.43,3.72A30.61,30.61,0,0,1,216,468.05Z"/><path d="M568.89,339.51c3.69,1.31,7.37,2.28,10.73,3.92,3.1,1.51,4.33,4.48,3.77,7.95a6.55,6.55,0,0,1-6.18,5.58,11.51,11.51,0,0,0-7.57,3.94c-4.17,4.31-9.89,2.64-11.34-3.25-1.4-5.69.38-10.88,4.26-15.07C564,341.06,566.54,340.6,568.89,339.51Z"/><path d="M553.42,329.57c0-3,2.08-5.26,4.8-5.29,3.22,0,6.3,3.56,6.18,7.2-.1,3.13-2.09,5-5,4.88A6.59,6.59,0,0,1,553.42,329.57Z"/><path d="M554.49,345.13a5.08,5.08,0,0,1-5.17,4.9,6.29,6.29,0,0,1-5.54-6.48,4.7,4.7,0,0,1,5.41-4.48A5.86,5.86,0,0,1,554.49,345.13Z"/><path d="M575.47,326a5.11,5.11,0,0,1,4.74,5.42c0,2.87-1.91,4.88-4.56,4.9a5.26,5.26,0,0,1-5-5.68A4.68,4.68,0,0,1,575.47,326Z"/><path d="M538.06,372c3.84,5.87-3.08,8-3.1,12-3.56.81-4.74-.59-4.32-3.27C531.28,376.65,533,373.24,538.06,372Z"/></g></g></svg>