<svg xmlns="http://www.w3.org/2000/svg" viewBox="0 0 304.13 206.52"><g id="Layer_2" data-name="Layer 2"><g id="Layer_1-2" data-name="Layer 1"><path d="M301.32,169.84a3.17,3.17,0,0,0-3.83,2.24,59.68,59.68,0,0,0-1.64,5.74c-1,3.93-1.89,7.88-2.83,11.82a6.11,6.11,0,0,1-1.73-2.64c-4.44-11.63-8.52-23.42-13.4-34.87-12.23-28.66-29.69-53.57-54.38-73A152,152,0,0,0,186,57h0a106.34,106.34,0,0,0-15.2-5A110.78,110.78,0,0,0,149,48.74l-1.56-.07h-.09c-1.45-.05-2.88-.07-4.28-.06h0c-.66-.87-1.33-1.7-2-2.51-.33-.39-.65-.78-1-1.16l-.07-.09A135.33,135.33,0,0,0,128,32h0A119.46,119.46,0,0,0,79.76,4.21C58.15-2.21,36.87-1.6,16.36,8.26c-5.21,2.51-9.82,6.3-14.6,9.65-1.35.94-2.88,2.3-.57,4.36,1-.56,1.92-1.05,2.8-1.68C25.51,5.05,49.33,2,74.5,8.36c20.61,5.19,37.75,16.31,52.44,31.19l.08.08c1.27,1.28,2.52,2.6,3.75,3.94.73.8,1.4,1.66,2,2.53s1.53,1.84,2.26,2.77c-2,.18-4,.41-5.82.69l-.26,0q-1.71.27-3.39.6l-.22,0A76.72,76.72,0,0,0,114.63,53c-.7.24-1.38.49-2,.74l-1,.38-.87.36-.69.31c-.68.31-1.32.62-1.93.94h0a57.33,57.33,0,0,0-6.79,3.78c-19.07,12.43-30,29.39-27.68,52.92,1.77,18.25,15.22,33.39,33,37.94a44.81,44.81,0,0,0,48-17.29c5.82-8.23,8.42-17.47,8.91-27.36.67-13.38-2.7-25.75-8.45-37.48-.87-1.79-1.81-3.57-2.79-5.34-.16-.28-.32-.56-.47-.84-.39-.71-.78-1.39-1.17-2.06-.77-1.36-1.6-2.81-2.55-4.5,2.1,0,3.33-.1,4.55,0A106.79,106.79,0,0,1,185.87,64c33.47,14.6,58,39,75.89,70.44a272.23,272.23,0,0,1,20.55,46.83c1.29,3.76,2.36,7.6,3.58,11.39-1.28-1.27-2.73-2.35-4.05-3.59-2.82-2.64-5.59-5.34-8.45-7.93-1.51-1.37-3.09-2-4.76-1.18a3,3,0,0,0-1.62,2.68h0a4.07,4.07,0,0,0,1.29,3c6.79,6.36,13.48,12.76,20.34,19,3.9,3.52,7.51,2.24,8.81-2.91,2.19-8.7,4.29-17.42,6.42-26.13a9.7,9.7,0,0,0,.26-1.85C304.18,171.67,303.36,170.23,301.32,169.84ZM156.65,109.32c-1.47,15.5-9.31,27.27-24.19,33.25-13.88,5.58-27,3.51-38.64-5.79C80.2,125.91,75.88,107,83,90.33,89.25,75.71,100,65.71,114.84,60c8.72-3.35,18.78-5.18,25.31-4.53h0a115.85,115.85,0,0,1,6.48,10.27l.37.66C154.19,79.57,158.12,93.72,156.65,109.32Z"/></g></g></svg>