<svg xmlns="http://www.w3.org/2000/svg" viewBox="0 0 237.99 203.39"><g id="Layer_2" data-name="Layer 2"><g id="Layer_1-2" data-name="Layer 1"><path d="M235.18,166.71a3.17,3.17,0,0,0-3.83,2.24,59.68,59.68,0,0,0-1.64,5.74c-1,3.93-1.89,7.88-2.83,11.82a6.11,6.11,0,0,1-1.73-2.64c-4.44-11.63-8.52-23.42-13.4-34.87-12.23-28.66-29.69-53.57-54.38-73a152,152,0,0,0-37.53-22.17h0a106.34,106.34,0,0,0-15.2-5,110.78,110.78,0,0,0-21.77-3.22l-1.56-.07h-.09c-1.45,0-2.88-.07-4.28-.06h0c-.67-.86-1.33-1.69-2-2.5-.33-.39-.65-.78-1-1.16l-.07-.09a135.33,135.33,0,0,0-12-12.87h0C48.19,16,38.91,8.81,20.32,3.28L14.18,1.49A35.93,35.93,0,0,0,3.18,0c-3.4.1-5.53.71,1.39,3,2.2.72,14.25,5.49,15.08,5.8,15.69,6,29.23,15.55,41.15,27.63l.08.08c1.27,1.28,2.52,2.6,3.75,3.94.73.8,1.4,1.66,2.05,2.53s1.53,1.84,2.26,2.77c-2,.18-4,.41-5.82.69l-.26,0q-1.71.27-3.39.6l-.22,0a76.72,76.72,0,0,0-10.76,2.76c-.7.24-1.38.49-2,.74l-1,.38-.87.36-.69.31c-.68.31-1.32.62-1.93.94h0a57.33,57.33,0,0,0-6.79,3.78C16.16,68.81,5.27,85.77,7.55,109.3c1.77,18.25,15.22,33.39,33,37.94a44.81,44.81,0,0,0,48-17.29c5.82-8.23,8.42-17.47,8.91-27.36.67-13.38-2.7-25.75-8.45-37.48-.87-1.79-1.81-3.57-2.79-5.34-.16-.28-.32-.56-.47-.84-.39-.71-.78-1.39-1.17-2.06-.77-1.36-1.6-2.81-2.55-4.5,2.1,0,3.33-.1,4.55,0a106.79,106.79,0,0,1,33.21,8.45c33.47,14.6,58,39,75.89,70.44a272.23,272.23,0,0,1,20.55,46.83c1.29,3.76,2.36,7.59,3.58,11.38-1.28-1.26-2.74-2.34-4.05-3.58-2.82-2.64-5.59-5.34-8.45-7.93-1.49-1.36-3.06-1.95-4.7-1.21a2.84,2.84,0,0,0-1.64,2.11,4.07,4.07,0,0,0,1.25,3.57c6.78,6.36,13.47,12.76,20.34,19,3.9,3.52,7.51,2.24,8.81-2.91,2.19-8.7,4.29-17.42,6.42-26.13a9.7,9.7,0,0,0,.26-1.85C238,168.54,237.22,167.1,235.18,166.71ZM90.51,106.19c-1.47,15.5-9.31,27.27-24.19,33.25-13.88,5.58-27,3.51-38.64-5.79C14.06,122.78,9.74,103.85,16.86,87.2c6.25-14.62,17-24.62,31.84-30.29,8.72-3.35,18.78-5.18,25.3-4.53h0a115.85,115.85,0,0,1,6.48,10.27l.37.66C88.05,76.44,92,90.59,90.51,106.19Z"/></g></g></svg>